<svg width="334" height="57" viewBox="0 0 334 57" fill="none" xmlns="http://www.w3.org/2000/svg">
<path d="M5.776 17.176C4.03067 17.176 2.784 16.9707 2.036 16.56C1.288 16.1493 0.811333 15.4453 0.606 14.448C0.415333 13.4507 0.32 11.7787 0.32 9.432C0.32 7.08533 0.415333 5.41333 0.606 4.416C0.811333 3.41867 1.288 2.71467 2.036 2.304C2.784 1.89333 4.03067 1.688 5.776 1.688C7.536 1.688 8.79 1.89333 9.538 2.304C10.286 2.71467 10.7627 3.41867 10.968 4.416C11.1733 5.41333 11.276 7.08533 11.276 9.432C11.276 11.7787 11.1733 13.4507 10.968 14.448C10.7627 15.4453 10.286 16.1493 9.538 16.56C8.79 16.9707 7.536 17.176 5.776 17.176ZM5.776 15.218C6.876 15.218 7.624 15.1227 8.02 14.932C8.416 14.7413 8.67267 14.2793 8.79 13.546C8.922 12.798 8.988 11.4267 8.988 9.432C8.988 7.43733 8.922 6.07333 8.79 5.34C8.67267 4.592 8.416 4.12267 8.02 3.932C7.624 3.74133 6.876 3.646 5.776 3.646C4.676 3.646 3.928 3.74133 3.532 3.932C3.15067 4.12267 2.894 4.592 2.762 5.34C2.64467 6.07333 2.586 7.43733 2.586 9.432C2.586 11.4267 2.64467 12.798 2.762 13.546C2.894 14.2793 3.15067 14.7413 3.532 14.932C3.928 15.1227 4.676 15.218 5.776 15.218ZM20.5861 15.504H20.4541C20.2341 16.0613 19.8675 16.4793 19.3541 16.758C18.8555 17.0367 18.1735 17.176 17.3081 17.176C16.3988 17.176 15.7095 17.0293 15.2401 16.736C14.7855 16.428 14.4775 15.9733 14.3161 15.372C14.1548 14.756 14.0741 13.92 14.0741 12.864V5.78H16.2081V12.028C16.2081 13.0547 16.2521 13.788 16.3401 14.228C16.4428 14.6533 16.6261 14.932 16.8901 15.064C17.1541 15.196 17.6088 15.262 18.2541 15.262C18.9288 15.262 19.4275 15.13 19.7501 14.866C20.0728 14.602 20.2781 14.228 20.3661 13.744C20.4541 13.2453 20.4981 12.5267 20.4981 11.588V5.78H22.6321V17H20.6741L20.5861 15.504ZM25.6762 5.78H27.6122L27.7002 7.804H27.8542C28.0889 6.968 28.4702 6.396 28.9982 6.088C29.5409 5.76533 30.2522 5.604 31.1322 5.604V7.738C30.2669 7.738 29.5922 7.88467 29.1082 8.178C28.6242 8.47133 28.2869 8.926 28.0962 9.542C27.9055 10.1433 27.8102 10.972 27.8102 12.028V17H25.6762V5.78ZM46.7008 17L45.5568 13.172H40.1888L39.0668 17H36.7788L41.3988 1.864H44.4128L49.0328 17H46.7008ZM42.9168 4.174H42.8068L40.7388 11.236H44.9848L42.9168 4.174ZM54.1098 17.176C53.1858 17.176 52.4672 17.0073 51.9538 16.67C51.4552 16.3327 51.0958 15.7533 50.8758 14.932C50.6558 14.1107 50.5458 12.9373 50.5458 11.412C50.5458 9.88667 50.6485 8.71333 50.8538 7.892C51.0738 7.056 51.4332 6.46933 51.9318 6.132C52.4452 5.78 53.1565 5.604 54.0658 5.604C54.8285 5.604 55.4518 5.714 55.9358 5.934C56.4345 6.154 56.8158 6.53533 57.0798 7.078H57.2118V0.653999H59.3458V17H57.3878L57.2998 15.526H57.1678C56.9185 16.1713 56.5298 16.6113 56.0018 16.846C55.4738 17.066 54.8432 17.176 54.1098 17.176ZM54.9678 15.262C55.5252 15.262 55.9578 15.174 56.2658 14.998C56.5738 14.822 56.7938 14.5433 56.9258 14.162C57.0432 13.8393 57.1165 13.4653 57.1458 13.04C57.1898 12.6 57.2118 12.0207 57.2118 11.302C57.2118 10.114 57.1312 9.27067 56.9698 8.772C56.8378 8.31733 56.6105 7.99467 56.2878 7.804C55.9798 7.61333 55.5325 7.518 54.9458 7.518C54.2418 7.518 53.7432 7.606 53.4498 7.782C53.1565 7.94333 52.9585 8.28067 52.8558 8.794C52.7532 9.30733 52.7018 10.1727 52.7018 11.39C52.7018 12.6073 52.7532 13.48 52.8558 14.008C52.9585 14.5213 53.1565 14.8587 53.4498 15.02C53.7578 15.1813 54.2638 15.262 54.9678 15.262ZM65.5395 17.176C64.6155 17.176 63.8968 17.0073 63.3835 16.67C62.8848 16.3327 62.5255 15.7533 62.3055 14.932C62.0855 14.1107 61.9755 12.9373 61.9755 11.412C61.9755 9.88667 62.0782 8.71333 62.2835 7.892C62.5035 7.056 62.8628 6.46933 63.3615 6.132C63.8748 5.78 64.5862 5.604 65.4955 5.604C66.2582 5.604 66.8815 5.714 67.3655 5.934C67.8642 6.154 68.2455 6.53533 68.5095 7.078H68.6415V0.653999H70.7755V17H68.8175L68.7295 15.526H68.5975C68.3482 16.1713 67.9595 16.6113 67.4315 16.846C66.9035 17.066 66.2728 17.176 65.5395 17.176ZM66.3975 15.262C66.9548 15.262 67.3875 15.174 67.6955 14.998C68.0035 14.822 68.2235 14.5433 68.3555 14.162C68.4728 13.8393 68.5462 13.4653 68.5755 13.04C68.6195 12.6 68.6415 12.0207 68.6415 11.302C68.6415 10.114 68.5608 9.27067 68.3995 8.772C68.2675 8.31733 68.0402 7.99467 67.7175 7.804C67.4095 7.61333 66.9622 7.518 66.3755 7.518C65.6715 7.518 65.1728 7.606 64.8795 7.782C64.5862 7.94333 64.3882 8.28067 64.2855 8.794C64.1828 9.30733 64.1315 10.1727 64.1315 11.39C64.1315 12.6073 64.1828 13.48 64.2855 14.008C64.3882 14.5213 64.5862 14.8587 64.8795 15.02C65.1875 15.1813 65.6935 15.262 66.3975 15.262ZM73.8012 5.78H75.7372L75.8252 7.804H75.9792C76.2139 6.968 76.5952 6.396 77.1232 6.088C77.6659 5.76533 78.3772 5.604 79.2572 5.604V7.738C78.3919 7.738 77.7172 7.88467 77.2332 8.178C76.7492 8.47133 76.4119 8.926 76.2212 9.542C76.0305 10.1433 75.9352 10.972 75.9352 12.028V17H73.8012V5.78ZM89.3554 12.094H82.8874C82.8874 13.1207 82.9387 13.8467 83.0414 14.272C83.1587 14.6973 83.4154 14.9907 83.8114 15.152C84.222 15.3133 84.904 15.394 85.8574 15.394C86.6494 15.394 87.6907 15.3207 88.9814 15.174V16.846C88.5707 16.9487 88.028 17.0293 87.3534 17.088C86.6787 17.1467 86.026 17.176 85.3954 17.176C84.002 17.176 82.9754 17 82.3154 16.648C81.67 16.2813 81.2447 15.7093 81.0394 14.932C80.834 14.1547 80.7314 12.9813 80.7314 11.412C80.7314 9.872 80.8267 8.71333 81.0174 7.936C81.208 7.144 81.6187 6.55733 82.2494 6.176C82.88 5.79467 83.87 5.604 85.2194 5.604C86.5247 5.604 87.4634 5.79467 88.0354 6.176C88.622 6.54267 88.9887 7.10733 89.1354 7.87C89.282 8.618 89.3554 9.79133 89.3554 11.39V12.094ZM85.1754 7.386C84.4714 7.386 83.9654 7.46667 83.6574 7.628C83.364 7.78933 83.166 8.08267 83.0634 8.508C82.9607 8.93333 82.902 9.63 82.8874 10.598H87.2874V10.488C87.2874 9.54933 87.2287 8.86733 87.1114 8.442C86.994 8.01667 86.7887 7.738 86.4954 7.606C86.2167 7.45933 85.7767 7.386 85.1754 7.386ZM95.408 17.176C94.8506 17.176 94.2273 17.1467 93.538 17.088C92.8486 17.0293 92.2546 16.9633 91.756 16.89V15.174C92.812 15.306 93.934 15.372 95.122 15.372C95.7233 15.372 96.1706 15.3207 96.464 15.218C96.7573 15.1153 96.948 14.9613 97.036 14.756C97.124 14.5507 97.168 14.25 97.168 13.854C97.168 13.414 97.1386 13.106 97.08 12.93C97.0213 12.7393 96.9186 12.6147 96.772 12.556C96.6253 12.4827 96.3686 12.424 96.002 12.38L93.582 12.05C92.746 11.9473 92.1813 11.6613 91.888 11.192C91.5946 10.708 91.448 9.95267 91.448 8.926C91.448 8.01667 91.6093 7.32 91.932 6.836C92.2546 6.352 92.6946 6.02933 93.252 5.868C93.824 5.692 94.5573 5.604 95.452 5.604C96.0093 5.604 96.5886 5.63333 97.19 5.692C97.806 5.75067 98.3046 5.83133 98.686 5.934V7.628C97.7033 7.48133 96.6766 7.408 95.606 7.408C94.8286 7.408 94.286 7.50333 93.978 7.694C93.67 7.87 93.516 8.266 93.516 8.882C93.516 9.278 93.538 9.564 93.582 9.74C93.6406 9.916 93.7433 10.0407 93.89 10.114C94.0366 10.1873 94.2713 10.246 94.594 10.29L97.08 10.598C97.608 10.6713 98.0186 10.796 98.312 10.972C98.62 11.148 98.8473 11.456 98.994 11.896C99.1553 12.3213 99.236 12.952 99.236 13.788C99.236 14.6973 99.0893 15.4013 98.796 15.9C98.5173 16.384 98.0993 16.7213 97.542 16.912C96.9993 17.088 96.288 17.176 95.408 17.176ZM105.097 17.176C104.54 17.176 103.917 17.1467 103.227 17.088C102.538 17.0293 101.944 16.9633 101.445 16.89V15.174C102.501 15.306 103.623 15.372 104.811 15.372C105.413 15.372 105.86 15.3207 106.153 15.218C106.447 15.1153 106.637 14.9613 106.725 14.756C106.813 14.5507 106.857 14.25 106.857 13.854C106.857 13.414 106.828 13.106 106.769 12.93C106.711 12.7393 106.608 12.6147 106.461 12.556C106.315 12.4827 106.058 12.424 105.691 12.38L103.271 12.05C102.435 11.9473 101.871 11.6613 101.577 11.192C101.284 10.708 101.137 9.95267 101.137 8.926C101.137 8.01667 101.299 7.32 101.621 6.836C101.944 6.352 102.384 6.02933 102.941 5.868C103.513 5.692 104.247 5.604 105.141 5.604C105.699 5.604 106.278 5.63333 106.879 5.692C107.495 5.75067 107.994 5.83133 108.375 5.934V7.628C107.393 7.48133 106.366 7.408 105.295 7.408C104.518 7.408 103.975 7.50333 103.667 7.694C103.359 7.87 103.205 8.266 103.205 8.882C103.205 9.278 103.227 9.564 103.271 9.74C103.33 9.916 103.433 10.0407 103.579 10.114C103.726 10.1873 103.961 10.246 104.283 10.29L106.769 10.598C107.297 10.6713 107.708 10.796 108.001 10.972C108.309 11.148 108.537 11.456 108.683 11.896C108.845 12.3213 108.925 12.952 108.925 13.788C108.925 14.6973 108.779 15.4013 108.485 15.9C108.207 16.384 107.789 16.7213 107.231 16.912C106.689 17.088 105.977 17.176 105.097 17.176Z" fill="#B98E75"/>
<path d="M2.388 50.042H9.384V52H0.188V50.152C0.188 48.8907 0.224667 47.9667 0.298 47.38C0.386 46.7787 0.584 46.2873 0.892 45.906C1.2 45.51 1.706 45.1433 2.41 44.806L5.666 43.244C6.282 42.9507 6.678 42.65 6.854 42.342C7.04467 42.034 7.14 41.5353 7.14 40.846C7.14 40.2007 7.052 39.724 6.876 39.416C6.71467 39.108 6.42867 38.9027 6.018 38.8C5.622 38.6973 5.01333 38.646 4.192 38.646C3.15067 38.646 1.904 38.734 0.452 38.91V37.084C1.024 36.9667 1.728 36.8713 2.564 36.798C3.4 36.7247 4.17 36.688 4.874 36.688C5.85667 36.688 6.66333 36.776 7.294 36.952C7.92467 37.128 8.43067 37.5093 8.812 38.096C9.19333 38.668 9.384 39.5187 9.384 40.648C9.384 41.5133 9.30333 42.21 9.142 42.738C8.99533 43.266 8.75333 43.6913 8.416 44.014C8.09333 44.322 7.646 44.6153 7.074 44.894L3.466 46.61C3.05533 46.8007 2.77667 47.0207 2.63 47.27C2.542 47.446 2.476 47.6733 2.432 47.952C2.40267 48.2307 2.388 48.634 2.388 49.162V50.042ZM18.059 52V48.59H11.415V46.874L16.255 36.864H18.697L13.857 46.654H18.059L18.587 41.704H20.325V46.654H22.151V48.59H20.325V52H18.059ZM37.6026 52L33.5106 45.29H31.7286V52H29.4626V36.864H31.7286V43.332H33.5106L37.6686 36.864H40.1106L35.3586 44.168L40.1766 52H37.6026ZM42.0033 37.832V35.654H44.2253V37.832H42.0033ZM42.0473 52V40.78H44.1813V52H42.0473ZM53.649 45.752C53.649 44.7253 53.5977 43.9993 53.495 43.574C53.407 43.134 53.231 42.848 52.967 42.716C52.703 42.584 52.2484 42.518 51.603 42.518C50.9284 42.518 50.4297 42.65 50.107 42.914C49.7844 43.178 49.579 43.5593 49.491 44.058C49.403 44.5567 49.359 45.268 49.359 46.192V52H47.225V40.78H49.161L49.249 42.276H49.403C49.6377 41.7333 50.0044 41.3227 50.503 41.044C51.0017 40.7507 51.6764 40.604 52.527 40.604C53.451 40.604 54.1404 40.758 54.595 41.066C55.0644 41.3593 55.3797 41.8067 55.541 42.408C55.7024 43.0093 55.783 43.8453 55.783 44.916V52H53.649V45.752ZM62.4571 56.466C61.0931 56.466 59.9564 56.3927 59.0471 56.246V54.574C60.2791 54.6327 61.2618 54.662 61.9951 54.662C62.9484 54.662 63.6378 54.5667 64.0631 54.376C64.4884 54.2 64.7598 53.87 64.8771 53.386C65.0091 52.9167 65.0751 52.1467 65.0751 51.076V50.592H64.9431C64.7084 51.1347 64.3418 51.5233 63.8431 51.758C63.3444 51.978 62.7211 52.088 61.9731 52.088C61.0344 52.088 60.3084 51.9267 59.7951 51.604C59.2964 51.2667 58.9371 50.6947 58.7171 49.888C58.5118 49.0667 58.4091 47.9007 58.4091 46.39C58.4091 44.8647 58.5191 43.6913 58.7391 42.87C58.9591 42.034 59.3258 41.4473 59.8391 41.11C60.3524 40.7727 61.0711 40.604 61.9951 40.604C62.6991 40.604 63.3151 40.7213 63.8431 40.956C64.3711 41.1907 64.7671 41.6307 65.0311 42.276H65.1631L65.2511 40.78H67.2091V50.526C67.2091 52.0953 67.1064 53.2833 66.9011 54.09C66.6958 54.8967 66.2558 55.4907 65.5811 55.872C64.9064 56.268 63.8651 56.466 62.4571 56.466ZM62.8311 50.196C63.3738 50.196 63.7918 50.1153 64.0851 49.954C64.3931 49.778 64.6204 49.5067 64.7671 49.14C64.8844 48.8467 64.9651 48.4873 65.0091 48.062C65.0531 47.6367 65.0751 47.072 65.0751 46.368C65.0751 45.708 65.0531 45.1727 65.0091 44.762C64.9798 44.3367 64.9064 43.9773 64.7891 43.684C64.6424 43.2733 64.4151 42.98 64.1071 42.804C63.7991 42.6133 63.3738 42.518 62.8311 42.518C62.1124 42.518 61.5991 42.5987 61.2911 42.76C60.9978 42.9213 60.7998 43.2587 60.6971 43.772C60.6091 44.2853 60.5651 45.1507 60.5651 46.368C60.5651 47.5707 60.6164 48.4287 60.7191 48.942C60.8218 49.4407 61.0198 49.778 61.3131 49.954C61.6211 50.1153 62.1271 50.196 62.8311 50.196ZM79.5803 52.176C77.9963 52.176 76.449 52.0733 74.9383 51.868V49.976C76.5223 50.1373 77.8423 50.218 78.8983 50.218C79.573 50.218 80.101 50.1813 80.4823 50.108C80.8783 50.0347 81.1937 49.91 81.4283 49.734C81.6337 49.558 81.7657 49.3233 81.8243 49.03C81.8977 48.722 81.9343 48.304 81.9343 47.776C81.9343 47.116 81.8977 46.654 81.8243 46.39C81.7657 46.1113 81.6263 45.9133 81.4063 45.796C81.1863 45.664 80.8123 45.5613 80.2843 45.488L77.3363 45.092C76.559 44.9893 75.9723 44.7693 75.5763 44.432C75.1803 44.0947 74.909 43.6547 74.7623 43.112C74.6303 42.5693 74.5643 41.8727 74.5643 41.022C74.5643 39.8633 74.7477 38.9687 75.1143 38.338C75.4957 37.7073 76.031 37.2747 76.7203 37.04C77.4243 36.8053 78.3263 36.688 79.4263 36.688C80.1743 36.688 80.915 36.7247 81.6483 36.798C82.3817 36.8567 83.0123 36.9447 83.5403 37.062V38.91C82.5137 38.734 81.311 38.646 79.9323 38.646C79.2283 38.646 78.6783 38.6827 78.2823 38.756C77.8863 38.8293 77.5783 38.954 77.3583 39.13C77.1383 39.306 76.9917 39.5333 76.9183 39.812C76.8597 40.076 76.8303 40.45 76.8303 40.934C76.8303 41.506 76.8597 41.924 76.9183 42.188C76.9917 42.452 77.1237 42.6427 77.3143 42.76C77.505 42.8627 77.8277 42.9433 78.2823 43.002L81.2743 43.398C81.949 43.486 82.4917 43.64 82.9023 43.86C83.313 44.0653 83.6283 44.432 83.8483 44.96C84.083 45.5173 84.2003 46.3827 84.2003 47.556C84.2003 48.8173 84.0243 49.7853 83.6723 50.46C83.335 51.12 82.8363 51.5747 82.1763 51.824C81.531 52.0587 80.6657 52.176 79.5803 52.176ZM87.4639 52V42.584H85.5499V40.78H87.4639V37.524H89.5979V40.78H91.8639V42.584H89.5979V52H87.4639ZM92.2219 53.826C92.7499 53.826 93.0946 53.7307 93.2559 53.54C93.4172 53.364 93.4979 52.9753 93.4979 52.374V52H92.5519V49.602H94.9719V51.494C94.9719 52.4473 94.9059 53.144 94.7739 53.584C94.6419 54.0387 94.3852 54.354 94.0039 54.53C93.6372 54.7207 93.0432 54.816 92.2219 54.816V53.826ZM110.906 51.868C110.51 51.956 110.012 52.0293 109.41 52.088C108.824 52.1467 108.274 52.176 107.76 52.176C106.162 52.176 104.988 51.9707 104.24 51.56C103.507 51.1347 103.016 50.4013 102.766 49.36C102.517 48.304 102.392 46.6613 102.392 44.432C102.392 42.2173 102.517 40.582 102.766 39.526C103.016 38.47 103.507 37.7367 104.24 37.326C104.988 36.9007 106.162 36.688 107.76 36.688C108.288 36.688 108.838 36.7247 109.41 36.798C109.997 36.8567 110.474 36.9373 110.84 37.04V38.844C109.946 38.712 109.102 38.646 108.31 38.646C107.108 38.646 106.272 38.7633 105.802 38.998C105.333 39.2327 105.025 39.724 104.878 40.472C104.732 41.22 104.658 42.54 104.658 44.432C104.658 46.324 104.732 47.644 104.878 48.392C105.025 49.14 105.333 49.6313 105.802 49.866C106.272 50.1007 107.108 50.218 108.31 50.218C109.337 50.218 110.202 50.152 110.906 50.02V51.868ZM119.778 45.752C119.778 44.7253 119.727 43.9993 119.624 43.574C119.536 43.134 119.36 42.848 119.096 42.716C118.832 42.584 118.377 42.518 117.732 42.518C117.057 42.518 116.559 42.65 116.236 42.914C115.913 43.178 115.708 43.5593 115.62 44.058C115.532 44.5567 115.488 45.268 115.488 46.192V52H113.354V35.654H115.488V42.144H115.62C115.855 41.6453 116.214 41.2713 116.698 41.022C117.182 40.758 117.835 40.626 118.656 40.626C119.565 40.626 120.255 40.78 120.724 41.088C121.193 41.3813 121.509 41.8287 121.67 42.43C121.831 43.0313 121.912 43.86 121.912 44.916V52H119.778V45.752ZM127.464 52.176C126.379 52.176 125.579 51.9267 125.066 51.428C124.567 50.9293 124.318 50.0787 124.318 48.876C124.318 48.0107 124.413 47.336 124.604 46.852C124.795 46.368 125.117 46.016 125.572 45.796C126.027 45.576 126.665 45.466 127.486 45.466C128.234 45.466 129.312 45.4953 130.72 45.554V44.96C130.72 44.1387 130.654 43.5593 130.522 43.222C130.39 42.8847 130.141 42.6647 129.774 42.562C129.407 42.4593 128.791 42.408 127.926 42.408C127.515 42.408 127.002 42.43 126.386 42.474C125.77 42.518 125.293 42.5693 124.956 42.628V40.912C126.056 40.7067 127.273 40.604 128.608 40.604C129.825 40.604 130.735 40.7433 131.336 41.022C131.937 41.3007 132.341 41.748 132.546 42.364C132.751 42.9653 132.854 43.8453 132.854 45.004V52H130.918L130.83 50.548H130.698C130.419 51.1933 129.994 51.626 129.422 51.846C128.865 52.066 128.212 52.176 127.464 52.176ZM128.366 50.394C128.879 50.394 129.297 50.3353 129.62 50.218C129.943 50.1007 130.192 49.8807 130.368 49.558C130.603 49.0887 130.72 48.3993 130.72 47.49V46.962H128.014C127.559 46.962 127.222 47.006 127.002 47.094C126.782 47.1673 126.628 47.3287 126.54 47.578C126.452 47.8127 126.408 48.1867 126.408 48.7C126.408 49.184 126.452 49.5433 126.54 49.778C126.643 50.0127 126.826 50.174 127.09 50.262C127.369 50.35 127.794 50.394 128.366 50.394ZM135.891 40.78H137.827L137.915 42.804H138.069C138.304 41.968 138.685 41.396 139.213 41.088C139.756 40.7653 140.467 40.604 141.347 40.604V42.738C140.482 42.738 139.807 42.8847 139.323 43.178C138.839 43.4713 138.502 43.926 138.311 44.542C138.12 45.1433 138.025 45.972 138.025 47.028V52H135.891V40.78ZM143.325 52V35.654H145.459V52H143.325ZM156.73 47.094H150.262C150.262 48.1207 150.314 48.8467 150.416 49.272C150.534 49.6973 150.79 49.9907 151.186 50.152C151.597 50.3133 152.279 50.394 153.232 50.394C154.024 50.394 155.066 50.3207 156.356 50.174V51.846C155.946 51.9487 155.403 52.0293 154.728 52.088C154.054 52.1467 153.401 52.176 152.77 52.176C151.377 52.176 150.35 52 149.69 51.648C149.045 51.2813 148.62 50.7093 148.414 49.932C148.209 49.1547 148.106 47.9813 148.106 46.412C148.106 44.872 148.202 43.7133 148.392 42.936C148.583 42.144 148.994 41.5573 149.624 41.176C150.255 40.7947 151.245 40.604 152.594 40.604C153.9 40.604 154.838 40.7947 155.41 41.176C155.997 41.5427 156.364 42.1073 156.51 42.87C156.657 43.618 156.73 44.7913 156.73 46.39V47.094ZM152.55 42.386C151.846 42.386 151.34 42.4667 151.032 42.628C150.739 42.7893 150.541 43.0827 150.438 43.508C150.336 43.9333 150.277 44.63 150.262 45.598H154.662V45.488C154.662 44.5493 154.604 43.8673 154.486 43.442C154.369 43.0167 154.164 42.738 153.87 42.606C153.592 42.4593 153.152 42.386 152.55 42.386ZM162.783 52.176C162.226 52.176 161.602 52.1467 160.913 52.088C160.224 52.0293 159.63 51.9633 159.131 51.89V50.174C160.187 50.306 161.309 50.372 162.497 50.372C163.098 50.372 163.546 50.3207 163.839 50.218C164.132 50.1153 164.323 49.9613 164.411 49.756C164.499 49.5507 164.543 49.25 164.543 48.854C164.543 48.414 164.514 48.106 164.455 47.93C164.396 47.7393 164.294 47.6147 164.147 47.556C164 47.4827 163.744 47.424 163.377 47.38L160.957 47.05C160.121 46.9473 159.556 46.6613 159.263 46.192C158.97 45.708 158.823 44.9527 158.823 43.926C158.823 43.0167 158.984 42.32 159.307 41.836C159.63 41.352 160.07 41.0293 160.627 40.868C161.199 40.692 161.932 40.604 162.827 40.604C163.384 40.604 163.964 40.6333 164.565 40.692C165.181 40.7507 165.68 40.8313 166.061 40.934V42.628C165.078 42.4813 164.052 42.408 162.981 42.408C162.204 42.408 161.661 42.5033 161.353 42.694C161.045 42.87 160.891 43.266 160.891 43.882C160.891 44.278 160.913 44.564 160.957 44.74C161.016 44.916 161.118 45.0407 161.265 45.114C161.412 45.1873 161.646 45.246 161.969 45.29L164.455 45.598C164.983 45.6713 165.394 45.796 165.687 45.972C165.995 46.148 166.222 46.456 166.369 46.896C166.53 47.3213 166.611 47.952 166.611 48.788C166.611 49.6973 166.464 50.4013 166.171 50.9C165.892 51.384 165.474 51.7213 164.917 51.912C164.374 52.088 163.663 52.176 162.783 52.176ZM169.835 52V42.584H167.921V40.78H169.835V37.524H171.969V40.78H174.235V42.584H171.969V52H169.835ZM180.201 52.176C178.793 52.176 177.781 52.0147 177.165 51.692C176.564 51.3693 176.175 50.834 175.999 50.086C175.823 49.3233 175.735 48.0913 175.735 46.39C175.735 44.6887 175.823 43.4567 175.999 42.694C176.175 41.9313 176.564 41.396 177.165 41.088C177.781 40.7653 178.793 40.604 180.201 40.604C181.609 40.604 182.614 40.7653 183.215 41.088C183.831 41.396 184.227 41.9313 184.403 42.694C184.579 43.4567 184.667 44.6887 184.667 46.39C184.667 48.0913 184.579 49.3233 184.403 50.086C184.227 50.834 183.831 51.3693 183.215 51.692C182.614 52.0147 181.609 52.176 180.201 52.176ZM180.201 50.372C180.993 50.372 181.543 50.284 181.851 50.108C182.159 49.932 182.35 49.5947 182.423 49.096C182.497 48.5973 182.533 47.6953 182.533 46.39C182.533 45.07 182.497 44.168 182.423 43.684C182.35 43.1853 182.159 42.848 181.851 42.672C181.543 42.496 180.993 42.408 180.201 42.408C179.424 42.408 178.881 42.496 178.573 42.672C178.265 42.848 178.075 43.1853 178.001 43.684C177.928 44.168 177.891 45.07 177.891 46.39C177.891 47.6953 177.928 48.5973 178.001 49.096C178.075 49.5947 178.265 49.932 178.573 50.108C178.881 50.284 179.424 50.372 180.201 50.372ZM193.749 45.752C193.749 44.7253 193.697 43.9993 193.595 43.574C193.507 43.134 193.331 42.848 193.067 42.716C192.803 42.584 192.348 42.518 191.703 42.518C191.028 42.518 190.529 42.65 190.207 42.914C189.884 43.178 189.679 43.5593 189.591 44.058C189.503 44.5567 189.459 45.268 189.459 46.192V52H187.325V40.78H189.261L189.349 42.276H189.503C189.737 41.7333 190.104 41.3227 190.603 41.044C191.101 40.7507 191.776 40.604 192.627 40.604C193.551 40.604 194.24 40.758 194.695 41.066C195.164 41.3593 195.479 41.8067 195.641 42.408C195.802 43.0093 195.883 43.8453 195.883 44.916V52H193.749V45.752ZM198.355 53.826C198.883 53.826 199.227 53.7307 199.389 53.54C199.55 53.364 199.631 52.9753 199.631 52.374V52H198.685V49.602H201.105V51.494C201.105 52.4473 201.039 53.144 200.907 53.584C200.775 54.0387 200.518 54.354 200.137 54.53C199.77 54.7207 199.176 54.816 198.355 54.816V53.826ZM213.299 52.176C211.715 52.176 210.168 52.0733 208.657 51.868V49.976C210.241 50.1373 211.561 50.218 212.617 50.218C213.292 50.218 213.82 50.1813 214.201 50.108C214.597 50.0347 214.912 49.91 215.147 49.734C215.352 49.558 215.484 49.3233 215.543 49.03C215.616 48.722 215.653 48.304 215.653 47.776C215.653 47.116 215.616 46.654 215.543 46.39C215.484 46.1113 215.345 45.9133 215.125 45.796C214.905 45.664 214.531 45.5613 214.003 45.488L211.055 45.092C210.278 44.9893 209.691 44.7693 209.295 44.432C208.899 44.0947 208.628 43.6547 208.481 43.112C208.349 42.5693 208.283 41.8727 208.283 41.022C208.283 39.8633 208.466 38.9687 208.833 38.338C209.214 37.7073 209.75 37.2747 210.439 37.04C211.143 36.8053 212.045 36.688 213.145 36.688C213.893 36.688 214.634 36.7247 215.367 36.798C216.1 36.8567 216.731 36.9447 217.259 37.062V38.91C216.232 38.734 215.03 38.646 213.651 38.646C212.947 38.646 212.397 38.6827 212.001 38.756C211.605 38.8293 211.297 38.954 211.077 39.13C210.857 39.306 210.71 39.5333 210.637 39.812C210.578 40.076 210.549 40.45 210.549 40.934C210.549 41.506 210.578 41.924 210.637 42.188C210.71 42.452 210.842 42.6427 211.033 42.76C211.224 42.8627 211.546 42.9433 212.001 43.002L214.993 43.398C215.668 43.486 216.21 43.64 216.621 43.86C217.032 44.0653 217.347 44.432 217.567 44.96C217.802 45.5173 217.919 46.3827 217.919 47.556C217.919 48.8173 217.743 49.7853 217.391 50.46C217.054 51.12 216.555 51.5747 215.895 51.824C215.25 52.0587 214.384 52.176 213.299 52.176ZM228.855 51.868C228.459 51.956 227.961 52.0293 227.359 52.088C226.773 52.1467 226.223 52.176 225.709 52.176C224.111 52.176 222.937 51.9707 222.189 51.56C221.456 51.1347 220.965 50.4013 220.715 49.36C220.466 48.304 220.341 46.6613 220.341 44.432C220.341 42.2173 220.466 40.582 220.715 39.526C220.965 38.47 221.456 37.7367 222.189 37.326C222.937 36.9007 224.111 36.688 225.709 36.688C226.237 36.688 226.787 36.7247 227.359 36.798C227.946 36.8567 228.423 36.9373 228.789 37.04V38.844C227.895 38.712 227.051 38.646 226.259 38.646C225.057 38.646 224.221 38.7633 223.751 38.998C223.282 39.2327 222.974 39.724 222.827 40.472C222.681 41.22 222.607 42.54 222.607 44.432C222.607 46.324 222.681 47.644 222.827 48.392C222.974 49.14 223.282 49.6313 223.751 49.866C224.221 50.1007 225.057 50.218 226.259 50.218C227.286 50.218 228.151 50.152 228.855 50.02V51.868ZM237.964 50.042H244.96V52H235.764V50.152C235.764 48.8907 235.801 47.9667 235.874 47.38C235.962 46.7787 236.16 46.2873 236.468 45.906C236.776 45.51 237.282 45.1433 237.986 44.806L241.242 43.244C241.858 42.9507 242.254 42.65 242.43 42.342C242.621 42.034 242.716 41.5353 242.716 40.846C242.716 40.2007 242.628 39.724 242.452 39.416C242.291 39.108 242.005 38.9027 241.594 38.8C241.198 38.6973 240.59 38.646 239.768 38.646C238.727 38.646 237.48 38.734 236.028 38.91V37.084C236.6 36.9667 237.304 36.8713 238.14 36.798C238.976 36.7247 239.746 36.688 240.45 36.688C241.433 36.688 242.24 36.776 242.87 36.952C243.501 37.128 244.007 37.5093 244.388 38.096C244.77 38.668 244.96 39.5187 244.96 40.648C244.96 41.5133 244.88 42.21 244.718 42.738C244.572 43.266 244.33 43.6913 243.992 44.014C243.67 44.322 243.222 44.6153 242.65 44.894L239.042 46.61C238.632 46.8007 238.353 47.0207 238.206 47.27C238.118 47.446 238.052 47.6733 238.008 47.952C237.979 48.2307 237.964 48.634 237.964 49.162V50.042ZM252.007 52.176C251.465 52.176 250.819 52.132 250.071 52.044C249.338 51.9707 248.663 51.8753 248.047 51.758V49.932C249.353 50.1227 250.526 50.218 251.567 50.218C252.697 50.218 253.503 50.0933 253.987 49.844C254.486 49.58 254.809 49.1033 254.955 48.414C255.117 47.71 255.197 46.5587 255.197 44.96H255.087C254.838 45.268 254.464 45.5247 253.965 45.73C253.467 45.9353 252.711 46.038 251.699 46.038C250.599 46.038 249.741 45.9353 249.125 45.73C248.524 45.51 248.077 45.092 247.783 44.476C247.49 43.86 247.343 42.9433 247.343 41.726C247.343 40.3767 247.468 39.35 247.717 38.646C247.981 37.942 248.458 37.4433 249.147 37.15C249.837 36.842 250.863 36.688 252.227 36.688C253.254 36.688 254.068 36.7467 254.669 36.864C255.285 36.9813 255.784 37.216 256.165 37.568C256.561 37.9053 256.862 38.404 257.067 39.064C257.229 39.592 257.339 40.274 257.397 41.11C257.456 41.9313 257.485 42.9947 257.485 44.3C257.485 45.6933 257.434 46.8373 257.331 47.732C257.243 48.612 257.082 49.3307 256.847 49.888C256.495 50.724 255.945 51.318 255.197 51.67C254.449 52.0073 253.386 52.176 252.007 52.176ZM252.381 44.102C253.217 44.102 253.826 44.036 254.207 43.904C254.603 43.7573 254.86 43.53 254.977 43.222C255.095 42.914 255.153 42.4447 255.153 41.814C255.153 40.846 255.073 40.142 254.911 39.702C254.75 39.262 254.479 38.976 254.097 38.844C253.731 38.712 253.159 38.646 252.381 38.646C251.56 38.646 250.959 38.7047 250.577 38.822C250.211 38.9247 249.954 39.1593 249.807 39.526C249.661 39.8927 249.587 40.4867 249.587 41.308C249.587 42.188 249.653 42.8187 249.785 43.2C249.932 43.5813 250.189 43.8307 250.555 43.948C250.922 44.0507 251.531 44.102 252.381 44.102ZM266.247 52V48.59H259.603V46.874L264.443 36.864H266.885L262.045 46.654H266.247L266.775 41.704H268.513V46.654H270.339V48.59H268.513V52H266.247ZM277.479 52.176C275.851 52.176 274.692 51.9707 274.003 51.56C273.314 51.1493 272.874 50.4453 272.683 49.448C272.507 48.4507 272.419 46.7787 272.419 44.432C272.419 42.0853 272.507 40.4133 272.683 39.416C272.874 38.4187 273.314 37.7147 274.003 37.304C274.692 36.8933 275.851 36.688 277.479 36.688C279.122 36.688 280.28 36.8933 280.955 37.304C281.644 37.7147 282.077 38.4187 282.253 39.416C282.444 40.3987 282.539 42.0707 282.539 44.432C282.539 46.7787 282.444 48.4507 282.253 49.448C282.077 50.4453 281.644 51.1493 280.955 51.56C280.266 51.9707 279.107 52.176 277.479 52.176ZM277.479 50.218C278.447 50.218 279.1 50.1227 279.437 49.932C279.789 49.7267 280.016 49.2647 280.119 48.546C280.222 47.8127 280.273 46.4413 280.273 44.432C280.273 42.4227 280.222 41.0587 280.119 40.34C280.016 39.6067 279.789 39.1447 279.437 38.954C279.1 38.7487 278.447 38.646 277.479 38.646C276.511 38.646 275.851 38.7487 275.499 38.954C275.162 39.1447 274.942 39.6067 274.839 40.34C274.736 41.0587 274.685 42.4227 274.685 44.432C274.685 46.4413 274.736 47.8127 274.839 48.546C274.942 49.2647 275.162 49.7267 275.499 49.932C275.851 50.1227 276.511 50.218 277.479 50.218ZM287.052 52V39.46L284.456 40.67V38.646L287.712 36.864H289.318V52H287.052ZM307.815 36.864V45.356C307.815 47.336 307.705 48.7807 307.485 49.69C307.265 50.5993 306.803 51.2447 306.099 51.626C305.395 51.9927 304.265 52.176 302.711 52.176C301.156 52.176 300.019 51.9927 299.301 51.626C298.597 51.2447 298.127 50.5993 297.893 49.69C297.673 48.766 297.563 47.3213 297.563 45.356V36.864H299.829V46.126C299.829 47.402 299.88 48.304 299.983 48.832C300.1 49.36 300.349 49.7267 300.731 49.932C301.112 50.1227 301.772 50.218 302.711 50.218C303.635 50.218 304.287 50.1227 304.669 49.932C305.05 49.7267 305.292 49.3673 305.395 48.854C305.497 48.326 305.549 47.4167 305.549 46.126V36.864H307.815ZM315.522 52.176C313.938 52.176 312.39 52.0733 310.88 51.868V49.976C312.464 50.1373 313.784 50.218 314.84 50.218C315.514 50.218 316.042 50.1813 316.424 50.108C316.82 50.0347 317.135 49.91 317.37 49.734C317.575 49.558 317.707 49.3233 317.766 49.03C317.839 48.722 317.876 48.304 317.876 47.776C317.876 47.116 317.839 46.654 317.766 46.39C317.707 46.1113 317.568 45.9133 317.348 45.796C317.128 45.664 316.754 45.5613 316.226 45.488L313.278 45.092C312.5 44.9893 311.914 44.7693 311.518 44.432C311.122 44.0947 310.85 43.6547 310.704 43.112C310.572 42.5693 310.506 41.8727 310.506 41.022C310.506 39.8633 310.689 38.9687 311.056 38.338C311.437 37.7073 311.972 37.2747 312.662 37.04C313.366 36.8053 314.268 36.688 315.368 36.688C316.116 36.688 316.856 36.7247 317.59 36.798C318.323 36.8567 318.954 36.9447 319.482 37.062V38.91C318.455 38.734 317.252 38.646 315.874 38.646C315.17 38.646 314.62 38.6827 314.224 38.756C313.828 38.8293 313.52 38.954 313.3 39.13C313.08 39.306 312.933 39.5333 312.86 39.812C312.801 40.076 312.772 40.45 312.772 40.934C312.772 41.506 312.801 41.924 312.86 42.188C312.933 42.452 313.065 42.6427 313.256 42.76C313.446 42.8627 313.769 42.9433 314.224 43.002L317.216 43.398C317.89 43.486 318.433 43.64 318.844 43.86C319.254 44.0653 319.57 44.432 319.79 44.96C320.024 45.5173 320.142 46.3827 320.142 47.556C320.142 48.8173 319.966 49.7853 319.614 50.46C319.276 51.12 318.778 51.5747 318.118 51.824C317.472 52.0587 316.607 52.176 315.522 52.176ZM331.562 52L330.418 48.172H325.05L323.928 52H321.64L326.26 36.864H329.274L333.894 52H331.562ZM327.778 39.174H327.668L325.6 46.236H329.846L327.778 39.174Z" fill="#343438"/>
</svg>
