<svg width="224" height="55" viewBox="0 0 224 55" fill="none" xmlns="http://www.w3.org/2000/svg">
<path d="M1.738 17V1.864H10.45V3.822H4.004V8.376H9.57V10.334H4.004V15.042H10.45V17H1.738ZM25.0901 10.752C25.0901 9.72533 25.0461 8.99933 24.9581 8.574C24.8848 8.134 24.7235 7.848 24.4741 7.716C24.2395 7.584 23.8288 7.518 23.2421 7.518C22.6261 7.518 22.1715 7.64267 21.8781 7.892C21.5848 8.14133 21.3941 8.51533 21.3061 9.014C21.2181 9.51267 21.1741 10.2387 21.1741 11.192V17H19.0401V10.752C19.0401 9.71067 18.9961 8.97733 18.9081 8.552C18.8348 8.12667 18.6808 7.848 18.4461 7.716C18.2115 7.584 17.8008 7.518 17.2141 7.518C16.5981 7.518 16.1435 7.65 15.8501 7.914C15.5568 8.16333 15.3661 8.53733 15.2781 9.036C15.1901 9.53467 15.1461 10.2533 15.1461 11.192V17H13.0121V5.78H14.9481L15.0361 7.276H15.1901C15.4101 6.73333 15.7548 6.32267 16.2241 6.044C16.7081 5.75067 17.3535 5.604 18.1601 5.604C19.0108 5.604 19.6488 5.736 20.0741 6C20.4995 6.264 20.8001 6.68933 20.9761 7.276H21.1081C21.5775 6.16133 22.5895 5.604 24.1441 5.604C24.9948 5.604 25.6401 5.758 26.0801 6.066C26.5348 6.35933 26.8355 6.814 26.9821 7.43C27.1435 8.03133 27.2241 8.86 27.2241 9.916V17H25.0901V10.752ZM32.7726 17.176C31.6873 17.176 30.8879 16.9267 30.3746 16.428C29.8759 15.9293 29.6266 15.0787 29.6266 13.876C29.6266 13.0107 29.7219 12.336 29.9126 11.852C30.1033 11.368 30.4259 11.016 30.8806 10.796C31.3353 10.576 31.9733 10.466 32.7946 10.466C33.5426 10.466 34.6206 10.4953 36.0286 10.554V9.96C36.0286 9.13867 35.9626 8.55933 35.8306 8.222C35.6986 7.88467 35.4493 7.66467 35.0826 7.562C34.7159 7.45933 34.0999 7.408 33.2346 7.408C32.8239 7.408 32.3106 7.43 31.6946 7.474C31.0786 7.518 30.6019 7.56933 30.2646 7.628V5.912C31.3646 5.70667 32.5819 5.604 33.9166 5.604C35.1339 5.604 36.0433 5.74333 36.6446 6.022C37.2459 6.30067 37.6493 6.748 37.8546 7.364C38.0599 7.96533 38.1626 8.84533 38.1626 10.004V17H36.2266L36.1386 15.548H36.0066C35.7279 16.1933 35.3026 16.626 34.7306 16.846C34.1733 17.066 33.5206 17.176 32.7726 17.176ZM33.6746 15.394C34.1879 15.394 34.6059 15.3353 34.9286 15.218C35.2513 15.1007 35.5006 14.8807 35.6766 14.558C35.9113 14.0887 36.0286 13.3993 36.0286 12.49V11.962H33.3226C32.8679 11.962 32.5306 12.006 32.3106 12.094C32.0906 12.1673 31.9366 12.3287 31.8486 12.578C31.7606 12.8127 31.7166 13.1867 31.7166 13.7C31.7166 14.184 31.7606 14.5433 31.8486 14.778C31.9513 15.0127 32.1346 15.174 32.3986 15.262C32.6773 15.35 33.1026 15.394 33.6746 15.394ZM41.1556 2.832V0.653999H43.3776V2.832H41.1556ZM41.1996 17V5.78H43.3336V17H41.1996ZM46.3774 17V0.653999H48.5114V17H46.3774Z" fill="#B98E75"/>
<path d="M4.048 52.176C2.96267 52.176 2.16333 51.9267 1.65 51.428C1.15133 50.9293 0.902 50.0787 0.902 48.876C0.902 48.0107 0.997333 47.336 1.188 46.852C1.37867 46.368 1.70133 46.016 2.156 45.796C2.61067 45.576 3.24867 45.466 4.07 45.466C4.818 45.466 5.896 45.4953 7.304 45.554V44.96C7.304 44.1387 7.238 43.5593 7.106 43.222C6.974 42.8847 6.72467 42.6647 6.358 42.562C5.99133 42.4593 5.37533 42.408 4.51 42.408C4.09933 42.408 3.586 42.43 2.97 42.474C2.354 42.518 1.87733 42.5693 1.54 42.628V40.912C2.64 40.7067 3.85733 40.604 5.192 40.604C6.40933 40.604 7.31867 40.7433 7.92 41.022C8.52133 41.3007 8.92467 41.748 9.13 42.364C9.33533 42.9653 9.438 43.8453 9.438 45.004V52H7.502L7.414 50.548H7.282C7.00333 51.1933 6.578 51.626 6.006 51.846C5.44867 52.066 4.796 52.176 4.048 52.176ZM4.95 50.394C5.46333 50.394 5.88133 50.3353 6.204 50.218C6.52667 50.1007 6.776 49.8807 6.952 49.558C7.18667 49.0887 7.304 48.3993 7.304 47.49V46.962H4.598C4.14333 46.962 3.806 47.006 3.586 47.094C3.366 47.1673 3.212 47.3287 3.124 47.578C3.036 47.8127 2.992 48.1867 2.992 48.7C2.992 49.184 3.036 49.5433 3.124 49.778C3.22667 50.0127 3.41 50.174 3.674 50.262C3.95267 50.35 4.378 50.394 4.95 50.394ZM12.475 40.78H14.411L14.499 42.804H14.653C14.8877 41.968 15.269 41.396 15.797 41.088C16.3397 40.7653 17.051 40.604 17.931 40.604V42.738C17.0657 42.738 16.391 42.8847 15.907 43.178C15.423 43.4713 15.0857 43.926 14.895 44.542C14.7044 45.1433 14.609 45.972 14.609 47.028V52H12.475V40.78ZM26.3572 51.868C26.0052 51.956 25.5652 52.0293 25.0372 52.088C24.5239 52.1467 24.0325 52.176 23.5632 52.176C22.3165 52.176 21.3925 51.978 20.7912 51.582C20.2045 51.186 19.8232 50.5993 19.6472 49.822C19.4859 49.0447 19.4052 47.9007 19.4052 46.39C19.4052 44.9087 19.5005 43.772 19.6912 42.98C19.8965 42.1733 20.2925 41.5793 20.8792 41.198C21.4659 40.802 22.3459 40.604 23.5192 40.604C23.9885 40.604 24.4799 40.6333 24.9932 40.692C25.5065 40.7507 25.9319 40.824 26.2692 40.912V42.606C25.5359 42.474 24.7952 42.408 24.0472 42.408C23.2992 42.408 22.7492 42.5107 22.3972 42.716C22.0599 42.9213 21.8325 43.2953 21.7152 43.838C21.6125 44.366 21.5612 45.2167 21.5612 46.39C21.5612 47.578 21.6199 48.4433 21.7372 48.986C21.8545 49.5287 22.0819 49.8953 22.4192 50.086C22.7712 50.2767 23.3285 50.372 24.0912 50.372C24.8832 50.372 25.6385 50.306 26.3572 50.174V51.868ZM35.1842 45.752C35.1842 44.7253 35.1329 43.9993 35.0302 43.574C34.9422 43.134 34.7662 42.848 34.5022 42.716C34.2382 42.584 33.7835 42.518 33.1382 42.518C32.4635 42.518 31.9649 42.65 31.6422 42.914C31.3195 43.178 31.1142 43.5593 31.0262 44.058C30.9382 44.5567 30.8942 45.268 30.8942 46.192V52H28.7602V35.654H30.8942V42.144H31.0262C31.2609 41.6453 31.6202 41.2713 32.1042 41.022C32.5882 40.758 33.2409 40.626 34.0622 40.626C34.9715 40.626 35.6609 40.78 36.1302 41.088C36.5995 41.3813 36.9149 41.8287 37.0762 42.43C37.2375 43.0313 37.3182 43.86 37.3182 44.916V52H35.1842V45.752ZM40.2963 37.832V35.654H42.5183V37.832H40.2963ZM40.3403 52V40.78H42.4743V52H40.3403ZM46.376 52V42.584H44.462V40.78H46.376V37.524H48.51V40.78H50.776V42.584H48.51V52H46.376ZM60.9003 47.094H54.4323C54.4323 48.1207 54.4836 48.8467 54.5863 49.272C54.7036 49.6973 54.9603 49.9907 55.3563 50.152C55.767 50.3133 56.449 50.394 57.4023 50.394C58.1943 50.394 59.2356 50.3207 60.5263 50.174V51.846C60.1156 51.9487 59.573 52.0293 58.8983 52.088C58.2236 52.1467 57.571 52.176 56.9403 52.176C55.547 52.176 54.5203 52 53.8603 51.648C53.215 51.2813 52.7896 50.7093 52.5843 49.932C52.379 49.1547 52.2763 47.9813 52.2763 46.412C52.2763 44.872 52.3716 43.7133 52.5623 42.936C52.753 42.144 53.1636 41.5573 53.7943 41.176C54.425 40.7947 55.415 40.604 56.7643 40.604C58.0696 40.604 59.0083 40.7947 59.5803 41.176C60.167 41.5427 60.5336 42.1073 60.6803 42.87C60.827 43.618 60.9003 44.7913 60.9003 46.39V47.094ZM56.7203 42.386C56.0163 42.386 55.5103 42.4667 55.2023 42.628C54.909 42.7893 54.711 43.0827 54.6083 43.508C54.5056 43.9333 54.447 44.63 54.4323 45.598H58.8323V45.488C58.8323 44.5493 58.7736 43.8673 58.6563 43.442C58.539 43.0167 58.3336 42.738 58.0403 42.606C57.7616 42.4593 57.3216 42.386 56.7203 42.386ZM70.1209 51.868C69.7689 51.956 69.3289 52.0293 68.8009 52.088C68.2875 52.1467 67.7962 52.176 67.3269 52.176C66.0802 52.176 65.1562 51.978 64.5549 51.582C63.9682 51.186 63.5869 50.5993 63.4109 49.822C63.2495 49.0447 63.1689 47.9007 63.1689 46.39C63.1689 44.9087 63.2642 43.772 63.4549 42.98C63.6602 42.1733 64.0562 41.5793 64.6429 41.198C65.2295 40.802 66.1095 40.604 67.2829 40.604C67.7522 40.604 68.2435 40.6333 68.7569 40.692C69.2702 40.7507 69.6955 40.824 70.0329 40.912V42.606C69.2995 42.474 68.5589 42.408 67.8109 42.408C67.0629 42.408 66.5129 42.5107 66.1609 42.716C65.8235 42.9213 65.5962 43.2953 65.4789 43.838C65.3762 44.366 65.3249 45.2167 65.3249 46.39C65.3249 47.578 65.3835 48.4433 65.5009 48.986C65.6182 49.5287 65.8455 49.8953 66.1829 50.086C66.5349 50.2767 67.0922 50.372 67.8549 50.372C68.6469 50.372 69.4022 50.306 70.1209 50.174V51.868ZM73.3819 52V42.584H71.4679V40.78H73.3819V37.524H75.5159V40.78H77.7819V42.584H75.5159V52H73.3819ZM86.2756 50.504H86.1436C85.9236 51.0613 85.5569 51.4793 85.0436 51.758C84.5449 52.0367 83.8629 52.176 82.9976 52.176C82.0882 52.176 81.3989 52.0293 80.9296 51.736C80.4749 51.428 80.1669 50.9733 80.0056 50.372C79.8442 49.756 79.7636 48.92 79.7636 47.864V40.78H81.8976V47.028C81.8976 48.0547 81.9416 48.788 82.0296 49.228C82.1322 49.6533 82.3156 49.932 82.5796 50.064C82.8436 50.196 83.2982 50.262 83.9436 50.262C84.6182 50.262 85.1169 50.13 85.4396 49.866C85.7622 49.602 85.9676 49.228 86.0556 48.744C86.1436 48.2453 86.1876 47.5267 86.1876 46.588V40.78H88.3216V52H86.3636L86.2756 50.504ZM91.3657 40.78H93.3017L93.3897 42.804H93.5437C93.7783 41.968 94.1597 41.396 94.6877 41.088C95.2303 40.7653 95.9417 40.604 96.8217 40.604V42.738C95.9563 42.738 95.2817 42.8847 94.7977 43.178C94.3137 43.4713 93.9763 43.926 93.7857 44.542C93.595 45.1433 93.4997 45.972 93.4997 47.028V52H91.3657V40.78ZM106.92 47.094H100.452C100.452 48.1207 100.503 48.8467 100.606 49.272C100.723 49.6973 100.98 49.9907 101.376 50.152C101.786 50.3133 102.468 50.394 103.422 50.394C104.214 50.394 105.255 50.3207 106.546 50.174V51.846C106.135 51.9487 105.592 52.0293 104.918 52.088C104.243 52.1467 103.59 52.176 102.96 52.176C101.566 52.176 100.54 52 99.8798 51.648C99.2345 51.2813 98.8092 50.7093 98.6038 49.932C98.3985 49.1547 98.2958 47.9813 98.2958 46.412C98.2958 44.872 98.3912 43.7133 98.5818 42.936C98.7725 42.144 99.1832 41.5573 99.8138 41.176C100.444 40.7947 101.434 40.604 102.784 40.604C104.089 40.604 105.028 40.7947 105.6 41.176C106.186 41.5427 106.553 42.1073 106.7 42.87C106.846 43.618 106.92 44.7913 106.92 46.39V47.094ZM102.74 42.386C102.036 42.386 101.53 42.4667 101.222 42.628C100.928 42.7893 100.73 43.0827 100.628 43.508C100.525 43.9333 100.466 44.63 100.452 45.598H104.852V45.488C104.852 44.5493 104.793 43.8673 104.676 43.442C104.558 43.0167 104.353 42.738 104.06 42.606C103.781 42.4593 103.341 42.386 102.74 42.386ZM117.02 54.376C114.527 54.376 112.789 54.1707 111.806 53.76C110.838 53.364 110.23 52.616 109.98 51.516C109.731 50.4013 109.606 48.4067 109.606 45.532C109.606 42.6427 109.731 40.648 109.98 39.548C110.23 38.448 110.838 37.7 111.806 37.304C112.789 36.8933 114.527 36.688 117.02 36.688C119.514 36.688 121.244 36.886 122.212 37.282C123.195 37.678 123.811 38.426 124.06 39.526C124.31 40.626 124.434 42.628 124.434 45.532C124.434 47.072 124.354 48.1793 124.192 48.854C124.031 49.5287 123.789 49.9467 123.466 50.108C123.144 50.2693 122.616 50.35 121.882 50.35H118.912L118.802 49.118H118.67C118.436 49.6753 118.098 50.0493 117.658 50.24C117.218 50.416 116.69 50.504 116.074 50.504C115.121 50.504 114.432 50.2913 114.006 49.866C113.596 49.4407 113.39 48.7073 113.39 47.666C113.39 46.918 113.464 46.3387 113.61 45.928C113.772 45.5173 114.036 45.224 114.402 45.048C114.769 44.872 115.297 44.784 115.986 44.784C116.646 44.784 117.563 44.8133 118.736 44.872V44.322C118.736 43.6327 118.685 43.1487 118.582 42.87C118.48 42.5913 118.282 42.4153 117.988 42.342C117.695 42.254 117.189 42.21 116.47 42.21C116.06 42.21 115.59 42.232 115.062 42.276C114.534 42.3053 114.153 42.3347 113.918 42.364V40.868C115.018 40.692 116.074 40.604 117.086 40.604C118.128 40.604 118.898 40.7287 119.396 40.978C119.91 41.2127 120.247 41.5867 120.408 42.1C120.584 42.6133 120.672 43.3687 120.672 44.366V49.316H122.08C122.432 49.316 122.682 49.2573 122.828 49.14C122.99 49.008 123.107 48.6853 123.18 48.172C123.254 47.644 123.29 46.764 123.29 45.532C123.29 43.3907 123.246 41.8653 123.158 40.956C123.07 40.032 122.843 39.3353 122.476 38.866C122.124 38.3967 121.523 38.0887 120.672 37.942C120.262 37.854 119.778 37.8027 119.22 37.788C118.663 37.7587 117.922 37.744 116.998 37.744C115.488 37.744 114.38 37.788 113.676 37.876C112.723 38.008 112.041 38.3013 111.63 38.756C111.234 39.196 110.985 39.8853 110.882 40.824C110.78 41.7627 110.728 43.332 110.728 45.532C110.728 47.8787 110.794 49.536 110.926 50.504C111.058 51.4573 111.381 52.132 111.894 52.528C112.408 52.9387 113.288 53.1807 114.534 53.254C114.96 53.2833 115.788 53.298 117.02 53.298C117.651 53.298 118.311 53.2907 119 53.276C119.704 53.2613 120.262 53.2467 120.672 53.232V54.31C119.763 54.354 118.546 54.376 117.02 54.376ZM116.8 48.986C117.328 48.986 117.724 48.92 117.988 48.788C118.267 48.656 118.458 48.4287 118.56 48.106C118.678 47.7687 118.736 47.2847 118.736 46.654V46.06H116.492C116.126 46.06 115.854 46.0967 115.678 46.17C115.517 46.2287 115.4 46.3607 115.326 46.566C115.268 46.7567 115.238 47.072 115.238 47.512C115.238 47.9373 115.275 48.2527 115.348 48.458C115.422 48.6487 115.568 48.788 115.788 48.876C116.008 48.9493 116.346 48.986 116.8 48.986ZM132.716 52.176C131.983 52.176 131.352 52.066 130.824 51.846C130.311 51.6113 129.93 51.1713 129.68 50.526H129.526L129.438 52H127.502V35.654H129.636V42.078H129.768C130.032 41.5353 130.406 41.154 130.89 40.934C131.389 40.714 132.02 40.604 132.782 40.604C133.706 40.604 134.41 40.78 134.894 41.132C135.393 41.4693 135.745 42.0487 135.95 42.87C136.17 43.6913 136.28 44.8647 136.28 46.39C136.28 47.9153 136.17 49.096 135.95 49.932C135.73 50.7533 135.364 51.3327 134.85 51.67C134.352 52.0073 133.64 52.176 132.716 52.176ZM131.88 50.262C132.584 50.262 133.083 50.1813 133.376 50.02C133.684 49.8587 133.89 49.5213 133.992 49.008C134.095 48.48 134.146 47.6073 134.146 46.39C134.146 45.1727 134.095 44.3073 133.992 43.794C133.89 43.2807 133.684 42.9433 133.376 42.782C133.083 42.606 132.584 42.518 131.88 42.518C131.367 42.518 130.956 42.5987 130.648 42.76C130.355 42.9067 130.135 43.1487 129.988 43.486C129.842 43.794 129.746 44.168 129.702 44.608C129.658 45.048 129.636 45.642 129.636 46.39C129.636 47.1087 129.658 47.688 129.702 48.128C129.746 48.568 129.834 48.942 129.966 49.25C130.113 49.602 130.333 49.8587 130.626 50.02C130.934 50.1813 131.352 50.262 131.88 50.262ZM141.462 52.176C140.377 52.176 139.577 51.9267 139.064 51.428C138.565 50.9293 138.316 50.0787 138.316 48.876C138.316 48.0107 138.411 47.336 138.602 46.852C138.793 46.368 139.115 46.016 139.57 45.796C140.025 45.576 140.663 45.466 141.484 45.466C142.232 45.466 143.31 45.4953 144.718 45.554V44.96C144.718 44.1387 144.652 43.5593 144.52 43.222C144.388 42.8847 144.139 42.6647 143.772 42.562C143.405 42.4593 142.789 42.408 141.924 42.408C141.513 42.408 141 42.43 140.384 42.474C139.768 42.518 139.291 42.5693 138.954 42.628V40.912C140.054 40.7067 141.271 40.604 142.606 40.604C143.823 40.604 144.733 40.7433 145.334 41.022C145.935 41.3007 146.339 41.748 146.544 42.364C146.749 42.9653 146.852 43.8453 146.852 45.004V52H144.916L144.828 50.548H144.696C144.417 51.1933 143.992 51.626 143.42 51.846C142.863 52.066 142.21 52.176 141.462 52.176ZM142.364 50.394C142.877 50.394 143.295 50.3353 143.618 50.218C143.941 50.1007 144.19 49.8807 144.366 49.558C144.601 49.0887 144.718 48.3993 144.718 47.49V46.962H142.012C141.557 46.962 141.22 47.006 141 47.094C140.78 47.1673 140.626 47.3287 140.538 47.578C140.45 47.8127 140.406 48.1867 140.406 48.7C140.406 49.184 140.45 49.5433 140.538 49.778C140.641 50.0127 140.824 50.174 141.088 50.262C141.367 50.35 141.792 50.394 142.364 50.394ZM156.379 50.504H156.247C156.027 51.0613 155.66 51.4793 155.147 51.758C154.648 52.0367 153.966 52.176 153.101 52.176C152.192 52.176 151.502 52.0293 151.033 51.736C150.578 51.428 150.27 50.9733 150.109 50.372C149.948 49.756 149.867 48.92 149.867 47.864V40.78H152.001V47.028C152.001 48.0547 152.045 48.788 152.133 49.228C152.236 49.6533 152.419 49.932 152.683 50.064C152.947 50.196 153.402 50.262 154.047 50.262C154.722 50.262 155.22 50.13 155.543 49.866C155.866 49.602 156.071 49.228 156.159 48.744C156.247 48.2453 156.291 47.5267 156.291 46.588V40.78H158.425V52H156.467L156.379 50.504ZM169.697 47.094H163.229C163.229 48.1207 163.281 48.8467 163.383 49.272C163.501 49.6973 163.757 49.9907 164.153 50.152C164.564 50.3133 165.246 50.394 166.199 50.394C166.991 50.394 168.033 50.3207 169.323 50.174V51.846C168.913 51.9487 168.37 52.0293 167.695 52.088C167.021 52.1467 166.368 52.176 165.737 52.176C164.344 52.176 163.317 52 162.657 51.648C162.012 51.2813 161.587 50.7093 161.381 49.932C161.176 49.1547 161.073 47.9813 161.073 46.412C161.073 44.872 161.169 43.7133 161.359 42.936C161.55 42.144 161.961 41.5573 162.591 41.176C163.222 40.7947 164.212 40.604 165.561 40.604C166.867 40.604 167.805 40.7947 168.377 41.176C168.964 41.5427 169.331 42.1073 169.477 42.87C169.624 43.618 169.697 44.7913 169.697 46.39V47.094ZM165.517 42.386C164.813 42.386 164.307 42.4667 163.999 42.628C163.706 42.7893 163.508 43.0827 163.405 43.508C163.303 43.9333 163.244 44.63 163.229 45.598H167.629V45.488C167.629 44.5493 167.571 43.8673 167.453 43.442C167.336 43.0167 167.131 42.738 166.837 42.606C166.559 42.4593 166.119 42.386 165.517 42.386ZM178.786 45.752C178.786 44.7253 178.734 43.9993 178.632 43.574C178.544 43.134 178.368 42.848 178.104 42.716C177.84 42.584 177.385 42.518 176.74 42.518C176.065 42.518 175.566 42.65 175.244 42.914C174.921 43.178 174.716 43.5593 174.628 44.058C174.54 44.5567 174.496 45.268 174.496 46.192V52H172.362V40.78H174.298L174.386 42.276H174.54C174.774 41.7333 175.141 41.3227 175.64 41.044C176.138 40.7507 176.813 40.604 177.664 40.604C178.588 40.604 179.277 40.758 179.732 41.066C180.201 41.3593 180.516 41.8067 180.678 42.408C180.839 43.0093 180.92 43.8453 180.92 44.916V52H178.786V45.752ZM183.744 52V49.602H186.142V52H183.744ZM195.525 51.868C195.173 51.956 194.733 52.0293 194.205 52.088C193.692 52.1467 193.201 52.176 192.731 52.176C191.485 52.176 190.561 51.978 189.959 51.582C189.373 51.186 188.991 50.5993 188.815 49.822C188.654 49.0447 188.573 47.9007 188.573 46.39C188.573 44.9087 188.669 43.772 188.859 42.98C189.065 42.1733 189.461 41.5793 190.047 41.198C190.634 40.802 191.514 40.604 192.687 40.604C193.157 40.604 193.648 40.6333 194.161 40.692C194.675 40.7507 195.1 40.824 195.437 40.912V42.606C194.704 42.474 193.963 42.408 193.215 42.408C192.467 42.408 191.917 42.5107 191.565 42.716C191.228 42.9213 191.001 43.2953 190.883 43.838C190.781 44.366 190.729 45.2167 190.729 46.39C190.729 47.578 190.788 48.4433 190.905 48.986C191.023 49.5287 191.25 49.8953 191.587 50.086C191.939 50.2767 192.497 50.372 193.259 50.372C194.051 50.372 194.807 50.306 195.525 50.174V51.868ZM201.998 52.176C200.59 52.176 199.578 52.0147 198.962 51.692C198.361 51.3693 197.972 50.834 197.796 50.086C197.62 49.3233 197.532 48.0913 197.532 46.39C197.532 44.6887 197.62 43.4567 197.796 42.694C197.972 41.9313 198.361 41.396 198.962 41.088C199.578 40.7653 200.59 40.604 201.998 40.604C203.406 40.604 204.411 40.7653 205.012 41.088C205.628 41.396 206.024 41.9313 206.2 42.694C206.376 43.4567 206.464 44.6887 206.464 46.39C206.464 48.0913 206.376 49.3233 206.2 50.086C206.024 50.834 205.628 51.3693 205.012 51.692C204.411 52.0147 203.406 52.176 201.998 52.176ZM201.998 50.372C202.79 50.372 203.34 50.284 203.648 50.108C203.956 49.932 204.147 49.5947 204.22 49.096C204.293 48.5973 204.33 47.6953 204.33 46.39C204.33 45.07 204.293 44.168 204.22 43.684C204.147 43.1853 203.956 42.848 203.648 42.672C203.34 42.496 202.79 42.408 201.998 42.408C201.221 42.408 200.678 42.496 200.37 42.672C200.062 42.848 199.871 43.1853 199.798 43.684C199.725 44.168 199.688 45.07 199.688 46.39C199.688 47.6953 199.725 48.5973 199.798 49.096C199.871 49.5947 200.062 49.932 200.37 50.108C200.678 50.284 201.221 50.372 201.998 50.372ZM221.2 45.752C221.2 44.7253 221.156 43.9993 221.068 43.574C220.994 43.134 220.833 42.848 220.584 42.716C220.349 42.584 219.938 42.518 219.352 42.518C218.736 42.518 218.281 42.6427 217.988 42.892C217.694 43.1413 217.504 43.5153 217.416 44.014C217.328 44.5127 217.284 45.2387 217.284 46.192V52H215.15V45.752C215.15 44.7107 215.106 43.9773 215.018 43.552C214.944 43.1267 214.79 42.848 214.556 42.716C214.321 42.584 213.91 42.518 213.324 42.518C212.708 42.518 212.253 42.65 211.96 42.914C211.666 43.1633 211.476 43.5373 211.388 44.036C211.3 44.5347 211.256 45.2533 211.256 46.192V52H209.122V40.78H211.058L211.146 42.276H211.3C211.52 41.7333 211.864 41.3227 212.334 41.044C212.818 40.7507 213.463 40.604 214.27 40.604C215.12 40.604 215.758 40.736 216.184 41C216.609 41.264 216.91 41.6893 217.086 42.276H217.218C217.687 41.1613 218.699 40.604 220.254 40.604C221.104 40.604 221.75 40.758 222.19 41.066C222.644 41.3593 222.945 41.814 223.092 42.43C223.253 43.0313 223.334 43.86 223.334 44.916V52H221.2V45.752Z" fill="#343438"/>
</svg>
