<svg width="153" height="53" viewBox="0 0 153 53" fill="none" xmlns="http://www.w3.org/2000/svg">
<path d="M0.738 1.864H6.458C7.602 1.864 8.46733 2.062 9.054 2.458C9.65533 2.854 10.0513 3.39667 10.242 4.086C10.4327 4.76067 10.528 5.648 10.528 6.748C10.528 7.804 10.4327 8.67667 10.242 9.366C10.0513 10.0407 9.65533 10.5833 9.054 10.994C8.46733 11.4047 7.59467 11.61 6.436 11.61H3.004V17H0.738V1.864ZM5.688 9.674C6.46533 9.674 7.03733 9.586 7.404 9.41C7.77067 9.21933 8.00533 8.93333 8.108 8.552C8.21067 8.156 8.262 7.55467 8.262 6.748C8.262 5.94133 8.21067 5.34733 8.108 4.966C8.00533 4.57 7.77067 4.284 7.404 4.108C7.052 3.91733 6.48733 3.822 5.71 3.822H3.004V9.674H5.688ZM19.2955 10.752C19.2955 9.72533 19.2442 8.99933 19.1415 8.574C19.0535 8.134 18.8775 7.848 18.6135 7.716C18.3495 7.584 17.8948 7.518 17.2495 7.518C16.5748 7.518 16.0762 7.65 15.7535 7.914C15.4308 8.178 15.2255 8.55933 15.1375 9.058C15.0495 9.55667 15.0055 10.268 15.0055 11.192V17H12.8715V0.653999H15.0055V7.144H15.1375C15.3722 6.64533 15.7315 6.27133 16.2155 6.022C16.6995 5.758 17.3522 5.626 18.1735 5.626C19.0828 5.626 19.7722 5.78 20.2415 6.088C20.7108 6.38133 21.0262 6.82867 21.1875 7.43C21.3488 8.03133 21.4295 8.86 21.4295 9.916V17H19.2955V10.752ZM28.5216 17.176C27.1136 17.176 26.1016 17.0147 25.4856 16.692C24.8843 16.3693 24.4956 15.834 24.3196 15.086C24.1436 14.3233 24.0556 13.0913 24.0556 11.39C24.0556 9.68867 24.1436 8.45667 24.3196 7.694C24.4956 6.93133 24.8843 6.396 25.4856 6.088C26.1016 5.76533 27.1136 5.604 28.5216 5.604C29.9296 5.604 30.9343 5.76533 31.5356 6.088C32.1516 6.396 32.5476 6.93133 32.7236 7.694C32.8996 8.45667 32.9876 9.68867 32.9876 11.39C32.9876 13.0913 32.8996 14.3233 32.7236 15.086C32.5476 15.834 32.1516 16.3693 31.5356 16.692C30.9343 17.0147 29.9296 17.176 28.5216 17.176ZM28.5216 15.372C29.3136 15.372 29.8636 15.284 30.1716 15.108C30.4796 14.932 30.6703 14.5947 30.7436 14.096C30.8169 13.5973 30.8536 12.6953 30.8536 11.39C30.8536 10.07 30.8169 9.168 30.7436 8.684C30.6703 8.18533 30.4796 7.848 30.1716 7.672C29.8636 7.496 29.3136 7.408 28.5216 7.408C27.7443 7.408 27.2016 7.496 26.8936 7.672C26.5856 7.848 26.3949 8.18533 26.3216 8.684C26.2483 9.168 26.2116 10.07 26.2116 11.39C26.2116 12.6953 26.2483 13.5973 26.3216 14.096C26.3949 14.5947 26.5856 14.932 26.8936 15.108C27.2016 15.284 27.7443 15.372 28.5216 15.372ZM42.069 10.752C42.069 9.72533 42.0176 8.99933 41.915 8.574C41.827 8.134 41.651 7.848 41.387 7.716C41.123 7.584 40.6683 7.518 40.023 7.518C39.3483 7.518 38.8496 7.65 38.527 7.914C38.2043 8.178 37.999 8.55933 37.911 9.058C37.823 9.55667 37.779 10.268 37.779 11.192V17H35.645V5.78H37.581L37.669 7.276H37.823C38.0576 6.73333 38.4243 6.32267 38.923 6.044C39.4216 5.75067 40.0963 5.604 40.947 5.604C41.871 5.604 42.5603 5.758 43.015 6.066C43.4843 6.35933 43.7996 6.80667 43.961 7.408C44.1223 8.00933 44.203 8.84533 44.203 9.916V17H42.069V10.752ZM55.453 12.094H48.985C48.985 13.1207 49.0364 13.8467 49.139 14.272C49.2564 14.6973 49.513 14.9907 49.909 15.152C50.3197 15.3133 51.0017 15.394 51.955 15.394C52.747 15.394 53.7884 15.3207 55.079 15.174V16.846C54.6684 16.9487 54.1257 17.0293 53.451 17.088C52.7764 17.1467 52.1237 17.176 51.493 17.176C50.0997 17.176 49.073 17 48.413 16.648C47.7677 16.2813 47.3424 15.7093 47.137 14.932C46.9317 14.1547 46.829 12.9813 46.829 11.412C46.829 9.872 46.9244 8.71333 47.115 7.936C47.3057 7.144 47.7164 6.55733 48.347 6.176C48.9777 5.79467 49.9677 5.604 51.317 5.604C52.6224 5.604 53.561 5.79467 54.133 6.176C54.7197 6.54267 55.0864 7.10733 55.233 7.87C55.3797 8.618 55.453 9.79133 55.453 11.39V12.094ZM51.273 7.386C50.569 7.386 50.063 7.46667 49.755 7.628C49.4617 7.78933 49.2637 8.08267 49.161 8.508C49.0584 8.93333 48.9997 9.63 48.985 10.598H53.385V10.488C53.385 9.54933 53.3264 8.86733 53.209 8.442C53.0917 8.01667 52.8864 7.738 52.593 7.606C52.3144 7.45933 51.8744 7.386 51.273 7.386Z" fill="#B98E75"/>
<path d="M3.752 50.636V47.314H0.452V45.576H3.752V42.254H5.49V45.576H8.812V47.314H5.49V50.636H3.752ZM13.4698 52V39.46L10.8738 40.67V38.646L14.1298 36.864H15.7358V52H13.4698ZM25.7845 50.042H32.7805V52H23.5845V50.152C23.5845 48.8907 23.6212 47.9667 23.6945 47.38C23.7825 46.7787 23.9805 46.2873 24.2885 45.906C24.5965 45.51 25.1025 45.1433 25.8065 44.806L29.0625 43.244C29.6785 42.9507 30.0745 42.65 30.2505 42.342C30.4412 42.034 30.5365 41.5353 30.5365 40.846C30.5365 40.2007 30.4485 39.724 30.2725 39.416C30.1112 39.108 29.8252 38.9027 29.4145 38.8C29.0185 38.6973 28.4098 38.646 27.5885 38.646C26.5472 38.646 25.3005 38.734 23.8485 38.91V37.084C24.4205 36.9667 25.1245 36.8713 25.9605 36.798C26.7965 36.7247 27.5665 36.688 28.2705 36.688C29.2532 36.688 30.0598 36.776 30.6905 36.952C31.3212 37.128 31.8272 37.5093 32.2085 38.096C32.5898 38.668 32.7805 39.5187 32.7805 40.648C32.7805 41.5133 32.6998 42.21 32.5385 42.738C32.3918 43.266 32.1498 43.6913 31.8125 44.014C31.4898 44.322 31.0425 44.6153 30.4705 44.894L26.8625 46.61C26.4518 46.8007 26.1732 47.0207 26.0265 47.27C25.9385 47.446 25.8725 47.6733 25.8285 47.952C25.7992 48.2307 25.7845 48.634 25.7845 49.162V50.042ZM40.3775 52.176C38.7495 52.176 37.5909 51.9707 36.9015 51.56C36.2122 51.1493 35.7722 50.4453 35.5815 49.448C35.4055 48.4507 35.3175 46.7787 35.3175 44.432C35.3175 42.0853 35.4055 40.4133 35.5815 39.416C35.7722 38.4187 36.2122 37.7147 36.9015 37.304C37.5909 36.8933 38.7495 36.688 40.3775 36.688C42.0202 36.688 43.1789 36.8933 43.8535 37.304C44.5429 37.7147 44.9755 38.4187 45.1515 39.416C45.3422 40.3987 45.4375 42.0707 45.4375 44.432C45.4375 46.7787 45.3422 48.4507 45.1515 49.448C44.9755 50.4453 44.5429 51.1493 43.8535 51.56C43.1642 51.9707 42.0055 52.176 40.3775 52.176ZM40.3775 50.218C41.3455 50.218 41.9982 50.1227 42.3355 49.932C42.6875 49.7267 42.9149 49.2647 43.0175 48.546C43.1202 47.8127 43.1715 46.4413 43.1715 44.432C43.1715 42.4227 43.1202 41.0587 43.0175 40.34C42.9149 39.6067 42.6875 39.1447 42.3355 38.954C41.9982 38.7487 41.3455 38.646 40.3775 38.646C39.4095 38.646 38.7495 38.7487 38.3975 38.954C38.0602 39.1447 37.8402 39.6067 37.7375 40.34C37.6349 41.0587 37.5835 42.4227 37.5835 44.432C37.5835 46.4413 37.6349 47.8127 37.7375 48.546C37.8402 49.2647 38.0602 49.7267 38.3975 49.932C38.7495 50.1227 39.4095 50.218 40.3775 50.218ZM51.7323 52.176C51.1309 52.176 50.4416 52.1393 49.6643 52.066C48.9016 51.9927 48.2416 51.8973 47.6843 51.78V49.976C49.0483 50.1373 50.3169 50.218 51.4903 50.218C52.2823 50.218 52.8836 50.1667 53.2943 50.064C53.7196 49.9613 54.0349 49.7413 54.2403 49.404C54.4603 49.0667 54.5703 48.5387 54.5703 47.82C54.5703 46.8667 54.4016 46.214 54.0643 45.862C53.7269 45.4953 53.1329 45.312 52.2823 45.312H49.9063V43.376H52.2823C53.0009 43.376 53.5363 43.2147 53.8883 42.892C54.2549 42.5693 54.4383 41.946 54.4383 41.022C54.4383 40.3033 54.3356 39.7827 54.1303 39.46C53.9396 39.1227 53.6316 38.9027 53.2063 38.8C52.7956 38.6973 52.1649 38.646 51.3143 38.646C50.7863 38.646 50.1849 38.6753 49.5103 38.734C48.8356 38.778 48.2489 38.8367 47.7503 38.91V37.084C48.2929 36.9667 48.9383 36.8713 49.6863 36.798C50.4489 36.7247 51.1309 36.688 51.7323 36.688C52.9789 36.688 53.9616 36.8347 54.6803 37.128C55.4136 37.4067 55.9343 37.8393 56.2423 38.426C56.5649 38.998 56.7263 39.746 56.7263 40.67C56.7263 41.7407 56.5356 42.5547 56.1543 43.112C55.7729 43.6693 55.2009 44.0433 54.4383 44.234V44.322C55.2449 44.498 55.8463 44.8573 56.2423 45.4C56.6529 45.9427 56.8583 46.7933 56.8583 47.952C56.8583 48.8907 56.7189 49.668 56.4403 50.284C56.1616 50.8853 55.6483 51.3547 54.9003 51.692C54.1523 52.0147 53.0963 52.176 51.7323 52.176ZM59.335 46.676V44.762H64.351V46.676H59.335ZM68.7706 52V39.46L66.1746 40.67V38.646L69.4306 36.864H71.0366V52H68.7706ZM76.2943 50.042H83.2903V52H74.0943V50.152C74.0943 48.8907 74.1309 47.9667 74.2043 47.38C74.2923 46.7787 74.4903 46.2873 74.7983 45.906C75.1063 45.51 75.6123 45.1433 76.3163 44.806L79.5723 43.244C80.1883 42.9507 80.5843 42.65 80.7603 42.342C80.9509 42.034 81.0463 41.5353 81.0463 40.846C81.0463 40.2007 80.9583 39.724 80.7823 39.416C80.6209 39.108 80.3349 38.9027 79.9243 38.8C79.5283 38.6973 78.9196 38.646 78.0983 38.646C77.0569 38.646 75.8103 38.734 74.3582 38.91V37.084C74.9303 36.9667 75.6343 36.8713 76.4703 36.798C77.3063 36.7247 78.0763 36.688 78.7803 36.688C79.7629 36.688 80.5696 36.776 81.2003 36.952C81.8309 37.128 82.3369 37.5093 82.7183 38.096C83.0996 38.668 83.2903 39.5187 83.2903 40.648C83.2903 41.5133 83.2096 42.21 83.0483 42.738C82.9016 43.266 82.6596 43.6913 82.3223 44.014C81.9996 44.322 81.5523 44.6153 80.9803 44.894L77.3723 46.61C76.9616 46.8007 76.6829 47.0207 76.5363 47.27C76.4483 47.446 76.3823 47.6733 76.3383 47.952C76.3089 48.2307 76.2943 48.634 76.2943 49.162V50.042ZM89.5233 52.176C88.922 52.176 88.2326 52.1393 87.4553 52.066C86.6926 51.9927 86.0326 51.8973 85.4753 51.78V49.976C86.8393 50.1373 88.108 50.218 89.2813 50.218C90.0733 50.218 90.6746 50.1667 91.0853 50.064C91.5106 49.9613 91.826 49.7413 92.0313 49.404C92.2513 49.0667 92.3613 48.5387 92.3613 47.82C92.3613 46.8667 92.1926 46.214 91.8553 45.862C91.518 45.4953 90.924 45.312 90.0733 45.312H87.6973V43.376H90.0733C90.792 43.376 91.3273 43.2147 91.6793 42.892C92.046 42.5693 92.2293 41.946 92.2293 41.022C92.2293 40.3033 92.1266 39.7827 91.9213 39.46C91.7306 39.1227 91.4226 38.9027 90.9973 38.8C90.5866 38.6973 89.956 38.646 89.1053 38.646C88.5773 38.646 87.976 38.6753 87.3013 38.734C86.6266 38.778 86.04 38.8367 85.5413 38.91V37.084C86.084 36.9667 86.7293 36.8713 87.4773 36.798C88.24 36.7247 88.922 36.688 89.5233 36.688C90.77 36.688 91.7526 36.8347 92.4713 37.128C93.2046 37.4067 93.7253 37.8393 94.0333 38.426C94.356 38.998 94.5173 39.746 94.5173 40.67C94.5173 41.7407 94.3266 42.5547 93.9453 43.112C93.564 43.6693 92.992 44.0433 92.2293 44.234V44.322C93.036 44.498 93.6373 44.8573 94.0333 45.4C94.444 45.9427 94.6493 46.7933 94.6493 47.952C94.6493 48.8907 94.51 49.668 94.2313 50.284C93.9526 50.8853 93.4393 51.3547 92.6913 51.692C91.9433 52.0147 90.8873 52.176 89.5233 52.176ZM97.126 46.676V44.762H102.142V46.676H97.126ZM109.708 52.176C108.08 52.176 106.921 51.9707 106.232 51.56C105.542 51.1493 105.102 50.4453 104.912 49.448C104.736 48.4507 104.648 46.7787 104.648 44.432C104.648 42.0853 104.736 40.4133 104.912 39.416C105.102 38.4187 105.542 37.7147 106.232 37.304C106.921 36.8933 108.08 36.688 109.708 36.688C111.35 36.688 112.509 36.8933 113.184 37.304C113.873 37.7147 114.306 38.4187 114.482 39.416C114.672 40.3987 114.768 42.0707 114.768 44.432C114.768 46.7787 114.672 48.4507 114.482 49.448C114.306 50.4453 113.873 51.1493 113.184 51.56C112.494 51.9707 111.336 52.176 109.708 52.176ZM109.708 50.218C110.676 50.218 111.328 50.1227 111.666 49.932C112.018 49.7267 112.245 49.2647 112.348 48.546C112.45 47.8127 112.502 46.4413 112.502 44.432C112.502 42.4227 112.45 41.0587 112.348 40.34C112.245 39.6067 112.018 39.1447 111.666 38.954C111.328 38.7487 110.676 38.646 109.708 38.646C108.74 38.646 108.08 38.7487 107.728 38.954C107.39 39.1447 107.17 39.6067 107.068 40.34C106.965 41.0587 106.914 42.4227 106.914 44.432C106.914 46.4413 106.965 47.8127 107.068 48.546C107.17 49.2647 107.39 49.7267 107.728 49.932C108.08 50.1227 108.74 50.218 109.708 50.218ZM122.624 52.176C121.642 52.176 120.85 52.1173 120.248 52C119.662 51.8827 119.17 51.6627 118.774 51.34C118.378 51.0027 118.07 50.5113 117.85 49.866C117.674 49.382 117.55 48.7147 117.476 47.864C117.403 47.0133 117.366 45.9133 117.366 44.564C117.366 43.3027 117.403 42.254 117.476 41.418C117.55 40.582 117.682 39.8927 117.872 39.35C118.21 38.3527 118.752 37.6633 119.5 37.282C120.263 36.886 121.385 36.688 122.866 36.688C123.394 36.688 124.025 36.732 124.758 36.82C125.506 36.8933 126.188 36.9887 126.804 37.106V38.932C126.232 38.844 125.616 38.778 124.956 38.734C124.296 38.6753 123.746 38.646 123.306 38.646C122.177 38.646 121.363 38.778 120.864 39.042C120.38 39.2913 120.058 39.768 119.896 40.472C119.735 41.176 119.654 42.32 119.654 43.904H119.786C120.329 43.1853 121.451 42.826 123.152 42.826C124.252 42.826 125.103 42.936 125.704 43.156C126.32 43.3613 126.775 43.772 127.068 44.388C127.362 45.004 127.508 45.9207 127.508 47.138C127.508 48.4873 127.376 49.514 127.112 50.218C126.863 50.922 126.394 51.428 125.704 51.736C125.015 52.0293 123.988 52.176 122.624 52.176ZM122.492 50.218C123.314 50.218 123.908 50.1667 124.274 50.064C124.656 49.9467 124.92 49.7047 125.066 49.338C125.213 48.9713 125.286 48.3773 125.286 47.556C125.286 46.676 125.213 46.0453 125.066 45.664C124.934 45.2827 124.685 45.0407 124.318 44.938C123.952 44.8207 123.343 44.762 122.492 44.762C121.656 44.762 121.04 44.8353 120.644 44.982C120.263 45.114 120.014 45.334 119.896 45.642C119.779 45.95 119.72 46.4193 119.72 47.05C119.72 48.018 119.801 48.722 119.962 49.162C120.124 49.602 120.388 49.888 120.754 50.02C121.136 50.152 121.715 50.218 122.492 50.218ZM135.038 52.176C133.41 52.176 132.251 51.9707 131.562 51.56C130.872 51.1493 130.432 50.4453 130.242 49.448C130.066 48.4507 129.978 46.7787 129.978 44.432C129.978 42.0853 130.066 40.4133 130.242 39.416C130.432 38.4187 130.872 37.7147 131.562 37.304C132.251 36.8933 133.41 36.688 135.038 36.688C136.68 36.688 137.839 36.8933 138.514 37.304C139.203 37.7147 139.636 38.4187 139.812 39.416C140.002 40.3987 140.098 42.0707 140.098 44.432C140.098 46.7787 140.002 48.4507 139.812 49.448C139.636 50.4453 139.203 51.1493 138.514 51.56C137.824 51.9707 136.666 52.176 135.038 52.176ZM135.038 50.218C136.006 50.218 136.658 50.1227 136.996 49.932C137.348 49.7267 137.575 49.2647 137.678 48.546C137.78 47.8127 137.832 46.4413 137.832 44.432C137.832 42.4227 137.78 41.0587 137.678 40.34C137.575 39.6067 137.348 39.1447 136.996 38.954C136.658 38.7487 136.006 38.646 135.038 38.646C134.07 38.646 133.41 38.7487 133.058 38.954C132.72 39.1447 132.5 39.6067 132.398 40.34C132.295 41.0587 132.244 42.4227 132.244 44.432C132.244 46.4413 132.295 47.8127 132.398 48.546C132.5 49.2647 132.72 49.7267 133.058 49.932C133.41 50.1227 134.07 50.218 135.038 50.218ZM147.954 52.176C146.972 52.176 146.18 52.1173 145.578 52C144.992 51.8827 144.5 51.6627 144.104 51.34C143.708 51.0027 143.4 50.5113 143.18 49.866C143.004 49.382 142.88 48.7147 142.806 47.864C142.733 47.0133 142.696 45.9133 142.696 44.564C142.696 43.3027 142.733 42.254 142.806 41.418C142.88 40.582 143.012 39.8927 143.202 39.35C143.54 38.3527 144.082 37.6633 144.83 37.282C145.593 36.886 146.715 36.688 148.196 36.688C148.724 36.688 149.355 36.732 150.088 36.82C150.836 36.8933 151.518 36.9887 152.134 37.106V38.932C151.562 38.844 150.946 38.778 150.286 38.734C149.626 38.6753 149.076 38.646 148.636 38.646C147.507 38.646 146.693 38.778 146.194 39.042C145.71 39.2913 145.388 39.768 145.226 40.472C145.065 41.176 144.984 42.32 144.984 43.904H145.116C145.659 43.1853 146.781 42.826 148.482 42.826C149.582 42.826 150.433 42.936 151.034 43.156C151.65 43.3613 152.105 43.772 152.398 44.388C152.692 45.004 152.838 45.9207 152.838 47.138C152.838 48.4873 152.706 49.514 152.442 50.218C152.193 50.922 151.724 51.428 151.034 51.736C150.345 52.0293 149.318 52.176 147.954 52.176ZM147.822 50.218C148.644 50.218 149.238 50.1667 149.604 50.064C149.986 49.9467 150.25 49.7047 150.396 49.338C150.543 48.9713 150.616 48.3773 150.616 47.556C150.616 46.676 150.543 46.0453 150.396 45.664C150.264 45.2827 150.015 45.0407 149.648 44.938C149.282 44.8207 148.673 44.762 147.822 44.762C146.986 44.762 146.37 44.8353 145.974 44.982C145.593 45.114 145.344 45.334 145.226 45.642C145.109 45.95 145.05 46.4193 145.05 47.05C145.05 48.018 145.131 48.722 145.292 49.162C145.454 49.602 145.718 49.888 146.084 50.02C146.466 50.152 147.045 50.218 147.822 50.218Z" fill="#343438"/>
</svg>
