<svg width="50" height="43" viewBox="0 0 50 43" fill="#B98E75" xmlns="http://www.w3.org/2000/svg">
<path fill="#FFF" d="M5.38 40.8L4.87068 41.6606L4.87724 41.6645L4.88386 41.6682L5.38 40.8ZM1.6 34.98L0.61729 35.1651L0.618847 35.1734L0.620543 35.1817L1.6 34.98ZM1.6 7.8L0.619907 7.60114L0.617788 7.61222L1.6 7.8ZM5.38 1.98L5.87614 2.84824L5.88276 2.84446L5.88932 2.84057L5.38 1.98ZM25 1.98L24.4829 2.83591L24.4933 2.8422L24.5039 2.84824L25 1.98ZM28.72 7.74L27.7378 7.92777L27.7391 7.93472L27.7405 7.94165L28.72 7.74ZM28.72 34.98L27.7405 34.7783L27.7391 34.7853L27.7378 34.7922L28.72 34.98ZM25 40.8L25.5039 41.6638L25.5093 41.6606L25 40.8ZM18.82 34.2L18.2535 33.376L18.2409 33.3846L18.2286 33.3936L18.82 34.2ZM20.02 31.08L19.0247 30.9829L20.02 31.08ZM18.82 8.52L18.2286 9.3264L18.2409 9.33541L18.2535 9.34404L18.82 8.52ZM11.56 8.52L10.9935 7.69596L10.9809 7.70459L10.9686 7.71359L11.56 8.52ZM10.36 11.7L9.36701 11.5818L9.36576 11.5923L9.36473 11.6029L10.36 11.7ZM10.36 31.08L9.36451 31.1748L9.36576 31.188L9.36736 31.2011L10.36 31.08ZM11.56 34.2L10.9686 35.0064L10.9809 35.0154L10.9935 35.024L11.56 34.2ZM15.22 41.48C10.6481 41.48 7.59527 40.9141 5.87614 39.9318L4.88386 41.6682C7.08473 42.9259 10.5919 43.48 15.22 43.48V41.48ZM5.88932 39.9394C4.22402 38.9538 3.0961 37.2878 2.57946 34.7783L0.620543 35.1817C1.2239 38.1123 2.61598 40.3262 4.87068 41.6606L5.88932 39.9394ZM2.58271 34.7948C2.0814 32.1341 1.82 27.6752 1.82 21.36H-0.18C-0.18 27.6848 0.0785992 32.3059 0.61729 35.1651L2.58271 34.7948ZM1.82 21.36C1.82 15.0438 2.08153 10.6067 2.58221 7.98777L0.617788 7.61222C0.0784717 10.4333 -0.18 15.0362 -0.18 21.36H1.82ZM2.58003 7.99884C3.09805 5.44577 4.22627 3.79102 5.87614 2.84824L4.88386 1.11175C2.61373 2.40897 1.22195 4.63422 0.61997 7.60115L2.58003 7.99884ZM5.88932 2.84057C7.60405 1.82573 10.6505 1.24 15.22 1.24V-0.760002C10.5895 -0.760002 7.07595 -0.18574 4.87068 1.11942L5.88932 2.84057ZM15.22 1.24C19.7926 1.24 22.8126 1.8268 24.4829 2.83591L25.5171 1.12408C23.3474 -0.186802 19.8474 -0.760002 15.22 -0.760002V1.24ZM24.5039 2.84824C26.1536 3.79095 27.2591 5.42378 27.7378 7.92777L29.7022 7.55222C29.1409 4.61622 27.7664 2.40905 25.4961 1.11175L24.5039 2.84824ZM27.7405 7.94165C28.2782 10.5532 28.56 15.0038 28.56 21.36H30.56C30.56 14.9962 30.2818 10.3668 29.6995 7.53835L27.7405 7.94165ZM28.56 21.36C28.56 27.7162 28.2782 32.1668 27.7405 34.7783L29.6995 35.1817C30.2818 32.3532 30.56 27.7238 30.56 21.36H28.56ZM27.7378 34.7922C27.259 37.2967 26.1513 38.9566 24.4907 39.9394L25.5093 41.6606C27.7687 40.3234 29.141 38.1033 29.7022 35.1678L27.7378 34.7922ZM24.4961 39.9362C22.8215 40.9131 19.795 41.48 15.22 41.48V43.48C19.845 43.48 23.3385 42.9269 25.5039 41.6638L24.4961 39.9362ZM15.22 35.86C16.1549 35.86 16.9701 35.8033 17.6503 35.6786C18.3152 35.5567 18.9356 35.3553 19.4114 35.0064L18.2286 33.3936C18.1044 33.4847 17.8248 33.6133 17.2897 33.7114C16.7699 33.8067 16.0851 33.86 15.22 33.86V35.86ZM19.3865 35.024C19.9309 34.6498 20.291 34.079 20.5333 33.449C20.7771 32.8151 20.9303 32.0483 21.0153 31.1771L19.0247 30.9829C18.9497 31.7517 18.8229 32.3249 18.6667 32.731C18.509 33.141 18.3491 33.3102 18.2535 33.376L19.3865 35.024ZM21.0153 31.1771C21.1808 29.4808 21.26 26.1926 21.26 21.36H19.26C19.26 26.2074 19.1792 29.3992 19.0247 30.9829L21.0153 31.1771ZM21.26 21.36C21.26 16.5274 21.1808 13.2392 21.0153 11.5429L19.0247 11.7371C19.1792 13.3208 19.26 16.5126 19.26 21.36H21.26ZM21.0153 11.5429C20.9303 10.6717 20.7771 9.90487 20.5333 9.27102C20.291 8.64096 19.9309 8.07019 19.3865 7.69596L18.2535 9.34404C18.3491 9.40981 18.509 9.57904 18.6667 9.98898C18.8229 10.3951 18.9497 10.9683 19.0247 11.7371L21.0153 11.5429ZM19.4114 7.71359C18.9356 7.36472 18.3152 7.16328 17.6503 7.04139C16.9701 6.91668 16.1549 6.86 15.22 6.86V8.86C16.0851 8.86 16.7699 8.91332 17.2897 9.00861C17.8248 9.10672 18.1044 9.23528 18.2286 9.3264L19.4114 7.71359ZM15.22 6.86C14.2846 6.86 13.4658 6.91676 12.7775 7.04087C12.1018 7.16273 11.4794 7.36185 10.9935 7.69596L12.1265 9.34404C12.2806 9.23814 12.5882 9.10727 13.1325 9.00912C13.6642 8.91324 14.3554 8.86 15.22 8.86V6.86ZM10.9686 7.71359C10.4507 8.09344 10.1095 8.66884 9.8744 9.29194C9.63555 9.92489 9.47237 10.6968 9.36701 11.5818L11.353 11.8182C11.4476 11.0232 11.5845 10.4251 11.7456 9.99805C11.9105 9.56116 12.0693 9.38655 12.1514 9.3264L10.9686 7.71359ZM9.36473 11.6029C9.19925 13.299 9.12 16.5671 9.12 21.36H11.12C11.12 16.5529 11.2008 13.381 11.3553 11.7971L9.36473 11.6029ZM9.12 21.36C9.12 26.1539 9.19931 29.4403 9.36451 31.1748L11.3555 30.9852C11.2007 29.3597 11.12 26.1661 11.12 21.36H9.12ZM9.36736 31.2011C9.473 32.0674 9.63675 32.8252 9.87665 33.449C10.1134 34.0646 10.4552 34.6299 10.9686 35.0064L12.1514 33.3936C12.0648 33.3301 11.9066 33.1554 11.7433 32.731C11.5833 32.3148 11.447 31.7326 11.3526 30.9589L9.36736 31.2011ZM10.9935 35.024C11.4794 35.3581 12.1018 35.5573 12.7775 35.6791C13.4658 35.8032 14.2846 35.86 15.22 35.86V33.86C14.3554 33.86 13.6642 33.8068 13.1325 33.7109C12.5882 33.6127 12.2806 33.4819 12.1265 33.376L10.9935 35.024ZM40.3731 42H39.3731V43H40.3731V42ZM40.3731 10.68H41.3731V9.179L39.9879 9.75716L40.3731 10.68ZM33.4731 13.56H32.4731V15.061L33.8583 14.4828L33.4731 13.56ZM33.4731 5.7L33.0149 4.81116L32.4731 5.09046V5.7H33.4731ZM43.1331 0.719999V-0.280001H42.8905L42.6749 -0.16884L43.1331 0.719999ZM49.7331 0.719999H50.7331V-0.280001H49.7331V0.719999ZM49.7331 42V43H50.7331V42H49.7331ZM41.3731 42V10.68H39.3731V42H41.3731ZM39.9879 9.75716L33.0879 12.6372L33.8583 14.4828L40.7583 11.6028L39.9879 9.75716ZM34.4731 13.56V5.7H32.4731V13.56H34.4731ZM33.9313 6.58884L43.5913 1.60884L42.6749 -0.16884L33.0149 4.81116L33.9313 6.58884ZM43.1331 1.72H49.7331V-0.280001H43.1331V1.72ZM48.7331 0.719999V42H50.7331V0.719999H48.7331ZM49.7331 41H40.3731V43H49.7331V41Z"/>
</svg>
