<svg width="62" height="43" viewBox="0 0 62 43" fill="none" xmlns="http://www.w3.org/2000/svg">
<path d="M5.38 40.8L4.87068 41.6606L4.87724 41.6645L4.88386 41.6682L5.38 40.8ZM1.6 34.98L0.61729 35.1651L0.618847 35.1734L0.620543 35.1817L1.6 34.98ZM1.6 7.8L0.619907 7.60114L0.617788 7.61222L1.6 7.8ZM5.38 1.98L5.87614 2.84824L5.88276 2.84446L5.88932 2.84057L5.38 1.98ZM25 1.98L24.4829 2.83591L24.4933 2.8422L24.5039 2.84824L25 1.98ZM28.72 7.74L27.7378 7.92777L27.7391 7.93472L27.7405 7.94165L28.72 7.74ZM28.72 34.98L27.7405 34.7783L27.7391 34.7853L27.7378 34.7922L28.72 34.98ZM25 40.8L25.5039 41.6638L25.5093 41.6606L25 40.8ZM18.82 34.2L18.2535 33.376L18.2409 33.3846L18.2286 33.3936L18.82 34.2ZM20.02 31.08L19.0247 30.9829L20.02 31.08ZM18.82 8.52L18.2286 9.3264L18.2409 9.33541L18.2535 9.34404L18.82 8.52ZM11.56 8.52L10.9935 7.69596L10.9809 7.70459L10.9686 7.71359L11.56 8.52ZM10.36 11.7L9.36701 11.5818L9.36576 11.5923L9.36473 11.6029L10.36 11.7ZM10.36 31.08L9.36451 31.1748L9.36576 31.188L9.36736 31.2011L10.36 31.08ZM11.56 34.2L10.9686 35.0064L10.9809 35.0154L10.9935 35.024L11.56 34.2ZM15.22 41.48C10.6481 41.48 7.59527 40.9141 5.87614 39.9318L4.88386 41.6682C7.08473 42.9259 10.5919 43.48 15.22 43.48V41.48ZM5.88932 39.9394C4.22402 38.9538 3.0961 37.2878 2.57946 34.7783L0.620543 35.1817C1.2239 38.1123 2.61598 40.3262 4.87068 41.6606L5.88932 39.9394ZM2.58271 34.7948C2.0814 32.1341 1.82 27.6752 1.82 21.36H-0.18C-0.18 27.6848 0.0785992 32.3059 0.61729 35.1651L2.58271 34.7948ZM1.82 21.36C1.82 15.0438 2.08153 10.6067 2.58221 7.98777L0.617788 7.61222C0.0784717 10.4333 -0.18 15.0362 -0.18 21.36H1.82ZM2.58003 7.99884C3.09805 5.44577 4.22627 3.79102 5.87614 2.84824L4.88386 1.11175C2.61373 2.40897 1.22195 4.63422 0.61997 7.60115L2.58003 7.99884ZM5.88932 2.84057C7.60405 1.82573 10.6505 1.24 15.22 1.24V-0.760002C10.5895 -0.760002 7.07595 -0.18574 4.87068 1.11942L5.88932 2.84057ZM15.22 1.24C19.7926 1.24 22.8126 1.8268 24.4829 2.83591L25.5171 1.12408C23.3474 -0.186802 19.8474 -0.760002 15.22 -0.760002V1.24ZM24.5039 2.84824C26.1536 3.79095 27.2591 5.42378 27.7378 7.92777L29.7022 7.55222C29.1409 4.61622 27.7664 2.40905 25.4961 1.11175L24.5039 2.84824ZM27.7405 7.94165C28.2782 10.5532 28.56 15.0038 28.56 21.36H30.56C30.56 14.9962 30.2818 10.3668 29.6995 7.53835L27.7405 7.94165ZM28.56 21.36C28.56 27.7162 28.2782 32.1668 27.7405 34.7783L29.6995 35.1817C30.2818 32.3532 30.56 27.7238 30.56 21.36H28.56ZM27.7378 34.7922C27.259 37.2967 26.1513 38.9566 24.4907 39.9394L25.5093 41.6606C27.7687 40.3234 29.141 38.1033 29.7022 35.1678L27.7378 34.7922ZM24.4961 39.9362C22.8215 40.9131 19.795 41.48 15.22 41.48V43.48C19.845 43.48 23.3385 42.9269 25.5039 41.6638L24.4961 39.9362ZM15.22 35.86C16.1549 35.86 16.9701 35.8033 17.6503 35.6786C18.3152 35.5567 18.9356 35.3553 19.4114 35.0064L18.2286 33.3936C18.1044 33.4847 17.8248 33.6133 17.2897 33.7114C16.7699 33.8067 16.0851 33.86 15.22 33.86V35.86ZM19.3865 35.024C19.9309 34.6498 20.291 34.079 20.5333 33.449C20.7771 32.8151 20.9303 32.0483 21.0153 31.1771L19.0247 30.9829C18.9497 31.7517 18.8229 32.3249 18.6667 32.731C18.509 33.141 18.3491 33.3102 18.2535 33.376L19.3865 35.024ZM21.0153 31.1771C21.1808 29.4808 21.26 26.1926 21.26 21.36H19.26C19.26 26.2074 19.1792 29.3992 19.0247 30.9829L21.0153 31.1771ZM21.26 21.36C21.26 16.5274 21.1808 13.2392 21.0153 11.5429L19.0247 11.7371C19.1792 13.3208 19.26 16.5126 19.26 21.36H21.26ZM21.0153 11.5429C20.9303 10.6717 20.7771 9.90487 20.5333 9.27102C20.291 8.64096 19.9309 8.07019 19.3865 7.69596L18.2535 9.34404C18.3491 9.40981 18.509 9.57904 18.6667 9.98898C18.8229 10.3951 18.9497 10.9683 19.0247 11.7371L21.0153 11.5429ZM19.4114 7.71359C18.9356 7.36472 18.3152 7.16328 17.6503 7.04139C16.9701 6.91668 16.1549 6.86 15.22 6.86V8.86C16.0851 8.86 16.7699 8.91332 17.2897 9.00861C17.8248 9.10672 18.1044 9.23528 18.2286 9.3264L19.4114 7.71359ZM15.22 6.86C14.2846 6.86 13.4658 6.91676 12.7775 7.04087C12.1018 7.16273 11.4794 7.36185 10.9935 7.69596L12.1265 9.34404C12.2806 9.23814 12.5882 9.10727 13.1325 9.00912C13.6642 8.91324 14.3554 8.86 15.22 8.86V6.86ZM10.9686 7.71359C10.4507 8.09344 10.1095 8.66884 9.8744 9.29194C9.63555 9.92489 9.47237 10.6968 9.36701 11.5818L11.353 11.8182C11.4476 11.0232 11.5845 10.4251 11.7456 9.99805C11.9105 9.56116 12.0693 9.38655 12.1514 9.3264L10.9686 7.71359ZM9.36473 11.6029C9.19925 13.299 9.12 16.5671 9.12 21.36H11.12C11.12 16.5529 11.2008 13.381 11.3553 11.7971L9.36473 11.6029ZM9.12 21.36C9.12 26.1539 9.19931 29.4403 9.36451 31.1748L11.3555 30.9852C11.2007 29.3597 11.12 26.1661 11.12 21.36H9.12ZM9.36736 31.2011C9.473 32.0674 9.63675 32.8252 9.87665 33.449C10.1134 34.0646 10.4552 34.6299 10.9686 35.0064L12.1514 33.3936C12.0648 33.3301 11.9066 33.1554 11.7433 32.731C11.5833 32.3148 11.447 31.7326 11.3526 30.9589L9.36736 31.2011ZM10.9935 35.024C11.4794 35.3581 12.1018 35.5573 12.7775 35.6791C13.4658 35.8032 14.2846 35.86 15.22 35.86V33.86C14.3554 33.86 13.6642 33.8068 13.1325 33.7109C12.5882 33.6127 12.2806 33.4819 12.1265 33.376L10.9935 35.024ZM44.2731 34.32H43.2731V35.32H44.2731V34.32ZM61.7331 34.32H62.7331V33.32H61.7331V34.32ZM61.7331 42V43H62.7331V42H61.7331ZM35.2131 42H34.2131V43H35.2131V42ZM35.5131 28.44L34.5223 28.3049L34.521 28.3147L34.5198 28.3245L35.5131 28.44ZM37.0131 24.12L36.1994 23.5388L36.1924 23.5485L36.1856 23.5585L37.0131 24.12ZM40.9731 21.18L41.3884 22.0897L41.3989 22.0848L40.9731 21.18ZM47.0931 18.3L46.6702 17.3938L46.6673 17.3952L47.0931 18.3ZM48.8931 17.46L48.4741 16.552L48.4702 16.5538L48.8931 17.46ZM51.1131 16.2L50.5131 15.4L50.4962 15.4127L50.4799 15.426L51.1131 16.2ZM52.0731 14.82L51.1244 14.5038L51.1176 14.5244L51.1116 14.5453L52.0731 14.82ZM50.0331 8.16L49.8015 9.1328L49.8237 9.13808L49.846 9.14234L50.0331 8.16ZM35.8731 8.58H34.8731V9.69959L35.9856 9.57365L35.8731 8.58ZM35.8731 1.44L35.686 0.457657L34.8731 0.612494V1.44H35.8731ZM41.9331 0.599997L41.8336 -0.395042L41.832 -0.394873L41.9331 0.599997ZM55.4931 1.02L55.2212 1.98232L55.2265 1.98381L55.4931 1.02ZM59.9931 4.32L59.1611 4.8747L59.1687 4.88619L59.1767 4.89746L59.9931 4.32ZM60.2331 19.62L59.3686 19.1174L59.3649 19.1239L60.2331 19.62ZM55.6731 23.52L55.2686 22.6054L55.2635 22.6077L55.6731 23.52ZM46.8531 27.48L47.247 28.3991L47.2549 28.3958L47.2627 28.3923L46.8531 27.48ZM45.5331 28.14L46.0631 28.988L45.5331 28.14ZM44.8131 28.92L45.6706 29.4345L45.6904 29.4016L45.7076 29.3672L44.8131 28.92ZM44.3331 30.48L43.3408 30.356L43.3373 30.3846L43.3353 30.4135L44.3331 30.48ZM44.2731 35.32H61.7331V33.32H44.2731V35.32ZM60.7331 34.32V42H62.7331V34.32H60.7331ZM61.7331 41H35.2131V43H61.7331V41ZM36.2131 42V36.48H34.2131V42H36.2131ZM36.2131 36.48C36.2131 32.8462 36.3135 30.2147 36.5064 28.5555L34.5198 28.3245C34.3127 30.1053 34.2131 32.8338 34.2131 36.48H36.2131ZM36.504 28.5751C36.7294 26.9221 37.1899 25.6404 37.8406 24.6815L36.1856 23.5585C35.3163 24.8396 34.7769 26.4379 34.5223 28.3049L36.504 28.5751ZM37.8269 24.7012C38.4882 23.7753 39.6379 22.8888 41.3884 22.0897L40.5578 20.2703C38.6283 21.1512 37.138 22.2247 36.1994 23.5388L37.8269 24.7012ZM41.3989 22.0848L47.5189 19.2048L46.6673 17.3952L40.5473 20.2752L41.3989 22.0848ZM47.516 19.2062L49.316 18.3662L48.4702 16.5538L46.6702 17.3938L47.516 19.2062ZM49.3122 18.368C50.3679 17.8807 51.2039 17.4178 51.7464 16.974L50.4799 15.426C50.1424 15.7022 49.4984 16.0793 48.4741 16.552L49.3122 18.368ZM51.7131 17C52.3621 16.5133 52.8128 15.8713 53.0346 15.0947L51.1116 14.5453C51.0135 14.8887 50.8242 15.1667 50.5131 15.4L51.7131 17ZM53.0218 15.1362C53.2715 14.3871 53.3731 13.4228 53.3731 12.3H51.3731C51.3731 13.3372 51.2747 14.0529 51.1244 14.5038L53.0218 15.1362ZM53.3731 12.3C53.3731 10.8672 53.1985 9.63189 52.6906 8.7855L50.9756 9.8145C51.1878 10.1681 51.3731 10.9328 51.3731 12.3H53.3731ZM52.6906 8.7855C52.1521 7.88795 51.2728 7.37814 50.2202 7.17766L49.846 9.14234C50.4735 9.26186 50.7942 9.51205 50.9756 9.8145L52.6906 8.7855ZM50.2647 7.18719C49.3026 6.95811 47.842 6.86 45.9531 6.86V8.86C47.8243 8.86 49.0836 8.96188 49.8015 9.1328L50.2647 7.18719ZM45.9531 6.86C43.4182 6.86 40.0155 7.10466 35.7606 7.58635L35.9856 9.57365C40.2107 9.09534 43.528 8.86 45.9531 8.86V6.86ZM36.8731 8.58V1.44H34.8731V8.58H36.8731ZM36.0602 2.42233C37.7033 2.10937 39.693 1.83297 42.0343 1.59487L41.832 -0.394873C39.4533 -0.152969 37.403 0.130623 35.686 0.457657L36.0602 2.42233ZM42.0326 1.59503C44.406 1.35769 46.5723 1.24 48.5331 1.24V-0.760002C46.494 -0.760002 44.2602 -0.637699 41.8336 -0.395041L42.0326 1.59503ZM48.5331 1.24C51.2796 1.24 53.5003 1.49597 55.2212 1.98231L55.7651 0.0576897C53.806 -0.495975 51.3866 -0.760002 48.5331 -0.760002V1.24ZM55.2265 1.98381C56.8663 2.43736 58.1692 3.38688 59.1611 4.8747L60.8252 3.7653C59.5771 1.89312 57.88 0.642637 55.7597 0.0561867L55.2265 1.98381ZM59.1767 4.89746C60.1631 6.29201 60.7331 8.50745 60.7331 11.7H62.7331C62.7331 8.33255 62.1432 5.62799 60.8095 3.74253L59.1767 4.89746ZM60.7331 11.7C60.7331 15.2033 60.2345 17.628 59.3686 19.1174L61.0976 20.1226C62.2317 18.172 62.7331 15.3167 62.7331 11.7H60.7331ZM59.3649 19.1239C58.5285 20.5875 57.1887 21.7562 55.2686 22.6055L56.0776 24.4345C58.3175 23.4438 60.0177 22.0125 61.1014 20.1161L59.3649 19.1239ZM55.2635 22.6077L46.4435 26.5677L47.2627 28.3923L56.0827 24.4323L55.2635 22.6077ZM46.4592 26.5609C45.8769 26.8104 45.3847 27.0535 45.0031 27.292L46.0631 28.988C46.3215 28.8265 46.7093 28.6296 47.247 28.3991L46.4592 26.5609ZM45.0031 27.292C44.536 27.5839 44.1656 27.979 43.9187 28.4728L45.7076 29.3672C45.7807 29.221 45.8902 29.0961 46.0631 28.988L45.0031 27.292ZM43.9556 28.4055C43.6222 28.9613 43.4319 29.6273 43.3408 30.356L45.3254 30.604C45.3943 30.0527 45.5241 29.6787 45.6706 29.4345L43.9556 28.4055ZM43.3353 30.4135C43.293 31.0483 43.2731 31.9959 43.2731 33.24H45.2731C45.2731 32.0041 45.2932 31.1117 45.3309 30.5465L43.3353 30.4135ZM43.2731 33.24V34.32H45.2731V33.24H43.2731Z" fill="#B98E75"/>
</svg>
