<svg width="16" height="14" viewBox="0 0 16 14" fill="none" xmlns="http://www.w3.org/2000/svg">
<path d="M15.3334 0.999868C14.695 1.45019 13.9882 1.79461 13.2401 2.01987C12.8386 1.55821 12.305 1.231 11.7114 1.08249C11.1179 0.933975 10.4931 0.971332 9.92147 1.1895C9.34986 1.40768 8.85904 1.79614 8.5154 2.30235C8.17176 2.80856 7.99188 3.40809 8.00008 4.01987V4.68653C6.8285 4.71691 5.6676 4.45708 4.62075 3.93017C3.57391 3.40325 2.67363 2.62562 2.00008 1.66653C2.00008 1.66653 -0.666585 7.66653 5.33341 10.3332C3.96043 11.2652 2.32485 11.7325 0.666748 11.6665C6.66675 14.9999 14.0001 11.6665 14.0001 3.99987C13.9995 3.81417 13.9816 3.62893 13.9467 3.44653C14.6271 2.77553 15.1073 1.92834 15.3334 0.999868Z" stroke="#B98E75" stroke-width="1.5" stroke-linecap="round" stroke-linejoin="round"/>
</svg>
