<svg width="496" height="222" viewBox="0 0 496 222" fill="none" xmlns="http://www.w3.org/2000/svg">
<path opacity="0.3" d="M676.726 185.123C649.71 164.467 580.333 121.264 518.949 113.705C442.219 104.255 359.856 146.503 308.83 124.091C257.805 101.679 257.649 31.4935 191.83 28.0065C126.011 24.5194 100.836 89.9596 42.3374 91.4451" stroke="#B98E75" stroke-width="4" stroke-dasharray="8 8"/>
<path d="M42.5504 77.9892L42.6885 106.578C42.6954 107.997 41.2636 108.971 39.9461 108.445L5.97927 94.8637C4.33598 94.2067 4.29301 91.8962 5.91073 91.1785L39.7394 76.1707C41.058 75.5857 42.5435 76.5467 42.5504 77.9892Z" fill="#B98E75"/>
<g opacity="0.4">
<circle cx="175.827" cy="135.827" r="11.3704" transform="rotate(180 175.827 135.827)" stroke="#B98E75"/>
<circle cx="175.827" cy="135.828" r="7.41363" transform="rotate(180 175.827 135.828)" stroke="#B98E75"/>
<circle cx="175.827" cy="135.827" r="15.3273" transform="rotate(180 175.827 135.827)" stroke="#B98E75"/>
</g>
</svg>
