<svg width="814" height="261" viewBox="0 0 814 261" fill="none" xmlns="http://www.w3.org/2000/svg">
<path opacity="0.3" d="M16.4503 42.7259C48.2892 67.0704 130.053 117.987 202.397 126.896C292.826 138.032 389.895 88.2416 450.031 114.655C510.166 141.068 510.35 223.785 587.921 227.895C665.492 232.004 695.161 154.88 764.104 153.13" stroke="#B98E75" stroke-width="4" stroke-dasharray="8 8"/>
<path d="M763.855 169.534L763.687 134.764C763.68 133.345 765.112 132.371 766.429 132.898L807.739 149.415C809.382 150.072 809.425 152.382 807.808 153.1L766.666 171.352C765.347 171.937 763.862 170.976 763.855 169.534Z" fill="#B98E75"/>
<g opacity="0.4">
<circle cx="600.767" cy="156.977" r="13.4898" stroke="#B98E75"/>
<circle cx="600.767" cy="156.976" r="8.82655" stroke="#B98E75"/>
<circle cx="600.767" cy="156.977" r="18.1531" stroke="#B98E75"/>
</g>
<circle opacity="0.8" cx="11.9131" cy="36.2034" r="11.5432" fill="#B98E75"/>
</svg>
