<svg width="780" height="285" viewBox="0 0 780 285" fill="none" xmlns="http://www.w3.org/2000/svg">
<path opacity="0.3" d="M-92.4228 46.3851C-57.62 72.9958 31.7551 128.652 110.833 138.39C209.681 150.563 315.786 96.1379 381.519 125.01C447.253 153.882 447.454 244.299 532.246 248.791C617.037 253.283 649.469 168.98 724.829 167.066" stroke="#B98E75" stroke-width="4" stroke-dasharray="8 8"/>
<path d="M724.559 185.283L724.373 146.716C724.366 145.297 725.798 144.322 727.115 144.849L772.937 163.17C774.581 163.827 774.624 166.137 773.006 166.855L727.37 187.101C726.051 187.686 724.566 186.725 724.559 185.283Z" fill="#B98E75"/>
<g opacity="0.4">
<circle cx="546.288" cy="171.272" r="14.7921" stroke="#B98E75"/>
<circle cx="546.287" cy="171.271" r="9.69475" stroke="#B98E75"/>
<circle cx="546.287" cy="171.272" r="19.8895" stroke="#B98E75"/>
</g>
</svg>
