<svg width="639" height="443" viewBox="0 0 639 443" fill="none" xmlns="http://www.w3.org/2000/svg">
<path d="M0 1H639" stroke="#B98E75" stroke-width="2"/>
<path d="M0 221H639" stroke="#B98E75" stroke-width="2"/>
<path d="M0 442H639" stroke="#B98E75" stroke-width="2"/>
<rect x="313" y="11" width="2" height="204" fill="#B98E75"/>
<rect x="637" y="11" width="2" height="204" fill="#B98E75"/>
<rect x="313" y="231" width="2" height="204" fill="#B98E75"/>
<rect x="637" y="231" width="2" height="204" fill="#B98E75"/>
<rect y="58" width="88.2759" height="3.00522" fill="#B98E75"/>
<rect x="31.0967" y="63.0087" width="88.2759" height="3.00522" fill="#B98E75"/>
<path d="M35.1394 100.921H40.8594C42.0034 100.921 42.8687 101.119 43.4554 101.515C44.0567 101.911 44.4527 102.454 44.6434 103.143C44.834 103.818 44.9294 104.705 44.9294 105.805C44.9294 106.861 44.834 107.734 44.6434 108.423C44.4527 109.098 44.0567 109.641 43.4554 110.051C42.8687 110.462 41.996 110.667 40.8374 110.667H37.4054V116.057H35.1394V100.921ZM40.0894 108.731C40.8667 108.731 41.4387 108.643 41.8054 108.467C42.172 108.277 42.4067 107.991 42.5094 107.609C42.612 107.213 42.6634 106.612 42.6634 105.805C42.6634 104.999 42.612 104.405 42.5094 104.023C42.4067 103.627 42.172 103.341 41.8054 103.165C41.4534 102.975 40.8887 102.879 40.1114 102.879H37.4054V108.731H40.0894ZM53.6969 109.809C53.6969 108.783 53.6455 108.057 53.5429 107.631C53.4549 107.191 53.2789 106.905 53.0149 106.773C52.7509 106.641 52.2962 106.575 51.6509 106.575C50.9762 106.575 50.4775 106.707 50.1549 106.971C49.8322 107.235 49.6269 107.617 49.5389 108.115C49.4509 108.614 49.4069 109.325 49.4069 110.249V116.057H47.2729V99.7114H49.4069V106.201H49.5389C49.7735 105.703 50.1329 105.329 50.6169 105.079C51.1009 104.815 51.7535 104.683 52.5749 104.683C53.4842 104.683 54.1735 104.837 54.6429 105.145C55.1122 105.439 55.4275 105.886 55.5889 106.487C55.7502 107.089 55.8309 107.917 55.8309 108.973V116.057H53.6969V109.809ZM62.923 116.233C61.515 116.233 60.503 116.072 59.887 115.749C59.2856 115.427 58.897 114.891 58.721 114.143C58.545 113.381 58.457 112.149 58.457 110.447C58.457 108.746 58.545 107.514 58.721 106.751C58.897 105.989 59.2856 105.453 59.887 105.145C60.503 104.823 61.515 104.661 62.923 104.661C64.331 104.661 65.3356 104.823 65.937 105.145C66.553 105.453 66.949 105.989 67.125 106.751C67.301 107.514 67.389 108.746 67.389 110.447C67.389 112.149 67.301 113.381 67.125 114.143C66.949 114.891 66.553 115.427 65.937 115.749C65.3356 116.072 64.331 116.233 62.923 116.233ZM62.923 114.429C63.715 114.429 64.265 114.341 64.573 114.165C64.881 113.989 65.0716 113.652 65.145 113.153C65.2183 112.655 65.255 111.753 65.255 110.447C65.255 109.127 65.2183 108.225 65.145 107.741C65.0716 107.243 64.881 106.905 64.573 106.729C64.265 106.553 63.715 106.465 62.923 106.465C62.1456 106.465 61.603 106.553 61.295 106.729C60.987 106.905 60.7963 107.243 60.723 107.741C60.6496 108.225 60.613 109.127 60.613 110.447C60.613 111.753 60.6496 112.655 60.723 113.153C60.7963 113.652 60.987 113.989 61.295 114.165C61.603 114.341 62.1456 114.429 62.923 114.429ZM76.4703 109.809C76.4703 108.783 76.419 108.057 76.3163 107.631C76.2283 107.191 76.0523 106.905 75.7883 106.773C75.5243 106.641 75.0697 106.575 74.4243 106.575C73.7497 106.575 73.251 106.707 72.9283 106.971C72.6057 107.235 72.4003 107.617 72.3123 108.115C72.2243 108.614 72.1803 109.325 72.1803 110.249V116.057H70.0463V104.837H71.9823L72.0703 106.333H72.2243C72.459 105.791 72.8257 105.38 73.3243 105.101C73.823 104.808 74.4977 104.661 75.3483 104.661C76.2723 104.661 76.9617 104.815 77.4163 105.123C77.8857 105.417 78.201 105.864 78.3623 106.465C78.5237 107.067 78.6043 107.903 78.6043 108.973V116.057H76.4703V109.809ZM89.8544 111.151H83.3864C83.3864 112.178 83.4377 112.904 83.5404 113.329C83.6577 113.755 83.9144 114.048 84.3104 114.209C84.7211 114.371 85.4031 114.451 86.3564 114.451C87.1484 114.451 88.1897 114.378 89.4804 114.231V115.903C89.0697 116.006 88.5271 116.087 87.8524 116.145C87.1777 116.204 86.5251 116.233 85.8944 116.233C84.5011 116.233 83.4744 116.057 82.8144 115.705C82.1691 115.339 81.7437 114.767 81.5384 113.989C81.3331 113.212 81.2304 112.039 81.2304 110.469C81.2304 108.929 81.3257 107.771 81.5164 106.993C81.7071 106.201 82.1177 105.615 82.7484 105.233C83.3791 104.852 84.3691 104.661 85.7184 104.661C87.0237 104.661 87.9624 104.852 88.5344 105.233C89.1211 105.6 89.4877 106.165 89.6344 106.927C89.7811 107.675 89.8544 108.849 89.8544 110.447V111.151ZM85.6744 106.443C84.9704 106.443 84.4644 106.524 84.1564 106.685C83.8631 106.847 83.6651 107.14 83.5624 107.565C83.4597 107.991 83.4011 108.687 83.3864 109.655H87.7864V109.545C87.7864 108.607 87.7277 107.925 87.6104 107.499C87.4931 107.074 87.2877 106.795 86.9944 106.663C86.7157 106.517 86.2757 106.443 85.6744 106.443Z" fill="#B98E75"/>
<path d="M38.1534 149.693V146.371H34.8534V144.633H38.1534V141.311H39.8914V144.633H43.2134V146.371H39.8914V149.693H38.1534ZM47.8712 151.057V138.517L45.2752 139.727V137.703L48.5312 135.921H50.1372V151.057H47.8712ZM60.1859 149.099H67.1819V151.057H57.9859V149.209C57.9859 147.948 58.0225 147.024 58.0959 146.437C58.1839 145.836 58.3819 145.345 58.6899 144.963C58.9979 144.567 59.5039 144.201 60.2079 143.863L63.4639 142.301C64.0799 142.008 64.4759 141.707 64.6519 141.399C64.8425 141.091 64.9379 140.593 64.9379 139.903C64.9379 139.258 64.8499 138.781 64.6739 138.473C64.5125 138.165 64.2265 137.96 63.8159 137.857C63.4199 137.755 62.8112 137.703 61.9899 137.703C60.9485 137.703 59.7019 137.791 58.2499 137.967V136.141C58.8219 136.024 59.5259 135.929 60.3619 135.855C61.1979 135.782 61.9679 135.745 62.6719 135.745C63.6545 135.745 64.4612 135.833 65.0919 136.009C65.7225 136.185 66.2285 136.567 66.6099 137.153C66.9912 137.725 67.1819 138.576 67.1819 139.705C67.1819 140.571 67.1012 141.267 66.9399 141.795C66.7932 142.323 66.5512 142.749 66.2139 143.071C65.8912 143.379 65.4439 143.673 64.8719 143.951L61.2639 145.667C60.8532 145.858 60.5745 146.078 60.4279 146.327C60.3399 146.503 60.2739 146.731 60.2299 147.009C60.2005 147.288 60.1859 147.691 60.1859 148.219V149.099ZM74.7789 151.233C73.1509 151.233 71.9922 151.028 71.3029 150.617C70.6136 150.207 70.1736 149.503 69.9829 148.505C69.8069 147.508 69.7189 145.836 69.7189 143.489C69.7189 141.143 69.8069 139.471 69.9829 138.473C70.1736 137.476 70.6136 136.772 71.3029 136.361C71.9922 135.951 73.1509 135.745 74.7789 135.745C76.4216 135.745 77.5802 135.951 78.2549 136.361C78.9442 136.772 79.3769 137.476 79.5529 138.473C79.7436 139.456 79.8389 141.128 79.8389 143.489C79.8389 145.836 79.7436 147.508 79.5529 148.505C79.3769 149.503 78.9442 150.207 78.2549 150.617C77.5656 151.028 76.4069 151.233 74.7789 151.233ZM74.7789 149.275C75.7469 149.275 76.3996 149.18 76.7369 148.989C77.0889 148.784 77.3162 148.322 77.4189 147.603C77.5216 146.87 77.5729 145.499 77.5729 143.489C77.5729 141.48 77.5216 140.116 77.4189 139.397C77.3162 138.664 77.0889 138.202 76.7369 138.011C76.3996 137.806 75.7469 137.703 74.7789 137.703C73.8109 137.703 73.1509 137.806 72.7989 138.011C72.4616 138.202 72.2416 138.664 72.1389 139.397C72.0362 140.116 71.9849 141.48 71.9849 143.489C71.9849 145.499 72.0362 146.87 72.1389 147.603C72.2416 148.322 72.4616 148.784 72.7989 148.989C73.1509 149.18 73.8109 149.275 74.7789 149.275ZM86.1336 151.233C85.5323 151.233 84.843 151.197 84.0656 151.123C83.303 151.05 82.643 150.955 82.0856 150.837V149.033C83.4496 149.195 84.7183 149.275 85.8916 149.275C86.6836 149.275 87.285 149.224 87.6956 149.121C88.121 149.019 88.4363 148.799 88.6416 148.461C88.8616 148.124 88.9716 147.596 88.9716 146.877C88.9716 145.924 88.803 145.271 88.4656 144.919C88.1283 144.553 87.5343 144.369 86.6836 144.369H84.3076V142.433H86.6836C87.4023 142.433 87.9376 142.272 88.2896 141.949C88.6563 141.627 88.8396 141.003 88.8396 140.079C88.8396 139.361 88.737 138.84 88.5316 138.517C88.341 138.18 88.033 137.96 87.6076 137.857C87.197 137.755 86.5663 137.703 85.7156 137.703C85.1876 137.703 84.5863 137.733 83.9116 137.791C83.237 137.835 82.6503 137.894 82.1516 137.967V136.141C82.6943 136.024 83.3396 135.929 84.0876 135.855C84.8503 135.782 85.5323 135.745 86.1336 135.745C87.3803 135.745 88.363 135.892 89.0816 136.185C89.815 136.464 90.3356 136.897 90.6436 137.483C90.9663 138.055 91.1276 138.803 91.1276 139.727C91.1276 140.798 90.937 141.612 90.5556 142.169C90.1743 142.727 89.6023 143.101 88.8396 143.291V143.379C89.6463 143.555 90.2476 143.915 90.6436 144.457C91.0543 145 91.2596 145.851 91.2596 147.009C91.2596 147.948 91.1203 148.725 90.8416 149.341C90.563 149.943 90.0496 150.412 89.3016 150.749C88.5536 151.072 87.4976 151.233 86.1336 151.233ZM93.7364 145.733V143.819H98.7524V145.733H93.7364ZM103.172 151.057V138.517L100.576 139.727V137.703L103.832 135.921H105.438V151.057H103.172ZM110.696 149.099H117.692V151.057H108.496V149.209C108.496 147.948 108.532 147.024 108.606 146.437C108.694 145.836 108.892 145.345 109.2 144.963C109.508 144.567 110.014 144.201 110.718 143.863L113.974 142.301C114.59 142.008 114.986 141.707 115.162 141.399C115.352 141.091 115.448 140.593 115.448 139.903C115.448 139.258 115.36 138.781 115.184 138.473C115.022 138.165 114.736 137.96 114.326 137.857C113.93 137.755 113.321 137.703 112.5 137.703C111.458 137.703 110.212 137.791 108.76 137.967V136.141C109.332 136.024 110.036 135.929 110.872 135.855C111.708 135.782 112.478 135.745 113.182 135.745C114.164 135.745 114.971 135.833 115.602 136.009C116.232 136.185 116.738 136.567 117.12 137.153C117.501 137.725 117.692 138.576 117.692 139.705C117.692 140.571 117.611 141.267 117.45 141.795C117.303 142.323 117.061 142.749 116.724 143.071C116.401 143.379 115.954 143.673 115.382 143.951L111.774 145.667C111.363 145.858 111.084 146.078 110.938 146.327C110.85 146.503 110.784 146.731 110.74 147.009C110.71 147.288 110.696 147.691 110.696 148.219V149.099ZM123.925 151.233C123.323 151.233 122.634 151.197 121.857 151.123C121.094 151.05 120.434 150.955 119.877 150.837V149.033C121.241 149.195 122.509 149.275 123.683 149.275C124.475 149.275 125.076 149.224 125.487 149.121C125.912 149.019 126.227 148.799 126.433 148.461C126.653 148.124 126.763 147.596 126.763 146.877C126.763 145.924 126.594 145.271 126.257 144.919C125.919 144.553 125.325 144.369 124.475 144.369H122.099V142.433H124.475C125.193 142.433 125.729 142.272 126.081 141.949C126.447 141.627 126.631 141.003 126.631 140.079C126.631 139.361 126.528 138.84 126.323 138.517C126.132 138.18 125.824 137.96 125.399 137.857C124.988 137.755 124.357 137.703 123.507 137.703C122.979 137.703 122.377 137.733 121.703 137.791C121.028 137.835 120.441 137.894 119.943 137.967V136.141C120.485 136.024 121.131 135.929 121.879 135.855C122.641 135.782 123.323 135.745 123.925 135.745C125.171 135.745 126.154 135.892 126.873 136.185C127.606 136.464 128.127 136.897 128.435 137.483C128.757 138.055 128.919 138.803 128.919 139.727C128.919 140.798 128.728 141.612 128.347 142.169C127.965 142.727 127.393 143.101 126.631 143.291V143.379C127.437 143.555 128.039 143.915 128.435 144.457C128.845 145 129.051 145.851 129.051 147.009C129.051 147.948 128.911 148.725 128.633 149.341C128.354 149.943 127.841 150.412 127.093 150.749C126.345 151.072 125.289 151.233 123.925 151.233ZM131.527 145.733V143.819H136.543V145.733H131.527ZM144.109 151.233C142.481 151.233 141.322 151.028 140.633 150.617C139.944 150.207 139.504 149.503 139.313 148.505C139.137 147.508 139.049 145.836 139.049 143.489C139.049 141.143 139.137 139.471 139.313 138.473C139.504 137.476 139.944 136.772 140.633 136.361C141.322 135.951 142.481 135.745 144.109 135.745C145.752 135.745 146.91 135.951 147.585 136.361C148.274 136.772 148.707 137.476 148.883 138.473C149.074 139.456 149.169 141.128 149.169 143.489C149.169 145.836 149.074 147.508 148.883 148.505C148.707 149.503 148.274 150.207 147.585 150.617C146.896 151.028 145.737 151.233 144.109 151.233ZM144.109 149.275C145.077 149.275 145.73 149.18 146.067 148.989C146.419 148.784 146.646 148.322 146.749 147.603C146.852 146.87 146.903 145.499 146.903 143.489C146.903 141.48 146.852 140.116 146.749 139.397C146.646 138.664 146.419 138.202 146.067 138.011C145.73 137.806 145.077 137.703 144.109 137.703C143.141 137.703 142.481 137.806 142.129 138.011C141.792 138.202 141.572 138.664 141.469 139.397C141.366 140.116 141.315 141.48 141.315 143.489C141.315 145.499 141.366 146.87 141.469 147.603C141.572 148.322 141.792 148.784 142.129 148.989C142.481 149.18 143.141 149.275 144.109 149.275ZM157.026 151.233C156.043 151.233 155.251 151.175 154.65 151.057C154.063 150.94 153.572 150.72 153.176 150.397C152.78 150.06 152.472 149.569 152.252 148.923C152.076 148.439 151.951 147.772 151.878 146.921C151.804 146.071 151.768 144.971 151.768 143.621C151.768 142.36 151.804 141.311 151.878 140.475C151.951 139.639 152.083 138.95 152.274 138.407C152.611 137.41 153.154 136.721 153.902 136.339C154.664 135.943 155.786 135.745 157.268 135.745C157.796 135.745 158.426 135.789 159.16 135.877C159.908 135.951 160.59 136.046 161.206 136.163V137.989C160.634 137.901 160.018 137.835 159.358 137.791C158.698 137.733 158.148 137.703 157.708 137.703C156.578 137.703 155.764 137.835 155.266 138.099C154.782 138.349 154.459 138.825 154.298 139.529C154.136 140.233 154.056 141.377 154.056 142.961H154.188C154.73 142.243 155.852 141.883 157.554 141.883C158.654 141.883 159.504 141.993 160.106 142.213C160.722 142.419 161.176 142.829 161.47 143.445C161.763 144.061 161.91 144.978 161.91 146.195C161.91 147.545 161.778 148.571 161.514 149.275C161.264 149.979 160.795 150.485 160.106 150.793C159.416 151.087 158.39 151.233 157.026 151.233ZM156.894 149.275C157.715 149.275 158.309 149.224 158.676 149.121C159.057 149.004 159.321 148.762 159.468 148.395C159.614 148.029 159.688 147.435 159.688 146.613C159.688 145.733 159.614 145.103 159.468 144.721C159.336 144.34 159.086 144.098 158.72 143.995C158.353 143.878 157.744 143.819 156.894 143.819C156.058 143.819 155.442 143.893 155.046 144.039C154.664 144.171 154.415 144.391 154.298 144.699C154.18 145.007 154.122 145.477 154.122 146.107C154.122 147.075 154.202 147.779 154.364 148.219C154.525 148.659 154.789 148.945 155.156 149.077C155.537 149.209 156.116 149.275 156.894 149.275ZM169.439 151.233C167.811 151.233 166.652 151.028 165.963 150.617C165.274 150.207 164.834 149.503 164.643 148.505C164.467 147.508 164.379 145.836 164.379 143.489C164.379 141.143 164.467 139.471 164.643 138.473C164.834 137.476 165.274 136.772 165.963 136.361C166.652 135.951 167.811 135.745 169.439 135.745C171.082 135.745 172.24 135.951 172.915 136.361C173.604 136.772 174.037 137.476 174.213 138.473C174.404 139.456 174.499 141.128 174.499 143.489C174.499 145.836 174.404 147.508 174.213 148.505C174.037 149.503 173.604 150.207 172.915 150.617C172.226 151.028 171.067 151.233 169.439 151.233ZM169.439 149.275C170.407 149.275 171.06 149.18 171.397 148.989C171.749 148.784 171.976 148.322 172.079 147.603C172.182 146.87 172.233 145.499 172.233 143.489C172.233 141.48 172.182 140.116 172.079 139.397C171.976 138.664 171.749 138.202 171.397 138.011C171.06 137.806 170.407 137.703 169.439 137.703C168.471 137.703 167.811 137.806 167.459 138.011C167.122 138.202 166.902 138.664 166.799 139.397C166.696 140.116 166.645 141.48 166.645 143.489C166.645 145.499 166.696 146.87 166.799 147.603C166.902 148.322 167.122 148.784 167.459 148.989C167.811 149.18 168.471 149.275 169.439 149.275ZM182.356 151.233C181.373 151.233 180.581 151.175 179.98 151.057C179.393 150.94 178.902 150.72 178.506 150.397C178.11 150.06 177.802 149.569 177.582 148.923C177.406 148.439 177.281 147.772 177.208 146.921C177.134 146.071 177.098 144.971 177.098 143.621C177.098 142.36 177.134 141.311 177.208 140.475C177.281 139.639 177.413 138.95 177.604 138.407C177.941 137.41 178.484 136.721 179.232 136.339C179.994 135.943 181.116 135.745 182.598 135.745C183.126 135.745 183.756 135.789 184.49 135.877C185.238 135.951 185.92 136.046 186.536 136.163V137.989C185.964 137.901 185.348 137.835 184.688 137.791C184.028 137.733 183.478 137.703 183.038 137.703C181.908 137.703 181.094 137.835 180.596 138.099C180.112 138.349 179.789 138.825 179.628 139.529C179.466 140.233 179.386 141.377 179.386 142.961H179.518C180.06 142.243 181.182 141.883 182.884 141.883C183.984 141.883 184.834 141.993 185.436 142.213C186.052 142.419 186.506 142.829 186.8 143.445C187.093 144.061 187.24 144.978 187.24 146.195C187.24 147.545 187.108 148.571 186.844 149.275C186.594 149.979 186.125 150.485 185.436 150.793C184.746 151.087 183.72 151.233 182.356 151.233ZM182.224 149.275C183.045 149.275 183.639 149.224 184.006 149.121C184.387 149.004 184.651 148.762 184.798 148.395C184.944 148.029 185.018 147.435 185.018 146.613C185.018 145.733 184.944 145.103 184.798 144.721C184.666 144.34 184.416 144.098 184.05 143.995C183.683 143.878 183.074 143.819 182.224 143.819C181.388 143.819 180.772 143.893 180.376 144.039C179.994 144.171 179.745 144.391 179.628 144.699C179.51 145.007 179.452 145.477 179.452 146.107C179.452 147.075 179.532 147.779 179.694 148.219C179.855 148.659 180.119 148.945 180.486 149.077C180.867 149.209 181.446 149.275 182.224 149.275Z" fill="#343438"/>
<path d="M21.9999 112.024V115.024C22.0011 115.303 21.944 115.579 21.8324 115.834C21.7209 116.089 21.5572 116.318 21.352 116.506C21.1468 116.695 20.9045 116.838 20.6407 116.927C20.3769 117.016 20.0973 117.05 19.8199 117.024C16.7428 116.69 13.7869 115.639 11.1899 113.954C8.77376 112.419 6.72527 110.371 5.18993 107.954C3.49991 105.346 2.44818 102.375 2.11993 99.2845C2.09494 99.0079 2.12781 98.7292 2.21643 98.4661C2.30506 98.203 2.4475 97.9612 2.6347 97.7561C2.82189 97.551 3.04974 97.3872 3.30372 97.275C3.55771 97.1628 3.83227 97.1047 4.10993 97.1045H7.10993C7.59524 97.0997 8.06572 97.2715 8.43369 97.588C8.80166 97.9045 9.04201 98.3439 9.10993 98.8245C9.23656 99.7845 9.47138 100.727 9.80993 101.634C9.94448 101.992 9.9736 102.381 9.89384 102.755C9.81408 103.129 9.6288 103.473 9.35993 103.744L8.08993 105.014C9.51349 107.518 11.5864 109.591 14.0899 111.014L15.3599 109.744C15.6318 109.476 15.9751 109.29 16.3491 109.211C16.723 109.131 17.112 109.16 17.4699 109.294C18.3772 109.633 19.3199 109.868 20.2799 109.994C20.7657 110.063 21.2093 110.308 21.5265 110.682C21.8436 111.056 22.0121 111.534 21.9999 112.024Z" stroke="#252531" stroke-width="2" stroke-linecap="round" stroke-linejoin="round"/>
<rect x="347" y="58" width="88.2759" height="3.00522" fill="#B98E75"/>
<rect x="378.097" y="63.0087" width="88.2759" height="3.00522" fill="#B98E75"/>
<path d="M381.738 116.057V100.921H390.45V102.879H384.004V107.433H389.57V109.391H384.004V114.099H390.45V116.057H381.738ZM405.09 109.809C405.09 108.783 405.046 108.057 404.958 107.631C404.885 107.191 404.723 106.905 404.474 106.773C404.239 106.641 403.829 106.575 403.242 106.575C402.626 106.575 402.171 106.7 401.878 106.949C401.585 107.199 401.394 107.573 401.306 108.071C401.218 108.57 401.174 109.296 401.174 110.249V116.057H399.04V109.809C399.04 108.768 398.996 108.035 398.908 107.609C398.835 107.184 398.681 106.905 398.446 106.773C398.211 106.641 397.801 106.575 397.214 106.575C396.598 106.575 396.143 106.707 395.85 106.971C395.557 107.221 395.366 107.595 395.278 108.093C395.19 108.592 395.146 109.311 395.146 110.249V116.057H393.012V104.837H394.948L395.036 106.333H395.19C395.41 105.791 395.755 105.38 396.224 105.101C396.708 104.808 397.353 104.661 398.16 104.661C399.011 104.661 399.649 104.793 400.074 105.057C400.499 105.321 400.8 105.747 400.976 106.333H401.108C401.577 105.219 402.589 104.661 404.144 104.661C404.995 104.661 405.64 104.815 406.08 105.123C406.535 105.417 406.835 105.871 406.982 106.487C407.143 107.089 407.224 107.917 407.224 108.973V116.057H405.09V109.809ZM412.773 116.233C411.687 116.233 410.888 115.984 410.375 115.485C409.876 114.987 409.627 114.136 409.627 112.933C409.627 112.068 409.722 111.393 409.913 110.909C410.103 110.425 410.426 110.073 410.881 109.853C411.335 109.633 411.973 109.523 412.795 109.523C413.543 109.523 414.621 109.553 416.029 109.611V109.017C416.029 108.196 415.963 107.617 415.831 107.279C415.699 106.942 415.449 106.722 415.083 106.619C414.716 106.517 414.1 106.465 413.235 106.465C412.824 106.465 412.311 106.487 411.695 106.531C411.079 106.575 410.602 106.627 410.265 106.685V104.969C411.365 104.764 412.582 104.661 413.917 104.661C415.134 104.661 416.043 104.801 416.645 105.079C417.246 105.358 417.649 105.805 417.855 106.421C418.06 107.023 418.163 107.903 418.163 109.061V116.057H416.227L416.139 114.605H416.007C415.728 115.251 415.303 115.683 414.731 115.903C414.173 116.123 413.521 116.233 412.773 116.233ZM413.675 114.451C414.188 114.451 414.606 114.393 414.929 114.275C415.251 114.158 415.501 113.938 415.677 113.615C415.911 113.146 416.029 112.457 416.029 111.547V111.019H413.323C412.868 111.019 412.531 111.063 412.311 111.151C412.091 111.225 411.937 111.386 411.849 111.635C411.761 111.87 411.717 112.244 411.717 112.757C411.717 113.241 411.761 113.601 411.849 113.835C411.951 114.07 412.135 114.231 412.399 114.319C412.677 114.407 413.103 114.451 413.675 114.451ZM421.156 101.889V99.7114H423.378V101.889H421.156ZM421.2 116.057V104.837H423.334V116.057H421.2ZM426.377 116.057V99.7114H428.511V116.057H426.377Z" fill="#B98E75"/>
<path d="M384.048 151.233C382.963 151.233 382.163 150.984 381.65 150.485C381.151 149.987 380.902 149.136 380.902 147.933C380.902 147.068 380.997 146.393 381.188 145.909C381.379 145.425 381.701 145.073 382.156 144.853C382.611 144.633 383.249 144.523 384.07 144.523C384.818 144.523 385.896 144.553 387.304 144.611V144.017C387.304 143.196 387.238 142.617 387.106 142.279C386.974 141.942 386.725 141.722 386.358 141.619C385.991 141.517 385.375 141.465 384.51 141.465C384.099 141.465 383.586 141.487 382.97 141.531C382.354 141.575 381.877 141.627 381.54 141.685V139.969C382.64 139.764 383.857 139.661 385.192 139.661C386.409 139.661 387.319 139.801 387.92 140.079C388.521 140.358 388.925 140.805 389.13 141.421C389.335 142.023 389.438 142.903 389.438 144.061V151.057H387.502L387.414 149.605H387.282C387.003 150.251 386.578 150.683 386.006 150.903C385.449 151.123 384.796 151.233 384.048 151.233ZM384.95 149.451C385.463 149.451 385.881 149.393 386.204 149.275C386.527 149.158 386.776 148.938 386.952 148.615C387.187 148.146 387.304 147.457 387.304 146.547V146.019H384.598C384.143 146.019 383.806 146.063 383.586 146.151C383.366 146.225 383.212 146.386 383.124 146.635C383.036 146.87 382.992 147.244 382.992 147.757C382.992 148.241 383.036 148.601 383.124 148.835C383.227 149.07 383.41 149.231 383.674 149.319C383.953 149.407 384.378 149.451 384.95 149.451ZM392.475 139.837H394.411L394.499 141.861H394.653C394.888 141.025 395.269 140.453 395.797 140.145C396.34 139.823 397.051 139.661 397.931 139.661V141.795C397.066 141.795 396.391 141.942 395.907 142.235C395.423 142.529 395.086 142.983 394.895 143.599C394.704 144.201 394.609 145.029 394.609 146.085V151.057H392.475V139.837ZM406.357 150.925C406.005 151.013 405.565 151.087 405.037 151.145C404.524 151.204 404.033 151.233 403.563 151.233C402.317 151.233 401.393 151.035 400.791 150.639C400.205 150.243 399.823 149.657 399.647 148.879C399.486 148.102 399.405 146.958 399.405 145.447C399.405 143.966 399.501 142.829 399.691 142.037C399.897 141.231 400.293 140.637 400.879 140.255C401.466 139.859 402.346 139.661 403.519 139.661C403.989 139.661 404.48 139.691 404.993 139.749C405.507 139.808 405.932 139.881 406.269 139.969V141.663C405.536 141.531 404.795 141.465 404.047 141.465C403.299 141.465 402.749 141.568 402.397 141.773C402.06 141.979 401.833 142.353 401.715 142.895C401.613 143.423 401.561 144.274 401.561 145.447C401.561 146.635 401.62 147.501 401.737 148.043C401.855 148.586 402.082 148.953 402.419 149.143C402.771 149.334 403.329 149.429 404.091 149.429C404.883 149.429 405.639 149.363 406.357 149.231V150.925ZM415.184 144.809C415.184 143.783 415.133 143.057 415.03 142.631C414.942 142.191 414.766 141.905 414.502 141.773C414.238 141.641 413.784 141.575 413.138 141.575C412.464 141.575 411.965 141.707 411.642 141.971C411.32 142.235 411.114 142.617 411.026 143.115C410.938 143.614 410.894 144.325 410.894 145.249V151.057H408.76V134.711H410.894V141.201H411.026C411.261 140.703 411.62 140.329 412.104 140.079C412.588 139.815 413.241 139.683 414.062 139.683C414.972 139.683 415.661 139.837 416.13 140.145C416.6 140.439 416.915 140.886 417.076 141.487C417.238 142.089 417.318 142.917 417.318 143.973V151.057H415.184V144.809ZM420.296 136.889V134.711H422.518V136.889H420.296ZM420.34 151.057V139.837H422.474V151.057H420.34ZM426.376 151.057V141.641H424.462V139.837H426.376V136.581H428.51V139.837H430.776V141.641H428.51V151.057H426.376ZM440.9 146.151H434.432C434.432 147.178 434.484 147.904 434.586 148.329C434.704 148.755 434.96 149.048 435.356 149.209C435.767 149.371 436.449 149.451 437.402 149.451C438.194 149.451 439.236 149.378 440.526 149.231V150.903C440.116 151.006 439.573 151.087 438.898 151.145C438.224 151.204 437.571 151.233 436.94 151.233C435.547 151.233 434.52 151.057 433.86 150.705C433.215 150.339 432.79 149.767 432.584 148.989C432.379 148.212 432.276 147.039 432.276 145.469C432.276 143.929 432.372 142.771 432.562 141.993C432.753 141.201 433.164 140.615 433.794 140.233C434.425 139.852 435.415 139.661 436.764 139.661C438.07 139.661 439.008 139.852 439.58 140.233C440.167 140.6 440.534 141.165 440.68 141.927C440.827 142.675 440.9 143.849 440.9 145.447V146.151ZM436.72 141.443C436.016 141.443 435.51 141.524 435.202 141.685C434.909 141.847 434.711 142.14 434.608 142.565C434.506 142.991 434.447 143.687 434.432 144.655H438.832V144.545C438.832 143.607 438.774 142.925 438.656 142.499C438.539 142.074 438.334 141.795 438.04 141.663C437.762 141.517 437.322 141.443 436.72 141.443ZM450.121 150.925C449.769 151.013 449.329 151.087 448.801 151.145C448.288 151.204 447.796 151.233 447.327 151.233C446.08 151.233 445.156 151.035 444.555 150.639C443.968 150.243 443.587 149.657 443.411 148.879C443.25 148.102 443.169 146.958 443.169 145.447C443.169 143.966 443.264 142.829 443.455 142.037C443.66 141.231 444.056 140.637 444.643 140.255C445.23 139.859 446.11 139.661 447.283 139.661C447.752 139.661 448.244 139.691 448.757 139.749C449.27 139.808 449.696 139.881 450.033 139.969V141.663C449.3 141.531 448.559 141.465 447.811 141.465C447.063 141.465 446.513 141.568 446.161 141.773C445.824 141.979 445.596 142.353 445.479 142.895C445.376 143.423 445.325 144.274 445.325 145.447C445.325 146.635 445.384 147.501 445.501 148.043C445.618 148.586 445.846 148.953 446.183 149.143C446.535 149.334 447.092 149.429 447.855 149.429C448.647 149.429 449.402 149.363 450.121 149.231V150.925ZM453.382 151.057V141.641H451.468V139.837H453.382V136.581H455.516V139.837H457.782V141.641H455.516V151.057H453.382ZM466.276 149.561H466.144C465.924 150.119 465.557 150.537 465.044 150.815C464.545 151.094 463.863 151.233 462.998 151.233C462.088 151.233 461.399 151.087 460.93 150.793C460.475 150.485 460.167 150.031 460.006 149.429C459.844 148.813 459.764 147.977 459.764 146.921V139.837H461.898V146.085C461.898 147.112 461.942 147.845 462.03 148.285C462.132 148.711 462.316 148.989 462.58 149.121C462.844 149.253 463.298 149.319 463.944 149.319C464.618 149.319 465.117 149.187 465.44 148.923C465.762 148.659 465.968 148.285 466.056 147.801C466.144 147.303 466.188 146.584 466.188 145.645V139.837H468.322V151.057H466.364L466.276 149.561ZM471.366 139.837H473.302L473.39 141.861H473.544C473.778 141.025 474.16 140.453 474.688 140.145C475.23 139.823 475.942 139.661 476.822 139.661V141.795C475.956 141.795 475.282 141.942 474.798 142.235C474.314 142.529 473.976 142.983 473.786 143.599C473.595 144.201 473.5 145.029 473.5 146.085V151.057H471.366V139.837ZM486.92 146.151H480.452C480.452 147.178 480.503 147.904 480.606 148.329C480.723 148.755 480.98 149.048 481.376 149.209C481.786 149.371 482.468 149.451 483.422 149.451C484.214 149.451 485.255 149.378 486.546 149.231V150.903C486.135 151.006 485.592 151.087 484.918 151.145C484.243 151.204 483.59 151.233 482.96 151.233C481.566 151.233 480.54 151.057 479.88 150.705C479.234 150.339 478.809 149.767 478.604 148.989C478.398 148.212 478.296 147.039 478.296 145.469C478.296 143.929 478.391 142.771 478.582 141.993C478.772 141.201 479.183 140.615 479.814 140.233C480.444 139.852 481.434 139.661 482.784 139.661C484.089 139.661 485.028 139.852 485.6 140.233C486.186 140.6 486.553 141.165 486.7 141.927C486.846 142.675 486.92 143.849 486.92 145.447V146.151ZM482.74 141.443C482.036 141.443 481.53 141.524 481.222 141.685C480.928 141.847 480.73 142.14 480.628 142.565C480.525 142.991 480.466 143.687 480.452 144.655H484.852V144.545C484.852 143.607 484.793 142.925 484.676 142.499C484.558 142.074 484.353 141.795 484.06 141.663C483.781 141.517 483.341 141.443 482.74 141.443ZM497.02 153.433C494.527 153.433 492.789 153.228 491.806 152.817C490.838 152.421 490.23 151.673 489.98 150.573C489.731 149.459 489.606 147.464 489.606 144.589C489.606 141.7 489.731 139.705 489.98 138.605C490.23 137.505 490.838 136.757 491.806 136.361C492.789 135.951 494.527 135.745 497.02 135.745C499.514 135.745 501.244 135.943 502.212 136.339C503.195 136.735 503.811 137.483 504.06 138.583C504.31 139.683 504.434 141.685 504.434 144.589C504.434 146.129 504.354 147.237 504.192 147.911C504.031 148.586 503.789 149.004 503.466 149.165C503.144 149.327 502.616 149.407 501.882 149.407H498.912L498.802 148.175H498.67C498.436 148.733 498.098 149.107 497.658 149.297C497.218 149.473 496.69 149.561 496.074 149.561C495.121 149.561 494.432 149.349 494.006 148.923C493.596 148.498 493.39 147.765 493.39 146.723C493.39 145.975 493.464 145.396 493.61 144.985C493.772 144.575 494.036 144.281 494.402 144.105C494.769 143.929 495.297 143.841 495.986 143.841C496.646 143.841 497.563 143.871 498.736 143.929V143.379C498.736 142.69 498.685 142.206 498.582 141.927C498.48 141.649 498.282 141.473 497.988 141.399C497.695 141.311 497.189 141.267 496.47 141.267C496.06 141.267 495.59 141.289 495.062 141.333C494.534 141.363 494.153 141.392 493.918 141.421V139.925C495.018 139.749 496.074 139.661 497.086 139.661C498.128 139.661 498.898 139.786 499.396 140.035C499.91 140.27 500.247 140.644 500.408 141.157C500.584 141.671 500.672 142.426 500.672 143.423V148.373H502.08C502.432 148.373 502.682 148.315 502.828 148.197C502.99 148.065 503.107 147.743 503.18 147.229C503.254 146.701 503.29 145.821 503.29 144.589C503.29 142.448 503.246 140.923 503.158 140.013C503.07 139.089 502.843 138.393 502.476 137.923C502.124 137.454 501.523 137.146 500.672 136.999C500.262 136.911 499.778 136.86 499.22 136.845C498.663 136.816 497.922 136.801 496.998 136.801C495.488 136.801 494.38 136.845 493.676 136.933C492.723 137.065 492.041 137.359 491.63 137.813C491.234 138.253 490.985 138.943 490.882 139.881C490.78 140.82 490.728 142.389 490.728 144.589C490.728 146.936 490.794 148.593 490.926 149.561C491.058 150.515 491.381 151.189 491.894 151.585C492.408 151.996 493.288 152.238 494.534 152.311C494.96 152.341 495.788 152.355 497.02 152.355C497.651 152.355 498.311 152.348 499 152.333C499.704 152.319 500.262 152.304 500.672 152.289V153.367C499.763 153.411 498.546 153.433 497.02 153.433ZM496.8 148.043C497.328 148.043 497.724 147.977 497.988 147.845C498.267 147.713 498.458 147.486 498.56 147.163C498.678 146.826 498.736 146.342 498.736 145.711V145.117H496.492C496.126 145.117 495.854 145.154 495.678 145.227C495.517 145.286 495.4 145.418 495.326 145.623C495.268 145.814 495.238 146.129 495.238 146.569C495.238 146.995 495.275 147.31 495.348 147.515C495.422 147.706 495.568 147.845 495.788 147.933C496.008 148.007 496.346 148.043 496.8 148.043ZM512.716 151.233C511.983 151.233 511.352 151.123 510.824 150.903C510.311 150.669 509.93 150.229 509.68 149.583H509.526L509.438 151.057H507.502V134.711H509.636V141.135H509.768C510.032 140.593 510.406 140.211 510.89 139.991C511.389 139.771 512.02 139.661 512.782 139.661C513.706 139.661 514.41 139.837 514.894 140.189C515.393 140.527 515.745 141.106 515.95 141.927C516.17 142.749 516.28 143.922 516.28 145.447C516.28 146.973 516.17 148.153 515.95 148.989C515.73 149.811 515.364 150.39 514.85 150.727C514.352 151.065 513.64 151.233 512.716 151.233ZM511.88 149.319C512.584 149.319 513.083 149.239 513.376 149.077C513.684 148.916 513.89 148.579 513.992 148.065C514.095 147.537 514.146 146.665 514.146 145.447C514.146 144.23 514.095 143.365 513.992 142.851C513.89 142.338 513.684 142.001 513.376 141.839C513.083 141.663 512.584 141.575 511.88 141.575C511.367 141.575 510.956 141.656 510.648 141.817C510.355 141.964 510.135 142.206 509.988 142.543C509.842 142.851 509.746 143.225 509.702 143.665C509.658 144.105 509.636 144.699 509.636 145.447C509.636 146.166 509.658 146.745 509.702 147.185C509.746 147.625 509.834 147.999 509.966 148.307C510.113 148.659 510.333 148.916 510.626 149.077C510.934 149.239 511.352 149.319 511.88 149.319ZM521.462 151.233C520.377 151.233 519.577 150.984 519.064 150.485C518.565 149.987 518.316 149.136 518.316 147.933C518.316 147.068 518.411 146.393 518.602 145.909C518.793 145.425 519.115 145.073 519.57 144.853C520.025 144.633 520.663 144.523 521.484 144.523C522.232 144.523 523.31 144.553 524.718 144.611V144.017C524.718 143.196 524.652 142.617 524.52 142.279C524.388 141.942 524.139 141.722 523.772 141.619C523.405 141.517 522.789 141.465 521.924 141.465C521.513 141.465 521 141.487 520.384 141.531C519.768 141.575 519.291 141.627 518.954 141.685V139.969C520.054 139.764 521.271 139.661 522.606 139.661C523.823 139.661 524.733 139.801 525.334 140.079C525.935 140.358 526.339 140.805 526.544 141.421C526.749 142.023 526.852 142.903 526.852 144.061V151.057H524.916L524.828 149.605H524.696C524.417 150.251 523.992 150.683 523.42 150.903C522.863 151.123 522.21 151.233 521.462 151.233ZM522.364 149.451C522.877 149.451 523.295 149.393 523.618 149.275C523.941 149.158 524.19 148.938 524.366 148.615C524.601 148.146 524.718 147.457 524.718 146.547V146.019H522.012C521.557 146.019 521.22 146.063 521 146.151C520.78 146.225 520.626 146.386 520.538 146.635C520.45 146.87 520.406 147.244 520.406 147.757C520.406 148.241 520.45 148.601 520.538 148.835C520.641 149.07 520.824 149.231 521.088 149.319C521.367 149.407 521.792 149.451 522.364 149.451ZM536.379 149.561H536.247C536.027 150.119 535.66 150.537 535.147 150.815C534.648 151.094 533.966 151.233 533.101 151.233C532.192 151.233 531.502 151.087 531.033 150.793C530.578 150.485 530.27 150.031 530.109 149.429C529.948 148.813 529.867 147.977 529.867 146.921V139.837H532.001V146.085C532.001 147.112 532.045 147.845 532.133 148.285C532.236 148.711 532.419 148.989 532.683 149.121C532.947 149.253 533.402 149.319 534.047 149.319C534.722 149.319 535.22 149.187 535.543 148.923C535.866 148.659 536.071 148.285 536.159 147.801C536.247 147.303 536.291 146.584 536.291 145.645V139.837H538.425V151.057H536.467L536.379 149.561ZM549.697 146.151H543.229C543.229 147.178 543.281 147.904 543.383 148.329C543.501 148.755 543.757 149.048 544.153 149.209C544.564 149.371 545.246 149.451 546.199 149.451C546.991 149.451 548.033 149.378 549.323 149.231V150.903C548.913 151.006 548.37 151.087 547.695 151.145C547.021 151.204 546.368 151.233 545.737 151.233C544.344 151.233 543.317 151.057 542.657 150.705C542.012 150.339 541.587 149.767 541.381 148.989C541.176 148.212 541.073 147.039 541.073 145.469C541.073 143.929 541.169 142.771 541.359 141.993C541.55 141.201 541.961 140.615 542.591 140.233C543.222 139.852 544.212 139.661 545.561 139.661C546.867 139.661 547.805 139.852 548.377 140.233C548.964 140.6 549.331 141.165 549.477 141.927C549.624 142.675 549.697 143.849 549.697 145.447V146.151ZM545.517 141.443C544.813 141.443 544.307 141.524 543.999 141.685C543.706 141.847 543.508 142.14 543.405 142.565C543.303 142.991 543.244 143.687 543.229 144.655H547.629V144.545C547.629 143.607 547.571 142.925 547.453 142.499C547.336 142.074 547.131 141.795 546.837 141.663C546.559 141.517 546.119 141.443 545.517 141.443ZM558.786 144.809C558.786 143.783 558.734 143.057 558.632 142.631C558.544 142.191 558.368 141.905 558.104 141.773C557.84 141.641 557.385 141.575 556.74 141.575C556.065 141.575 555.566 141.707 555.244 141.971C554.921 142.235 554.716 142.617 554.628 143.115C554.54 143.614 554.496 144.325 554.496 145.249V151.057H552.362V139.837H554.298L554.386 141.333H554.54C554.774 140.791 555.141 140.38 555.64 140.101C556.138 139.808 556.813 139.661 557.664 139.661C558.588 139.661 559.277 139.815 559.732 140.123C560.201 140.417 560.516 140.864 560.678 141.465C560.839 142.067 560.92 142.903 560.92 143.973V151.057H558.786V144.809ZM563.744 151.057V148.659H566.142V151.057H563.744ZM575.525 150.925C575.173 151.013 574.733 151.087 574.205 151.145C573.692 151.204 573.201 151.233 572.731 151.233C571.485 151.233 570.561 151.035 569.959 150.639C569.373 150.243 568.991 149.657 568.815 148.879C568.654 148.102 568.573 146.958 568.573 145.447C568.573 143.966 568.669 142.829 568.859 142.037C569.065 141.231 569.461 140.637 570.047 140.255C570.634 139.859 571.514 139.661 572.687 139.661C573.157 139.661 573.648 139.691 574.161 139.749C574.675 139.808 575.1 139.881 575.437 139.969V141.663C574.704 141.531 573.963 141.465 573.215 141.465C572.467 141.465 571.917 141.568 571.565 141.773C571.228 141.979 571.001 142.353 570.883 142.895C570.781 143.423 570.729 144.274 570.729 145.447C570.729 146.635 570.788 147.501 570.905 148.043C571.023 148.586 571.25 148.953 571.587 149.143C571.939 149.334 572.497 149.429 573.259 149.429C574.051 149.429 574.807 149.363 575.525 149.231V150.925ZM581.998 151.233C580.59 151.233 579.578 151.072 578.962 150.749C578.361 150.427 577.972 149.891 577.796 149.143C577.62 148.381 577.532 147.149 577.532 145.447C577.532 143.746 577.62 142.514 577.796 141.751C577.972 140.989 578.361 140.453 578.962 140.145C579.578 139.823 580.59 139.661 581.998 139.661C583.406 139.661 584.411 139.823 585.012 140.145C585.628 140.453 586.024 140.989 586.2 141.751C586.376 142.514 586.464 143.746 586.464 145.447C586.464 147.149 586.376 148.381 586.2 149.143C586.024 149.891 585.628 150.427 585.012 150.749C584.411 151.072 583.406 151.233 581.998 151.233ZM581.998 149.429C582.79 149.429 583.34 149.341 583.648 149.165C583.956 148.989 584.147 148.652 584.22 148.153C584.293 147.655 584.33 146.753 584.33 145.447C584.33 144.127 584.293 143.225 584.22 142.741C584.147 142.243 583.956 141.905 583.648 141.729C583.34 141.553 582.79 141.465 581.998 141.465C581.221 141.465 580.678 141.553 580.37 141.729C580.062 141.905 579.871 142.243 579.798 142.741C579.725 143.225 579.688 144.127 579.688 145.447C579.688 146.753 579.725 147.655 579.798 148.153C579.871 148.652 580.062 148.989 580.37 149.165C580.678 149.341 581.221 149.429 581.998 149.429ZM601.2 144.809C601.2 143.783 601.156 143.057 601.068 142.631C600.994 142.191 600.833 141.905 600.584 141.773C600.349 141.641 599.938 141.575 599.352 141.575C598.736 141.575 598.281 141.7 597.988 141.949C597.694 142.199 597.504 142.573 597.416 143.071C597.328 143.57 597.284 144.296 597.284 145.249V151.057H595.15V144.809C595.15 143.768 595.106 143.035 595.018 142.609C594.944 142.184 594.79 141.905 594.556 141.773C594.321 141.641 593.91 141.575 593.324 141.575C592.708 141.575 592.253 141.707 591.96 141.971C591.666 142.221 591.476 142.595 591.388 143.093C591.3 143.592 591.256 144.311 591.256 145.249V151.057H589.122V139.837H591.058L591.146 141.333H591.3C591.52 140.791 591.864 140.38 592.334 140.101C592.818 139.808 593.463 139.661 594.27 139.661C595.12 139.661 595.758 139.793 596.184 140.057C596.609 140.321 596.91 140.747 597.086 141.333H597.218C597.687 140.219 598.699 139.661 600.254 139.661C601.104 139.661 601.75 139.815 602.19 140.123C602.644 140.417 602.945 140.871 603.092 141.487C603.253 142.089 603.334 142.917 603.334 143.973V151.057H601.2V144.809Z" fill="#343438"/>
<path d="M351 101H367C368.1 101 369 101.9 369 103V115C369 116.1 368.1 117 367 117H351C349.9 117 349 116.1 349 115V103C349 101.9 349.9 101 351 101Z" stroke="#25282B" stroke-width="2" stroke-linecap="round" stroke-linejoin="round"/>
<path d="M369 103L359 110L349 103" stroke="#25282B" stroke-width="2" stroke-linecap="round" stroke-linejoin="round"/>
<rect x="349" y="276" width="88.2759" height="3.00522" fill="#B98E75"/>
<rect x="380.097" y="281.009" width="88.2759" height="3.00522" fill="#B98E75"/>
<path d="M392.122 343L389.438 331.428H389.35L386.666 343H383.806L380.484 327.864H382.794L385.302 340.14H385.412L388.206 327.864H390.67L393.486 340.14H393.618L396.038 327.864H398.304L394.982 343H392.122ZM407.75 338.094H401.282C401.282 339.121 401.333 339.847 401.436 340.272C401.553 340.697 401.81 340.991 402.206 341.152C402.617 341.313 403.299 341.394 404.252 341.394C405.044 341.394 406.085 341.321 407.376 341.174V342.846C406.965 342.949 406.423 343.029 405.748 343.088C405.073 343.147 404.421 343.176 403.79 343.176C402.397 343.176 401.37 343 400.71 342.648C400.065 342.281 399.639 341.709 399.434 340.932C399.229 340.155 399.126 338.981 399.126 337.412C399.126 335.872 399.221 334.713 399.412 333.936C399.603 333.144 400.013 332.557 400.644 332.176C401.275 331.795 402.265 331.604 403.614 331.604C404.919 331.604 405.858 331.795 406.43 332.176C407.017 332.543 407.383 333.107 407.53 333.87C407.677 334.618 407.75 335.791 407.75 337.39V338.094ZM403.57 333.386C402.866 333.386 402.36 333.467 402.052 333.628C401.759 333.789 401.561 334.083 401.458 334.508C401.355 334.933 401.297 335.63 401.282 336.598H405.682V336.488C405.682 335.549 405.623 334.867 405.506 334.442C405.389 334.017 405.183 333.738 404.89 333.606C404.611 333.459 404.171 333.386 403.57 333.386ZM415.628 343.176C414.895 343.176 414.264 343.066 413.736 342.846C413.223 342.611 412.842 342.171 412.592 341.526H412.438L412.35 343H410.414V326.654H412.548V333.078H412.68C412.944 332.535 413.318 332.154 413.802 331.934C414.301 331.714 414.932 331.604 415.694 331.604C416.618 331.604 417.322 331.78 417.806 332.132C418.305 332.469 418.657 333.049 418.862 333.87C419.082 334.691 419.192 335.865 419.192 337.39C419.192 338.915 419.082 340.096 418.862 340.932C418.642 341.753 418.276 342.333 417.762 342.67C417.264 343.007 416.552 343.176 415.628 343.176ZM414.792 341.262C415.496 341.262 415.995 341.181 416.288 341.02C416.596 340.859 416.802 340.521 416.904 340.008C417.007 339.48 417.058 338.607 417.058 337.39C417.058 336.173 417.007 335.307 416.904 334.794C416.802 334.281 416.596 333.943 416.288 333.782C415.995 333.606 415.496 333.518 414.792 333.518C414.279 333.518 413.868 333.599 413.56 333.76C413.267 333.907 413.047 334.149 412.9 334.486C412.754 334.794 412.658 335.168 412.614 335.608C412.57 336.048 412.548 336.642 412.548 337.39C412.548 338.109 412.57 338.688 412.614 339.128C412.658 339.568 412.746 339.942 412.878 340.25C413.025 340.602 413.245 340.859 413.538 341.02C413.846 341.181 414.264 341.262 414.792 341.262ZM425.232 343.176C424.675 343.176 424.052 343.147 423.362 343.088C422.673 343.029 422.079 342.963 421.58 342.89V341.174C422.636 341.306 423.758 341.372 424.946 341.372C425.548 341.372 425.995 341.321 426.288 341.218C426.582 341.115 426.772 340.961 426.86 340.756C426.948 340.551 426.992 340.25 426.992 339.854C426.992 339.414 426.963 339.106 426.904 338.93C426.846 338.739 426.743 338.615 426.596 338.556C426.45 338.483 426.193 338.424 425.826 338.38L423.406 338.05C422.57 337.947 422.006 337.661 421.712 337.192C421.419 336.708 421.272 335.953 421.272 334.926C421.272 334.017 421.434 333.32 421.756 332.836C422.079 332.352 422.519 332.029 423.076 331.868C423.648 331.692 424.382 331.604 425.276 331.604C425.834 331.604 426.413 331.633 427.014 331.692C427.63 331.751 428.129 331.831 428.51 331.934V333.628C427.528 333.481 426.501 333.408 425.43 333.408C424.653 333.408 424.11 333.503 423.802 333.694C423.494 333.87 423.34 334.266 423.34 334.882C423.34 335.278 423.362 335.564 423.406 335.74C423.465 335.916 423.568 336.041 423.714 336.114C423.861 336.187 424.096 336.246 424.418 336.29L426.904 336.598C427.432 336.671 427.843 336.796 428.136 336.972C428.444 337.148 428.672 337.456 428.818 337.896C428.98 338.321 429.06 338.952 429.06 339.788C429.06 340.697 428.914 341.401 428.62 341.9C428.342 342.384 427.924 342.721 427.366 342.912C426.824 343.088 426.112 343.176 425.232 343.176ZM431.49 328.832V326.654H433.712V328.832H431.49ZM431.534 343V331.78H433.668V343H431.534ZM437.569 343V333.584H435.655V331.78H437.569V328.524H439.703V331.78H441.969V333.584H439.703V343H437.569ZM452.094 338.094H445.626C445.626 339.121 445.677 339.847 445.78 340.272C445.897 340.697 446.154 340.991 446.55 341.152C446.96 341.313 447.642 341.394 448.596 341.394C449.388 341.394 450.429 341.321 451.72 341.174V342.846C451.309 342.949 450.766 343.029 450.092 343.088C449.417 343.147 448.764 343.176 448.134 343.176C446.74 343.176 445.714 343 445.054 342.648C444.408 342.281 443.983 341.709 443.778 340.932C443.572 340.155 443.47 338.981 443.47 337.412C443.47 335.872 443.565 334.713 443.756 333.936C443.946 333.144 444.357 332.557 444.988 332.176C445.618 331.795 446.608 331.604 447.958 331.604C449.263 331.604 450.202 331.795 450.774 332.176C451.36 332.543 451.727 333.107 451.874 333.87C452.02 334.618 452.094 335.791 452.094 337.39V338.094ZM447.914 333.386C447.21 333.386 446.704 333.467 446.396 333.628C446.102 333.789 445.904 334.083 445.802 334.508C445.699 334.933 445.64 335.63 445.626 336.598H450.026V336.488C450.026 335.549 449.967 334.867 449.85 334.442C449.732 334.017 449.527 333.738 449.234 333.606C448.955 333.459 448.515 333.386 447.914 333.386Z" fill="#B98E75"/>
<path d="M384.686 378V372.39L380.088 362.864H382.486L385.808 369.97H385.962L389.262 362.864H391.55L386.952 372.39V378H384.686ZM396.029 378.176C394.621 378.176 393.609 378.015 392.993 377.692C392.392 377.369 392.003 376.834 391.827 376.086C391.651 375.323 391.563 374.091 391.563 372.39C391.563 370.689 391.651 369.457 391.827 368.694C392.003 367.931 392.392 367.396 392.993 367.088C393.609 366.765 394.621 366.604 396.029 366.604C397.437 366.604 398.442 366.765 399.043 367.088C399.659 367.396 400.055 367.931 400.231 368.694C400.407 369.457 400.495 370.689 400.495 372.39C400.495 374.091 400.407 375.323 400.231 376.086C400.055 376.834 399.659 377.369 399.043 377.692C398.442 378.015 397.437 378.176 396.029 378.176ZM396.029 376.372C396.821 376.372 397.371 376.284 397.679 376.108C397.987 375.932 398.178 375.595 398.251 375.096C398.325 374.597 398.361 373.695 398.361 372.39C398.361 371.07 398.325 370.168 398.251 369.684C398.178 369.185 397.987 368.848 397.679 368.672C397.371 368.496 396.821 368.408 396.029 368.408C395.252 368.408 394.709 368.496 394.401 368.672C394.093 368.848 393.903 369.185 393.829 369.684C393.756 370.168 393.719 371.07 393.719 372.39C393.719 373.695 393.756 374.597 393.829 375.096C393.903 375.595 394.093 375.932 394.401 376.108C394.709 376.284 395.252 376.372 396.029 376.372ZM409.643 376.504H409.511C409.291 377.061 408.924 377.479 408.411 377.758C407.912 378.037 407.23 378.176 406.365 378.176C405.455 378.176 404.766 378.029 404.297 377.736C403.842 377.428 403.534 376.973 403.373 376.372C403.211 375.756 403.131 374.92 403.131 373.864V366.78H405.265V373.028C405.265 374.055 405.309 374.788 405.397 375.228C405.499 375.653 405.683 375.932 405.947 376.064C406.211 376.196 406.665 376.262 407.311 376.262C407.985 376.262 408.484 376.13 408.807 375.866C409.129 375.602 409.335 375.228 409.423 374.744C409.511 374.245 409.555 373.527 409.555 372.588V366.78H411.689V378H409.731L409.643 376.504ZM414.733 366.78H416.669L416.757 368.804H416.911C417.146 367.968 417.527 367.396 418.055 367.088C418.598 366.765 419.309 366.604 420.189 366.604V368.738C419.324 368.738 418.649 368.885 418.165 369.178C417.681 369.471 417.344 369.926 417.153 370.542C416.962 371.143 416.867 371.972 416.867 373.028V378H414.733V366.78ZM430.592 378L428.7 370.366H428.546L426.654 378H424.058L421.154 366.78H423.332L425.356 375.426H425.51L427.622 366.78H429.69L431.824 375.426H431.978L433.958 366.78H436.092L433.166 378H430.592ZM446.121 373.094H439.653C439.653 374.121 439.704 374.847 439.807 375.272C439.924 375.697 440.181 375.991 440.577 376.152C440.988 376.313 441.67 376.394 442.623 376.394C443.415 376.394 444.456 376.321 445.747 376.174V377.846C445.336 377.949 444.794 378.029 444.119 378.088C443.444 378.147 442.792 378.176 442.161 378.176C440.768 378.176 439.741 378 439.081 377.648C438.436 377.281 438.01 376.709 437.805 375.932C437.6 375.155 437.497 373.981 437.497 372.412C437.497 370.872 437.592 369.713 437.783 368.936C437.974 368.144 438.384 367.557 439.015 367.176C439.646 366.795 440.636 366.604 441.985 366.604C443.29 366.604 444.229 366.795 444.801 367.176C445.388 367.543 445.754 368.107 445.901 368.87C446.048 369.618 446.121 370.791 446.121 372.39V373.094ZM441.941 368.386C441.237 368.386 440.731 368.467 440.423 368.628C440.13 368.789 439.932 369.083 439.829 369.508C439.726 369.933 439.668 370.63 439.653 371.598H444.053V371.488C444.053 370.549 443.994 369.867 443.877 369.442C443.76 369.017 443.554 368.738 443.261 368.606C442.982 368.459 442.542 368.386 441.941 368.386ZM454 378.176C453.266 378.176 452.636 378.066 452.108 377.846C451.594 377.611 451.213 377.171 450.964 376.526H450.81L450.722 378H448.786V361.654H450.92V368.078H451.052C451.316 367.535 451.69 367.154 452.174 366.934C452.672 366.714 453.303 366.604 454.066 366.604C454.99 366.604 455.694 366.78 456.178 367.132C456.676 367.469 457.028 368.049 457.234 368.87C457.454 369.691 457.564 370.865 457.564 372.39C457.564 373.915 457.454 375.096 457.234 375.932C457.014 376.753 456.647 377.333 456.134 377.67C455.635 378.007 454.924 378.176 454 378.176ZM453.164 376.262C453.868 376.262 454.366 376.181 454.66 376.02C454.968 375.859 455.173 375.521 455.276 375.008C455.378 374.48 455.43 373.607 455.43 372.39C455.43 371.173 455.378 370.307 455.276 369.794C455.173 369.281 454.968 368.943 454.66 368.782C454.366 368.606 453.868 368.518 453.164 368.518C452.65 368.518 452.24 368.599 451.932 368.76C451.638 368.907 451.418 369.149 451.272 369.486C451.125 369.794 451.03 370.168 450.986 370.608C450.942 371.048 450.92 371.642 450.92 372.39C450.92 373.109 450.942 373.688 450.986 374.128C451.03 374.568 451.118 374.942 451.25 375.25C451.396 375.602 451.616 375.859 451.91 376.02C452.218 376.181 452.636 376.262 453.164 376.262ZM463.603 378.176C463.046 378.176 462.423 378.147 461.733 378.088C461.044 378.029 460.45 377.963 459.951 377.89V376.174C461.007 376.306 462.129 376.372 463.317 376.372C463.919 376.372 464.366 376.321 464.659 376.218C464.953 376.115 465.143 375.961 465.231 375.756C465.319 375.551 465.363 375.25 465.363 374.854C465.363 374.414 465.334 374.106 465.275 373.93C465.217 373.739 465.114 373.615 464.967 373.556C464.821 373.483 464.564 373.424 464.197 373.38L461.777 373.05C460.941 372.947 460.377 372.661 460.083 372.192C459.79 371.708 459.643 370.953 459.643 369.926C459.643 369.017 459.805 368.32 460.127 367.836C460.45 367.352 460.89 367.029 461.447 366.868C462.019 366.692 462.753 366.604 463.647 366.604C464.205 366.604 464.784 366.633 465.385 366.692C466.001 366.751 466.5 366.831 466.881 366.934V368.628C465.899 368.481 464.872 368.408 463.801 368.408C463.024 368.408 462.481 368.503 462.173 368.694C461.865 368.87 461.711 369.266 461.711 369.882C461.711 370.278 461.733 370.564 461.777 370.74C461.836 370.916 461.939 371.041 462.085 371.114C462.232 371.187 462.467 371.246 462.789 371.29L465.275 371.598C465.803 371.671 466.214 371.796 466.507 371.972C466.815 372.148 467.043 372.456 467.189 372.896C467.351 373.321 467.431 373.952 467.431 374.788C467.431 375.697 467.285 376.401 466.991 376.9C466.713 377.384 466.295 377.721 465.737 377.912C465.195 378.088 464.483 378.176 463.603 378.176ZM469.861 363.832V361.654H472.083V363.832H469.861ZM469.905 378V366.78H472.039V378H469.905ZM475.94 378V368.584H474.026V366.78H475.94V363.524H478.074V366.78H480.34V368.584H478.074V378H475.94ZM490.465 373.094H483.997C483.997 374.121 484.048 374.847 484.151 375.272C484.268 375.697 484.525 375.991 484.921 376.152C485.331 376.313 486.013 376.394 486.967 376.394C487.759 376.394 488.8 376.321 490.091 376.174V377.846C489.68 377.949 489.137 378.029 488.463 378.088C487.788 378.147 487.135 378.176 486.505 378.176C485.111 378.176 484.085 378 483.425 377.648C482.779 377.281 482.354 376.709 482.149 375.932C481.943 375.155 481.841 373.981 481.841 372.412C481.841 370.872 481.936 369.713 482.127 368.936C482.317 368.144 482.728 367.557 483.359 367.176C483.989 366.795 484.979 366.604 486.329 366.604C487.634 366.604 488.573 366.795 489.145 367.176C489.731 367.543 490.098 368.107 490.245 368.87C490.391 369.618 490.465 370.791 490.465 372.39V373.094ZM486.285 368.386C485.581 368.386 485.075 368.467 484.767 368.628C484.473 368.789 484.275 369.083 484.173 369.508C484.07 369.933 484.011 370.63 483.997 371.598H488.397V371.488C488.397 370.549 488.338 369.867 488.221 369.442C488.103 369.017 487.898 368.738 487.605 368.606C487.326 368.459 486.886 368.386 486.285 368.386ZM492.931 378V375.602H495.329V378H492.931ZM504.713 377.868C504.361 377.956 503.921 378.029 503.393 378.088C502.879 378.147 502.388 378.176 501.919 378.176C500.672 378.176 499.748 377.978 499.147 377.582C498.56 377.186 498.179 376.599 498.003 375.822C497.841 375.045 497.761 373.901 497.761 372.39C497.761 370.909 497.856 369.772 498.047 368.98C498.252 368.173 498.648 367.579 499.235 367.198C499.821 366.802 500.701 366.604 501.875 366.604C502.344 366.604 502.835 366.633 503.349 366.692C503.862 366.751 504.287 366.824 504.625 366.912V368.606C503.891 368.474 503.151 368.408 502.403 368.408C501.655 368.408 501.105 368.511 500.753 368.716C500.415 368.921 500.188 369.295 500.071 369.838C499.968 370.366 499.917 371.217 499.917 372.39C499.917 373.578 499.975 374.443 500.093 374.986C500.21 375.529 500.437 375.895 500.775 376.086C501.127 376.277 501.684 376.372 502.447 376.372C503.239 376.372 503.994 376.306 504.713 376.174V377.868ZM511.186 378.176C509.778 378.176 508.766 378.015 508.15 377.692C507.548 377.369 507.16 376.834 506.984 376.086C506.808 375.323 506.72 374.091 506.72 372.39C506.72 370.689 506.808 369.457 506.984 368.694C507.16 367.931 507.548 367.396 508.15 367.088C508.766 366.765 509.778 366.604 511.186 366.604C512.594 366.604 513.598 366.765 514.2 367.088C514.816 367.396 515.212 367.931 515.388 368.694C515.564 369.457 515.652 370.689 515.652 372.39C515.652 374.091 515.564 375.323 515.388 376.086C515.212 376.834 514.816 377.369 514.2 377.692C513.598 378.015 512.594 378.176 511.186 378.176ZM511.186 376.372C511.978 376.372 512.528 376.284 512.836 376.108C513.144 375.932 513.334 375.595 513.408 375.096C513.481 374.597 513.518 373.695 513.518 372.39C513.518 371.07 513.481 370.168 513.408 369.684C513.334 369.185 513.144 368.848 512.836 368.672C512.528 368.496 511.978 368.408 511.186 368.408C510.408 368.408 509.866 368.496 509.558 368.672C509.25 368.848 509.059 369.185 508.986 369.684C508.912 370.168 508.876 371.07 508.876 372.39C508.876 373.695 508.912 374.597 508.986 375.096C509.059 375.595 509.25 375.932 509.558 376.108C509.866 376.284 510.408 376.372 511.186 376.372ZM530.387 371.752C530.387 370.725 530.343 369.999 530.255 369.574C530.182 369.134 530.02 368.848 529.771 368.716C529.536 368.584 529.126 368.518 528.539 368.518C527.923 368.518 527.468 368.643 527.175 368.892C526.882 369.141 526.691 369.515 526.603 370.014C526.515 370.513 526.471 371.239 526.471 372.192V378H524.337V371.752C524.337 370.711 524.293 369.977 524.205 369.552C524.132 369.127 523.978 368.848 523.743 368.716C523.508 368.584 523.098 368.518 522.511 368.518C521.895 368.518 521.44 368.65 521.147 368.914C520.854 369.163 520.663 369.537 520.575 370.036C520.487 370.535 520.443 371.253 520.443 372.192V378H518.309V366.78H520.245L520.333 368.276H520.487C520.707 367.733 521.052 367.323 521.521 367.044C522.005 366.751 522.65 366.604 523.457 366.604C524.308 366.604 524.946 366.736 525.371 367C525.796 367.264 526.097 367.689 526.273 368.276H526.405C526.874 367.161 527.886 366.604 529.441 366.604C530.292 366.604 530.937 366.758 531.377 367.066C531.832 367.359 532.132 367.814 532.279 368.43C532.44 369.031 532.521 369.86 532.521 370.916V378H530.387V371.752Z" fill="#343438"/>
<path d="M369 326L358 337" stroke="#25282B" stroke-width="2" stroke-linecap="round" stroke-linejoin="round"/>
<path d="M369 326L362 346L358 337L349 333L369 326Z" stroke="#25282B" stroke-width="2" stroke-linecap="round" stroke-linejoin="round"/>
<rect x="5" y="264" width="88.2759" height="3.00522" fill="#B98E75"/>
<rect x="36.0967" y="269.009" width="88.2759" height="3.00522" fill="#B98E75"/>
<path d="M39.776 322.176C38.0307 322.176 36.784 321.971 36.036 321.56C35.288 321.149 34.8113 320.445 34.606 319.448C34.4153 318.451 34.32 316.779 34.32 314.432C34.32 312.085 34.4153 310.413 34.606 309.416C34.8113 308.419 35.288 307.715 36.036 307.304C36.784 306.893 38.0307 306.688 39.776 306.688C41.536 306.688 42.79 306.893 43.538 307.304C44.286 307.715 44.7627 308.419 44.968 309.416C45.1733 310.413 45.276 312.085 45.276 314.432C45.276 316.779 45.1733 318.451 44.968 319.448C44.7627 320.445 44.286 321.149 43.538 321.56C42.79 321.971 41.536 322.176 39.776 322.176ZM39.776 320.218C40.876 320.218 41.624 320.123 42.02 319.932C42.416 319.741 42.6727 319.279 42.79 318.546C42.922 317.798 42.988 316.427 42.988 314.432C42.988 312.437 42.922 311.073 42.79 310.34C42.6727 309.592 42.416 309.123 42.02 308.932C41.624 308.741 40.876 308.646 39.776 308.646C38.676 308.646 37.928 308.741 37.532 308.932C37.1507 309.123 36.894 309.592 36.762 310.34C36.6447 311.073 36.586 312.437 36.586 314.432C36.586 316.427 36.6447 317.798 36.762 318.546C36.894 319.279 37.1507 319.741 37.532 319.932C37.928 320.123 38.676 320.218 39.776 320.218ZM54.5861 320.504H54.4541C54.2341 321.061 53.8675 321.479 53.3541 321.758C52.8555 322.037 52.1735 322.176 51.3081 322.176C50.3988 322.176 49.7095 322.029 49.2401 321.736C48.7855 321.428 48.4775 320.973 48.3161 320.372C48.1548 319.756 48.0741 318.92 48.0741 317.864V310.78H50.2081V317.028C50.2081 318.055 50.2521 318.788 50.3401 319.228C50.4428 319.653 50.6261 319.932 50.8901 320.064C51.1541 320.196 51.6088 320.262 52.2541 320.262C52.9288 320.262 53.4275 320.13 53.7501 319.866C54.0728 319.602 54.2781 319.228 54.3661 318.744C54.4541 318.245 54.4981 317.527 54.4981 316.588V310.78H56.6321V322H54.6741L54.5861 320.504ZM59.6762 310.78H61.6122L61.7002 312.804H61.8542C62.0889 311.968 62.4702 311.396 62.9982 311.088C63.5409 310.765 64.2522 310.604 65.1322 310.604V312.738C64.2669 312.738 63.5922 312.885 63.1082 313.178C62.6242 313.471 62.2869 313.926 62.0962 314.542C61.9055 315.143 61.8102 315.972 61.8102 317.028V322H59.6762V310.78ZM80.7008 322L79.5568 318.172H74.1888L73.0668 322H70.7788L75.3988 306.864H78.4128L83.0328 322H80.7008ZM76.9168 309.174H76.8068L74.7388 316.236H78.9848L76.9168 309.174ZM88.1098 322.176C87.1858 322.176 86.4672 322.007 85.9538 321.67C85.4552 321.333 85.0958 320.753 84.8758 319.932C84.6558 319.111 84.5458 317.937 84.5458 316.412C84.5458 314.887 84.6485 313.713 84.8538 312.892C85.0738 312.056 85.4332 311.469 85.9318 311.132C86.4452 310.78 87.1565 310.604 88.0658 310.604C88.8285 310.604 89.4518 310.714 89.9358 310.934C90.4345 311.154 90.8158 311.535 91.0798 312.078H91.2118V305.654H93.3458V322H91.3878L91.2998 320.526H91.1678C90.9185 321.171 90.5298 321.611 90.0018 321.846C89.4738 322.066 88.8432 322.176 88.1098 322.176ZM88.9678 320.262C89.5252 320.262 89.9578 320.174 90.2658 319.998C90.5738 319.822 90.7938 319.543 90.9258 319.162C91.0432 318.839 91.1165 318.465 91.1458 318.04C91.1898 317.6 91.2118 317.021 91.2118 316.302C91.2118 315.114 91.1312 314.271 90.9698 313.772C90.8378 313.317 90.6105 312.995 90.2878 312.804C89.9798 312.613 89.5325 312.518 88.9458 312.518C88.2418 312.518 87.7432 312.606 87.4498 312.782C87.1565 312.943 86.9585 313.281 86.8558 313.794C86.7532 314.307 86.7018 315.173 86.7018 316.39C86.7018 317.607 86.7532 318.48 86.8558 319.008C86.9585 319.521 87.1565 319.859 87.4498 320.02C87.7578 320.181 88.2638 320.262 88.9678 320.262ZM99.5395 322.176C98.6155 322.176 97.8968 322.007 97.3835 321.67C96.8848 321.333 96.5255 320.753 96.3055 319.932C96.0855 319.111 95.9755 317.937 95.9755 316.412C95.9755 314.887 96.0782 313.713 96.2835 312.892C96.5035 312.056 96.8628 311.469 97.3615 311.132C97.8748 310.78 98.5862 310.604 99.4955 310.604C100.258 310.604 100.882 310.714 101.366 310.934C101.864 311.154 102.246 311.535 102.51 312.078H102.642V305.654H104.776V322H102.818L102.73 320.526H102.598C102.348 321.171 101.96 321.611 101.432 321.846C100.904 322.066 100.273 322.176 99.5395 322.176ZM100.398 320.262C100.955 320.262 101.388 320.174 101.696 319.998C102.004 319.822 102.224 319.543 102.356 319.162C102.473 318.839 102.546 318.465 102.576 318.04C102.62 317.6 102.642 317.021 102.642 316.302C102.642 315.114 102.561 314.271 102.4 313.772C102.268 313.317 102.04 312.995 101.718 312.804C101.41 312.613 100.962 312.518 100.376 312.518C99.6715 312.518 99.1728 312.606 98.8795 312.782C98.5862 312.943 98.3882 313.281 98.2855 313.794C98.1828 314.307 98.1315 315.173 98.1315 316.39C98.1315 317.607 98.1828 318.48 98.2855 319.008C98.3882 319.521 98.5862 319.859 98.8795 320.02C99.1875 320.181 99.6935 320.262 100.398 320.262ZM107.801 310.78H109.737L109.825 312.804H109.979C110.214 311.968 110.595 311.396 111.123 311.088C111.666 310.765 112.377 310.604 113.257 310.604V312.738C112.392 312.738 111.717 312.885 111.233 313.178C110.749 313.471 110.412 313.926 110.221 314.542C110.031 315.143 109.935 315.972 109.935 317.028V322H107.801V310.78ZM123.355 317.094H116.887C116.887 318.121 116.939 318.847 117.041 319.272C117.159 319.697 117.415 319.991 117.811 320.152C118.222 320.313 118.904 320.394 119.857 320.394C120.649 320.394 121.691 320.321 122.981 320.174V321.846C122.571 321.949 122.028 322.029 121.353 322.088C120.679 322.147 120.026 322.176 119.395 322.176C118.002 322.176 116.975 322 116.315 321.648C115.67 321.281 115.245 320.709 115.039 319.932C114.834 319.155 114.731 317.981 114.731 316.412C114.731 314.872 114.827 313.713 115.017 312.936C115.208 312.144 115.619 311.557 116.249 311.176C116.88 310.795 117.87 310.604 119.219 310.604C120.525 310.604 121.463 310.795 122.035 311.176C122.622 311.543 122.989 312.107 123.135 312.87C123.282 313.618 123.355 314.791 123.355 316.39V317.094ZM119.175 312.386C118.471 312.386 117.965 312.467 117.657 312.628C117.364 312.789 117.166 313.083 117.063 313.508C116.961 313.933 116.902 314.63 116.887 315.598H121.287V315.488C121.287 314.549 121.229 313.867 121.111 313.442C120.994 313.017 120.789 312.738 120.495 312.606C120.217 312.459 119.777 312.386 119.175 312.386ZM129.408 322.176C128.851 322.176 128.227 322.147 127.538 322.088C126.849 322.029 126.255 321.963 125.756 321.89V320.174C126.812 320.306 127.934 320.372 129.122 320.372C129.723 320.372 130.171 320.321 130.464 320.218C130.757 320.115 130.948 319.961 131.036 319.756C131.124 319.551 131.168 319.25 131.168 318.854C131.168 318.414 131.139 318.106 131.08 317.93C131.021 317.739 130.919 317.615 130.772 317.556C130.625 317.483 130.369 317.424 130.002 317.38L127.582 317.05C126.746 316.947 126.181 316.661 125.888 316.192C125.595 315.708 125.448 314.953 125.448 313.926C125.448 313.017 125.609 312.32 125.932 311.836C126.255 311.352 126.695 311.029 127.252 310.868C127.824 310.692 128.557 310.604 129.452 310.604C130.009 310.604 130.589 310.633 131.19 310.692C131.806 310.751 132.305 310.831 132.686 310.934V312.628C131.703 312.481 130.677 312.408 129.606 312.408C128.829 312.408 128.286 312.503 127.978 312.694C127.67 312.87 127.516 313.266 127.516 313.882C127.516 314.278 127.538 314.564 127.582 314.74C127.641 314.916 127.743 315.041 127.89 315.114C128.037 315.187 128.271 315.246 128.594 315.29L131.08 315.598C131.608 315.671 132.019 315.796 132.312 315.972C132.62 316.148 132.847 316.456 132.994 316.896C133.155 317.321 133.236 317.952 133.236 318.788C133.236 319.697 133.089 320.401 132.796 320.9C132.517 321.384 132.099 321.721 131.542 321.912C130.999 322.088 130.288 322.176 129.408 322.176ZM139.097 322.176C138.54 322.176 137.917 322.147 137.227 322.088C136.538 322.029 135.944 321.963 135.445 321.89V320.174C136.501 320.306 137.623 320.372 138.811 320.372C139.413 320.372 139.86 320.321 140.153 320.218C140.447 320.115 140.637 319.961 140.725 319.756C140.813 319.551 140.857 319.25 140.857 318.854C140.857 318.414 140.828 318.106 140.769 317.93C140.711 317.739 140.608 317.615 140.461 317.556C140.315 317.483 140.058 317.424 139.691 317.38L137.271 317.05C136.435 316.947 135.871 316.661 135.577 316.192C135.284 315.708 135.137 314.953 135.137 313.926C135.137 313.017 135.299 312.32 135.621 311.836C135.944 311.352 136.384 311.029 136.941 310.868C137.513 310.692 138.247 310.604 139.141 310.604C139.699 310.604 140.278 310.633 140.879 310.692C141.495 310.751 141.994 310.831 142.375 310.934V312.628C141.393 312.481 140.366 312.408 139.295 312.408C138.518 312.408 137.975 312.503 137.667 312.694C137.359 312.87 137.205 313.266 137.205 313.882C137.205 314.278 137.227 314.564 137.271 314.74C137.33 314.916 137.433 315.041 137.579 315.114C137.726 315.187 137.961 315.246 138.283 315.29L140.769 315.598C141.297 315.671 141.708 315.796 142.001 315.972C142.309 316.148 142.537 316.456 142.683 316.896C142.845 317.321 142.925 317.952 142.925 318.788C142.925 319.697 142.779 320.401 142.485 320.9C142.207 321.384 141.789 321.721 141.231 321.912C140.689 322.088 139.977 322.176 139.097 322.176Z" fill="#B98E75"/>
<path d="M36.388 355.042H43.384V357H34.188V355.152C34.188 353.891 34.2247 352.967 34.298 352.38C34.386 351.779 34.584 351.287 34.892 350.906C35.2 350.51 35.706 350.143 36.41 349.806L39.666 348.244C40.282 347.951 40.678 347.65 40.854 347.342C41.0447 347.034 41.14 346.535 41.14 345.846C41.14 345.201 41.052 344.724 40.876 344.416C40.7147 344.108 40.4287 343.903 40.018 343.8C39.622 343.697 39.0133 343.646 38.192 343.646C37.1507 343.646 35.904 343.734 34.452 343.91V342.084C35.024 341.967 35.728 341.871 36.564 341.798C37.4 341.725 38.17 341.688 38.874 341.688C39.8567 341.688 40.6633 341.776 41.294 341.952C41.9247 342.128 42.4307 342.509 42.812 343.096C43.1933 343.668 43.384 344.519 43.384 345.648C43.384 346.513 43.3033 347.21 43.142 347.738C42.9953 348.266 42.7533 348.691 42.416 349.014C42.0933 349.322 41.646 349.615 41.074 349.894L37.466 351.61C37.0553 351.801 36.7767 352.021 36.63 352.27C36.542 352.446 36.476 352.673 36.432 352.952C36.4027 353.231 36.388 353.634 36.388 354.162V355.042ZM52.059 357V353.59H45.415V351.874L50.255 341.864H52.697L47.857 351.654H52.059L52.587 346.704H54.325V351.654H56.151V353.59H54.325V357H52.059ZM71.6026 357L67.5106 350.29H65.7286V357H63.4626V341.864H65.7286V348.332H67.5106L71.6686 341.864H74.1106L69.3586 349.168L74.1766 357H71.6026ZM76.0033 342.832V340.654H78.2253V342.832H76.0033ZM76.0473 357V345.78H78.1813V357H76.0473ZM87.649 350.752C87.649 349.725 87.5977 348.999 87.495 348.574C87.407 348.134 87.231 347.848 86.967 347.716C86.703 347.584 86.2484 347.518 85.603 347.518C84.9284 347.518 84.4297 347.65 84.107 347.914C83.7844 348.178 83.579 348.559 83.491 349.058C83.403 349.557 83.359 350.268 83.359 351.192V357H81.225V345.78H83.161L83.249 347.276H83.403C83.6377 346.733 84.0044 346.323 84.503 346.044C85.0017 345.751 85.6764 345.604 86.527 345.604C87.451 345.604 88.1404 345.758 88.595 346.066C89.0644 346.359 89.3797 346.807 89.541 347.408C89.7024 348.009 89.783 348.845 89.783 349.916V357H87.649V350.752ZM96.4571 361.466C95.0931 361.466 93.9564 361.393 93.0471 361.246V359.574C94.2791 359.633 95.2618 359.662 95.9951 359.662C96.9484 359.662 97.6378 359.567 98.0631 359.376C98.4884 359.2 98.7598 358.87 98.8771 358.386C99.0091 357.917 99.0751 357.147 99.0751 356.076V355.592H98.9431C98.7084 356.135 98.3418 356.523 97.8431 356.758C97.3444 356.978 96.7211 357.088 95.9731 357.088C95.0344 357.088 94.3084 356.927 93.7951 356.604C93.2964 356.267 92.9371 355.695 92.7171 354.888C92.5118 354.067 92.4091 352.901 92.4091 351.39C92.4091 349.865 92.5191 348.691 92.7391 347.87C92.9591 347.034 93.3258 346.447 93.8391 346.11C94.3524 345.773 95.0711 345.604 95.9951 345.604C96.6991 345.604 97.3151 345.721 97.8431 345.956C98.3711 346.191 98.7671 346.631 99.0311 347.276H99.1631L99.2511 345.78H101.209V355.526C101.209 357.095 101.106 358.283 100.901 359.09C100.696 359.897 100.256 360.491 99.5811 360.872C98.9064 361.268 97.8651 361.466 96.4571 361.466ZM96.8311 355.196C97.3738 355.196 97.7918 355.115 98.0851 354.954C98.3931 354.778 98.6204 354.507 98.7671 354.14C98.8844 353.847 98.9651 353.487 99.0091 353.062C99.0531 352.637 99.0751 352.072 99.0751 351.368C99.0751 350.708 99.0531 350.173 99.0091 349.762C98.9798 349.337 98.9064 348.977 98.7891 348.684C98.6424 348.273 98.4151 347.98 98.1071 347.804C97.7991 347.613 97.3738 347.518 96.8311 347.518C96.1124 347.518 95.5991 347.599 95.2911 347.76C94.9978 347.921 94.7998 348.259 94.6971 348.772C94.6091 349.285 94.5651 350.151 94.5651 351.368C94.5651 352.571 94.6164 353.429 94.7191 353.942C94.8218 354.441 95.0198 354.778 95.3131 354.954C95.6211 355.115 96.1271 355.196 96.8311 355.196ZM113.58 357.176C111.996 357.176 110.449 357.073 108.938 356.868V354.976C110.522 355.137 111.842 355.218 112.898 355.218C113.573 355.218 114.101 355.181 114.482 355.108C114.878 355.035 115.194 354.91 115.428 354.734C115.634 354.558 115.766 354.323 115.824 354.03C115.898 353.722 115.934 353.304 115.934 352.776C115.934 352.116 115.898 351.654 115.824 351.39C115.766 351.111 115.626 350.913 115.406 350.796C115.186 350.664 114.812 350.561 114.284 350.488L111.336 350.092C110.559 349.989 109.972 349.769 109.576 349.432C109.18 349.095 108.909 348.655 108.762 348.112C108.63 347.569 108.564 346.873 108.564 346.022C108.564 344.863 108.748 343.969 109.114 343.338C109.496 342.707 110.031 342.275 110.72 342.04C111.424 341.805 112.326 341.688 113.426 341.688C114.174 341.688 114.915 341.725 115.648 341.798C116.382 341.857 117.012 341.945 117.54 342.062V343.91C116.514 343.734 115.311 343.646 113.932 343.646C113.228 343.646 112.678 343.683 112.282 343.756C111.886 343.829 111.578 343.954 111.358 344.13C111.138 344.306 110.992 344.533 110.918 344.812C110.86 345.076 110.83 345.45 110.83 345.934C110.83 346.506 110.86 346.924 110.918 347.188C110.992 347.452 111.124 347.643 111.314 347.76C111.505 347.863 111.828 347.943 112.282 348.002L115.274 348.398C115.949 348.486 116.492 348.64 116.902 348.86C117.313 349.065 117.628 349.432 117.848 349.96C118.083 350.517 118.2 351.383 118.2 352.556C118.2 353.817 118.024 354.785 117.672 355.46C117.335 356.12 116.836 356.575 116.176 356.824C115.531 357.059 114.666 357.176 113.58 357.176ZM121.464 357V347.584H119.55V345.78H121.464V342.524H123.598V345.78H125.864V347.584H123.598V357H121.464ZM126.222 358.826C126.75 358.826 127.095 358.731 127.256 358.54C127.417 358.364 127.498 357.975 127.498 357.374V357H126.552V354.602H128.972V356.494C128.972 357.447 128.906 358.144 128.774 358.584C128.642 359.039 128.385 359.354 128.004 359.53C127.637 359.721 127.043 359.816 126.222 359.816V358.826ZM144.906 356.868C144.51 356.956 144.012 357.029 143.41 357.088C142.824 357.147 142.274 357.176 141.76 357.176C140.162 357.176 138.988 356.971 138.24 356.56C137.507 356.135 137.016 355.401 136.766 354.36C136.517 353.304 136.392 351.661 136.392 349.432C136.392 347.217 136.517 345.582 136.766 344.526C137.016 343.47 137.507 342.737 138.24 342.326C138.988 341.901 140.162 341.688 141.76 341.688C142.288 341.688 142.838 341.725 143.41 341.798C143.997 341.857 144.474 341.937 144.84 342.04V343.844C143.946 343.712 143.102 343.646 142.31 343.646C141.108 343.646 140.272 343.763 139.802 343.998C139.333 344.233 139.025 344.724 138.878 345.472C138.732 346.22 138.658 347.54 138.658 349.432C138.658 351.324 138.732 352.644 138.878 353.392C139.025 354.14 139.333 354.631 139.802 354.866C140.272 355.101 141.108 355.218 142.31 355.218C143.337 355.218 144.202 355.152 144.906 355.02V356.868ZM153.778 350.752C153.778 349.725 153.727 348.999 153.624 348.574C153.536 348.134 153.36 347.848 153.096 347.716C152.832 347.584 152.377 347.518 151.732 347.518C151.057 347.518 150.559 347.65 150.236 347.914C149.913 348.178 149.708 348.559 149.62 349.058C149.532 349.557 149.488 350.268 149.488 351.192V357H147.354V340.654H149.488V347.144H149.62C149.855 346.645 150.214 346.271 150.698 346.022C151.182 345.758 151.835 345.626 152.656 345.626C153.565 345.626 154.255 345.78 154.724 346.088C155.193 346.381 155.509 346.829 155.67 347.43C155.831 348.031 155.912 348.86 155.912 349.916V357H153.778V350.752ZM161.464 357.176C160.379 357.176 159.579 356.927 159.066 356.428C158.567 355.929 158.318 355.079 158.318 353.876C158.318 353.011 158.413 352.336 158.604 351.852C158.795 351.368 159.117 351.016 159.572 350.796C160.027 350.576 160.665 350.466 161.486 350.466C162.234 350.466 163.312 350.495 164.72 350.554V349.96C164.72 349.139 164.654 348.559 164.522 348.222C164.39 347.885 164.141 347.665 163.774 347.562C163.407 347.459 162.791 347.408 161.926 347.408C161.515 347.408 161.002 347.43 160.386 347.474C159.77 347.518 159.293 347.569 158.956 347.628V345.912C160.056 345.707 161.273 345.604 162.608 345.604C163.825 345.604 164.735 345.743 165.336 346.022C165.937 346.301 166.341 346.748 166.546 347.364C166.751 347.965 166.854 348.845 166.854 350.004V357H164.918L164.83 355.548H164.698C164.419 356.193 163.994 356.626 163.422 356.846C162.865 357.066 162.212 357.176 161.464 357.176ZM162.366 355.394C162.879 355.394 163.297 355.335 163.62 355.218C163.943 355.101 164.192 354.881 164.368 354.558C164.603 354.089 164.72 353.399 164.72 352.49V351.962H162.014C161.559 351.962 161.222 352.006 161.002 352.094C160.782 352.167 160.628 352.329 160.54 352.578C160.452 352.813 160.408 353.187 160.408 353.7C160.408 354.184 160.452 354.543 160.54 354.778C160.643 355.013 160.826 355.174 161.09 355.262C161.369 355.35 161.794 355.394 162.366 355.394ZM169.891 345.78H171.827L171.915 347.804H172.069C172.304 346.968 172.685 346.396 173.213 346.088C173.756 345.765 174.467 345.604 175.347 345.604V347.738C174.482 347.738 173.807 347.885 173.323 348.178C172.839 348.471 172.502 348.926 172.311 349.542C172.12 350.143 172.025 350.972 172.025 352.028V357H169.891V345.78ZM177.325 357V340.654H179.459V357H177.325ZM190.73 352.094H184.262C184.262 353.121 184.314 353.847 184.416 354.272C184.534 354.697 184.79 354.991 185.186 355.152C185.597 355.313 186.279 355.394 187.232 355.394C188.024 355.394 189.066 355.321 190.356 355.174V356.846C189.946 356.949 189.403 357.029 188.728 357.088C188.054 357.147 187.401 357.176 186.77 357.176C185.377 357.176 184.35 357 183.69 356.648C183.045 356.281 182.62 355.709 182.414 354.932C182.209 354.155 182.106 352.981 182.106 351.412C182.106 349.872 182.202 348.713 182.392 347.936C182.583 347.144 182.994 346.557 183.624 346.176C184.255 345.795 185.245 345.604 186.594 345.604C187.9 345.604 188.838 345.795 189.41 346.176C189.997 346.543 190.364 347.107 190.51 347.87C190.657 348.618 190.73 349.791 190.73 351.39V352.094ZM186.55 347.386C185.846 347.386 185.34 347.467 185.032 347.628C184.739 347.789 184.541 348.083 184.438 348.508C184.336 348.933 184.277 349.63 184.262 350.598H188.662V350.488C188.662 349.549 188.604 348.867 188.486 348.442C188.369 348.017 188.164 347.738 187.87 347.606C187.592 347.459 187.152 347.386 186.55 347.386ZM196.783 357.176C196.226 357.176 195.602 357.147 194.913 357.088C194.224 357.029 193.63 356.963 193.131 356.89V355.174C194.187 355.306 195.309 355.372 196.497 355.372C197.098 355.372 197.546 355.321 197.839 355.218C198.132 355.115 198.323 354.961 198.411 354.756C198.499 354.551 198.543 354.25 198.543 353.854C198.543 353.414 198.514 353.106 198.455 352.93C198.396 352.739 198.294 352.615 198.147 352.556C198 352.483 197.744 352.424 197.377 352.38L194.957 352.05C194.121 351.947 193.556 351.661 193.263 351.192C192.97 350.708 192.823 349.953 192.823 348.926C192.823 348.017 192.984 347.32 193.307 346.836C193.63 346.352 194.07 346.029 194.627 345.868C195.199 345.692 195.932 345.604 196.827 345.604C197.384 345.604 197.964 345.633 198.565 345.692C199.181 345.751 199.68 345.831 200.061 345.934V347.628C199.078 347.481 198.052 347.408 196.981 347.408C196.204 347.408 195.661 347.503 195.353 347.694C195.045 347.87 194.891 348.266 194.891 348.882C194.891 349.278 194.913 349.564 194.957 349.74C195.016 349.916 195.118 350.041 195.265 350.114C195.412 350.187 195.646 350.246 195.969 350.29L198.455 350.598C198.983 350.671 199.394 350.796 199.687 350.972C199.995 351.148 200.222 351.456 200.369 351.896C200.53 352.321 200.611 352.952 200.611 353.788C200.611 354.697 200.464 355.401 200.171 355.9C199.892 356.384 199.474 356.721 198.917 356.912C198.374 357.088 197.663 357.176 196.783 357.176ZM203.835 357V347.584H201.921V345.78H203.835V342.524H205.969V345.78H208.235V347.584H205.969V357H203.835ZM214.201 357.176C212.793 357.176 211.781 357.015 211.165 356.692C210.564 356.369 210.175 355.834 209.999 355.086C209.823 354.323 209.735 353.091 209.735 351.39C209.735 349.689 209.823 348.457 209.999 347.694C210.175 346.931 210.564 346.396 211.165 346.088C211.781 345.765 212.793 345.604 214.201 345.604C215.609 345.604 216.614 345.765 217.215 346.088C217.831 346.396 218.227 346.931 218.403 347.694C218.579 348.457 218.667 349.689 218.667 351.39C218.667 353.091 218.579 354.323 218.403 355.086C218.227 355.834 217.831 356.369 217.215 356.692C216.614 357.015 215.609 357.176 214.201 357.176ZM214.201 355.372C214.993 355.372 215.543 355.284 215.851 355.108C216.159 354.932 216.35 354.595 216.423 354.096C216.497 353.597 216.533 352.695 216.533 351.39C216.533 350.07 216.497 349.168 216.423 348.684C216.35 348.185 216.159 347.848 215.851 347.672C215.543 347.496 214.993 347.408 214.201 347.408C213.424 347.408 212.881 347.496 212.573 347.672C212.265 347.848 212.075 348.185 212.001 348.684C211.928 349.168 211.891 350.07 211.891 351.39C211.891 352.695 211.928 353.597 212.001 354.096C212.075 354.595 212.265 354.932 212.573 355.108C212.881 355.284 213.424 355.372 214.201 355.372ZM227.749 350.752C227.749 349.725 227.697 348.999 227.595 348.574C227.507 348.134 227.331 347.848 227.067 347.716C226.803 347.584 226.348 347.518 225.703 347.518C225.028 347.518 224.529 347.65 224.207 347.914C223.884 348.178 223.679 348.559 223.591 349.058C223.503 349.557 223.459 350.268 223.459 351.192V357H221.325V345.78H223.261L223.349 347.276H223.503C223.737 346.733 224.104 346.323 224.603 346.044C225.101 345.751 225.776 345.604 226.627 345.604C227.551 345.604 228.24 345.758 228.695 346.066C229.164 346.359 229.479 346.807 229.641 347.408C229.802 348.009 229.883 348.845 229.883 349.916V357H227.749V350.752ZM232.355 358.826C232.883 358.826 233.227 358.731 233.389 358.54C233.55 358.364 233.631 357.975 233.631 357.374V357H232.685V354.602H235.105V356.494C235.105 357.447 235.039 358.144 234.907 358.584C234.775 359.039 234.518 359.354 234.137 359.53C233.77 359.721 233.176 359.816 232.355 359.816V358.826ZM247.299 357.176C245.715 357.176 244.168 357.073 242.657 356.868V354.976C244.241 355.137 245.561 355.218 246.617 355.218C247.292 355.218 247.82 355.181 248.201 355.108C248.597 355.035 248.912 354.91 249.147 354.734C249.352 354.558 249.484 354.323 249.543 354.03C249.616 353.722 249.653 353.304 249.653 352.776C249.653 352.116 249.616 351.654 249.543 351.39C249.484 351.111 249.345 350.913 249.125 350.796C248.905 350.664 248.531 350.561 248.003 350.488L245.055 350.092C244.278 349.989 243.691 349.769 243.295 349.432C242.899 349.095 242.628 348.655 242.481 348.112C242.349 347.569 242.283 346.873 242.283 346.022C242.283 344.863 242.466 343.969 242.833 343.338C243.214 342.707 243.75 342.275 244.439 342.04C245.143 341.805 246.045 341.688 247.145 341.688C247.893 341.688 248.634 341.725 249.367 341.798C250.1 341.857 250.731 341.945 251.259 342.062V343.91C250.232 343.734 249.03 343.646 247.651 343.646C246.947 343.646 246.397 343.683 246.001 343.756C245.605 343.829 245.297 343.954 245.077 344.13C244.857 344.306 244.71 344.533 244.637 344.812C244.578 345.076 244.549 345.45 244.549 345.934C244.549 346.506 244.578 346.924 244.637 347.188C244.71 347.452 244.842 347.643 245.033 347.76C245.224 347.863 245.546 347.943 246.001 348.002L248.993 348.398C249.668 348.486 250.21 348.64 250.621 348.86C251.032 349.065 251.347 349.432 251.567 349.96C251.802 350.517 251.919 351.383 251.919 352.556C251.919 353.817 251.743 354.785 251.391 355.46C251.054 356.12 250.555 356.575 249.895 356.824C249.25 357.059 248.384 357.176 247.299 357.176ZM262.855 356.868C262.459 356.956 261.961 357.029 261.359 357.088C260.773 357.147 260.223 357.176 259.709 357.176C258.111 357.176 256.937 356.971 256.189 356.56C255.456 356.135 254.965 355.401 254.715 354.36C254.466 353.304 254.341 351.661 254.341 349.432C254.341 347.217 254.466 345.582 254.715 344.526C254.965 343.47 255.456 342.737 256.189 342.326C256.937 341.901 258.111 341.688 259.709 341.688C260.237 341.688 260.787 341.725 261.359 341.798C261.946 341.857 262.423 341.937 262.789 342.04V343.844C261.895 343.712 261.051 343.646 260.259 343.646C259.057 343.646 258.221 343.763 257.751 343.998C257.282 344.233 256.974 344.724 256.827 345.472C256.681 346.22 256.607 347.54 256.607 349.432C256.607 351.324 256.681 352.644 256.827 353.392C256.974 354.14 257.282 354.631 257.751 354.866C258.221 355.101 259.057 355.218 260.259 355.218C261.286 355.218 262.151 355.152 262.855 355.02V356.868ZM36.388 390.042H43.384V392H34.188V390.152C34.188 388.891 34.2247 387.967 34.298 387.38C34.386 386.779 34.584 386.287 34.892 385.906C35.2 385.51 35.706 385.143 36.41 384.806L39.666 383.244C40.282 382.951 40.678 382.65 40.854 382.342C41.0447 382.034 41.14 381.535 41.14 380.846C41.14 380.201 41.052 379.724 40.876 379.416C40.7147 379.108 40.4287 378.903 40.018 378.8C39.622 378.697 39.0133 378.646 38.192 378.646C37.1507 378.646 35.904 378.734 34.452 378.91V377.084C35.024 376.967 35.728 376.871 36.564 376.798C37.4 376.725 38.17 376.688 38.874 376.688C39.8567 376.688 40.6633 376.776 41.294 376.952C41.9247 377.128 42.4307 377.509 42.812 378.096C43.1933 378.668 43.384 379.519 43.384 380.648C43.384 381.513 43.3033 382.21 43.142 382.738C42.9953 383.266 42.7533 383.691 42.416 384.014C42.0933 384.322 41.646 384.615 41.074 384.894L37.466 386.61C37.0553 386.801 36.7767 387.021 36.63 387.27C36.542 387.446 36.476 387.673 36.432 387.952C36.4027 388.231 36.388 388.634 36.388 389.162V390.042ZM50.431 392.176C49.8884 392.176 49.243 392.132 48.495 392.044C47.7617 391.971 47.087 391.875 46.471 391.758V389.932C47.7764 390.123 48.9497 390.218 49.991 390.218C51.1204 390.218 51.927 390.093 52.411 389.844C52.9097 389.58 53.2324 389.103 53.379 388.414C53.5404 387.71 53.621 386.559 53.621 384.96H53.511C53.2617 385.268 52.8877 385.525 52.389 385.73C51.8904 385.935 51.135 386.038 50.123 386.038C49.023 386.038 48.165 385.935 47.549 385.73C46.9477 385.51 46.5004 385.092 46.207 384.476C45.9137 383.86 45.767 382.943 45.767 381.726C45.767 380.377 45.8917 379.35 46.141 378.646C46.405 377.942 46.8817 377.443 47.571 377.15C48.2604 376.842 49.287 376.688 50.651 376.688C51.6777 376.688 52.4917 376.747 53.093 376.864C53.709 376.981 54.2077 377.216 54.589 377.568C54.985 377.905 55.2857 378.404 55.491 379.064C55.6524 379.592 55.7624 380.274 55.821 381.11C55.8797 381.931 55.909 382.995 55.909 384.3C55.909 385.693 55.8577 386.837 55.755 387.732C55.667 388.612 55.5057 389.331 55.271 389.888C54.919 390.724 54.369 391.318 53.621 391.67C52.873 392.007 51.8097 392.176 50.431 392.176ZM50.805 384.102C51.641 384.102 52.2497 384.036 52.631 383.904C53.027 383.757 53.2837 383.53 53.401 383.222C53.5184 382.914 53.577 382.445 53.577 381.814C53.577 380.846 53.4964 380.142 53.335 379.702C53.1737 379.262 52.9024 378.976 52.521 378.844C52.1544 378.712 51.5824 378.646 50.805 378.646C49.9837 378.646 49.3824 378.705 49.001 378.822C48.6344 378.925 48.3777 379.159 48.231 379.526C48.0844 379.893 48.011 380.487 48.011 381.308C48.011 382.188 48.077 382.819 48.209 383.2C48.3557 383.581 48.6124 383.831 48.979 383.948C49.3457 384.051 49.9544 384.102 50.805 384.102ZM64.6704 392V388.59H58.0264V386.874L62.8664 376.864H65.3084L60.4684 386.654H64.6704L65.1984 381.704H66.9364V386.654H68.7624V388.59H66.9364V392H64.6704ZM75.9029 392.176C74.2749 392.176 73.1163 391.971 72.4269 391.56C71.7376 391.149 71.2976 390.445 71.1069 389.448C70.9309 388.451 70.8429 386.779 70.8429 384.432C70.8429 382.085 70.9309 380.413 71.1069 379.416C71.2976 378.419 71.7376 377.715 72.4269 377.304C73.1163 376.893 74.2749 376.688 75.9029 376.688C77.5456 376.688 78.7043 376.893 79.3789 377.304C80.0683 377.715 80.5009 378.419 80.6769 379.416C80.8676 380.399 80.9629 382.071 80.9629 384.432C80.9629 386.779 80.8676 388.451 80.6769 389.448C80.5009 390.445 80.0683 391.149 79.3789 391.56C78.6896 391.971 77.5309 392.176 75.9029 392.176ZM75.9029 390.218C76.8709 390.218 77.5236 390.123 77.8609 389.932C78.2129 389.727 78.4403 389.265 78.5429 388.546C78.6456 387.813 78.6969 386.441 78.6969 384.432C78.6969 382.423 78.6456 381.059 78.5429 380.34C78.4403 379.607 78.2129 379.145 77.8609 378.954C77.5236 378.749 76.8709 378.646 75.9029 378.646C74.9349 378.646 74.2749 378.749 73.9229 378.954C73.5856 379.145 73.3656 379.607 73.2629 380.34C73.1603 381.059 73.1089 382.423 73.1089 384.432C73.1089 386.441 73.1603 387.813 73.2629 388.546C73.3656 389.265 73.5856 389.727 73.9229 389.932C74.2749 390.123 74.9349 390.218 75.9029 390.218ZM85.4757 392V379.46L82.8797 380.67V378.646L86.1357 376.864H87.7417V392H85.4757ZM106.238 376.864V385.356C106.238 387.336 106.128 388.781 105.908 389.69C105.688 390.599 105.226 391.245 104.522 391.626C103.818 391.993 102.689 392.176 101.134 392.176C99.5797 392.176 98.443 391.993 97.7243 391.626C97.0203 391.245 96.551 390.599 96.3163 389.69C96.0963 388.766 95.9863 387.321 95.9863 385.356V376.864H98.2523V386.126C98.2523 387.402 98.3037 388.304 98.4063 388.832C98.5237 389.36 98.773 389.727 99.1543 389.932C99.5357 390.123 100.196 390.218 101.134 390.218C102.058 390.218 102.711 390.123 103.092 389.932C103.474 389.727 103.716 389.367 103.818 388.854C103.921 388.326 103.972 387.417 103.972 386.126V376.864H106.238ZM113.946 392.176C112.362 392.176 110.814 392.073 109.304 391.868V389.976C110.888 390.137 112.208 390.218 113.264 390.218C113.938 390.218 114.466 390.181 114.848 390.108C115.244 390.035 115.559 389.91 115.794 389.734C115.999 389.558 116.131 389.323 116.19 389.03C116.263 388.722 116.3 388.304 116.3 387.776C116.3 387.116 116.263 386.654 116.19 386.39C116.131 386.111 115.992 385.913 115.772 385.796C115.552 385.664 115.178 385.561 114.65 385.488L111.702 385.092C110.924 384.989 110.338 384.769 109.942 384.432C109.546 384.095 109.274 383.655 109.128 383.112C108.996 382.569 108.93 381.873 108.93 381.022C108.93 379.863 109.113 378.969 109.48 378.338C109.861 377.707 110.396 377.275 111.086 377.04C111.79 376.805 112.692 376.688 113.792 376.688C114.54 376.688 115.28 376.725 116.014 376.798C116.747 376.857 117.378 376.945 117.906 377.062V378.91C116.879 378.734 115.676 378.646 114.298 378.646C113.594 378.646 113.044 378.683 112.648 378.756C112.252 378.829 111.944 378.954 111.724 379.13C111.504 379.306 111.357 379.533 111.284 379.812C111.225 380.076 111.196 380.45 111.196 380.934C111.196 381.506 111.225 381.924 111.284 382.188C111.357 382.452 111.489 382.643 111.68 382.76C111.87 382.863 112.193 382.943 112.648 383.002L115.64 383.398C116.314 383.486 116.857 383.64 117.268 383.86C117.678 384.065 117.994 384.432 118.214 384.96C118.448 385.517 118.566 386.383 118.566 387.556C118.566 388.817 118.39 389.785 118.038 390.46C117.7 391.12 117.202 391.575 116.542 391.824C115.896 392.059 115.031 392.176 113.946 392.176ZM129.986 392L128.842 388.172H123.474L122.352 392H120.064L124.684 376.864H127.698L132.318 392H129.986ZM126.202 379.174H126.092L124.024 386.236H128.27L126.202 379.174Z" fill="#343438"/>
<path d="M21 315C21 322 12 328 12 328C12 328 3 322 3 315C3 312.613 3.94821 310.324 5.63604 308.636C7.32387 306.948 9.61305 306 12 306C14.3869 306 16.6761 306.948 18.364 308.636C20.0518 310.324 21 312.613 21 315Z" stroke="#25282B" stroke-width="2" stroke-linecap="round" stroke-linejoin="round"/>
<path d="M12 318C13.6569 318 15 316.657 15 315C15 313.343 13.6569 312 12 312C10.3431 312 9 313.343 9 315C9 316.657 10.3431 318 12 318Z" stroke="#25282B" stroke-width="2" stroke-linecap="round" stroke-linejoin="round"/>
</svg>
