<svg width="114" height="114" viewBox="0 0 114 114" fill="none" xmlns="http://www.w3.org/2000/svg">
<path d="M43.8904 69.4784L59.4173 80.8359M3 80.8359L31.2072 60.2021L38.4619 65.5057M52.5654 19.8013H97.7022M52.5654 33.0941H97.7022M52.5654 46.3897H81.1784M59.4173 80.8359L31.2072 95.9209L3 80.8359V111H59.4173V80.8359V80.8359ZM103.366 3H46.0959C44.0712 3 42.1295 3.79834 40.6978 5.2194C39.2662 6.64046 38.4619 8.56783 38.4619 10.5775V74.8638L50.4158 62.9984H103.366C105.391 62.9984 107.332 62.2 108.764 60.779C110.196 59.3579 111 57.4305 111 55.4209V55.4209V10.5775C111 8.56783 110.196 6.64046 108.764 5.2194C107.332 3.79834 105.391 3 103.366 3Z" stroke="white" stroke-width="5" stroke-linecap="round" stroke-linejoin="round"/>
</svg>
